<svg xmlns="http://www.w3.org/2000/svg" viewBox="0 0 64.58 12.84"><title>Asset 24</title><g id="Layer_2" data-name="Layer 2"><g id="Layer_1-2" data-name="Layer 1"><path d="M64.54,6.36c-6.14-.44-11.82-4-18.87-5.63-8.39-1.91-15.27.32-18,2.6C15.11,3.72,6,5.16,0,8.6,8.75,5.38,24.86,5.47,43.48,6.78A98.41,98.41,0,0,1,30.61,4.54,18,18,0,0,1,44,3C53.85,5.56,62.16,9,64.54,8.6Z" fill="#2d3494" fill-rule="evenodd"/><path d="M0,12.78,6.69,8.94H9.17l7.13,3.83H13.67l-2-1.16H4.36L2.45,12.78ZM5,11.2h5.91L9.11,10.14a12.76,12.76,0,0,1-1.23-.79,4.08,4.08,0,0,1-.94.73L5,11.2Zm21,1.57h0v-.35a11.43,11.43,0,0,1-3.52.41,19.3,19.3,0,0,1-2.77-.19,7,7,0,0,1-2-.51c-.46-.22-.69-.47-.69-.75s.21-.53.63-.75a6.08,6.08,0,0,1,1.89-.52,19.45,19.45,0,0,1,2.82-.18,16.93,16.93,0,0,1,2,.11,7.88,7.88,0,0,1,1.45.28V8.94H28v3.83Zm-6.76-1.38h0c0,.35.34.62,1,.8a9.9,9.9,0,0,0,2.42.26,9.74,9.74,0,0,0,2.37-.25c.65-.17,1-.43,1-.78s-.33-.66-1-.83a9.51,9.51,0,0,0-2.46-.27,9.55,9.55,0,0,0-2.38.25c-.63.17-1,.44-1,.81Zm20.34.37h0l2.1.06a2.85,2.85,0,0,1-1.76.75,18.84,18.84,0,0,1-3.48.28,18.39,18.39,0,0,1-4.16-.38c-1.05-.25-1.57-.6-1.57-1.07,0-.31.22-.57.68-.79a6.78,6.78,0,0,1,2.06-.51,25.94,25.94,0,0,1,3-.17,20.18,20.18,0,0,1,3.36.23,3.09,3.09,0,0,1,1.68.64l-2.08.07a2.08,2.08,0,0,0-1-.42,10.15,10.15,0,0,0-1.83-.14,10.9,10.9,0,0,0-2.63.25c-.67.17-1,.43-1,.81s.33.64,1,.81a10.09,10.09,0,0,0,2.54.25,11.16,11.16,0,0,0,2.1-.17,1.66,1.66,0,0,0,1.08-.52Zm3.94-2.27h0V8.94h2.14v.54Zm0,3.29h0V10h2.14v2.78Zm14-.89h0l2.21.06a4.32,4.32,0,0,1-1.94.66,22.38,22.38,0,0,1-3.61.24,20.54,20.54,0,0,1-4.39-.38c-1.08-.25-1.62-.6-1.62-1.05s.54-.83,1.63-1.09a18.93,18.93,0,0,1,4.26-.39,18.75,18.75,0,0,1,4.13.38c1.07.25,1.61.61,1.61,1.07,0,0,0,.06,0,.12H50.46c.08.3.47.54,1.18.7a12.14,12.14,0,0,0,2.64.24,13.2,13.2,0,0,0,2-.13,3.76,3.76,0,0,0,1.31-.43Zm-7-.76h7c-.09-.24-.37-.41-.81-.53a10.54,10.54,0,0,0-2.64-.27,12.64,12.64,0,0,0-2.48.21q-1,.22-1.11.59Zm11.87,1.65h0V8.94h2.13v3.83Z" fill-rule="evenodd"/></g></g></svg>