<svg xmlns="http://www.w3.org/2000/svg" viewBox="0 0 169.35 71.86"><defs><style>.cls-1{fill:#de1c1f;}.cls-1,.cls-2,.cls-3,.cls-4{fill-rule:evenodd;}.cls-2{fill:#fdd035;}.cls-3{fill:#fff;}.cls-4{fill:#1d1d1b;}</style></defs><title>Asset 1</title><g id="Layer_2"><g id="Layer_1-2"><path d="M0 57.92h27.78l4.75-8.27v8.27h136.8V0H144.5l-7.95 16.25L127.37 0H34.6L0 57.92z" class="cls-1"/><path d="M35.76 3.25L5.63 54.38H26.6l9.18-17.73-.02 17.73H58.8V3.25H35.77zM62.73 3.25v51.13h41.04v-14.2H84.32v-3.83h19.17V21.28H84.3v-3.84h19.46V3.24H62.73zM107.27 3.25v51.13h21.87V41.96l7.4 12.42 6.2-12.42v12.42h22.75V3.25h-18.92l-10.03 20.7-10.95-20.7h-18.33z" class="cls-2"/><path d="M18.36 27.08h96.47l8.1-17.18 13.3 26.6 13.73-27.04 8.53 17.62h10.85v3.32H156.6l-6.86-14.96-13.52 28.04-13.2-27.6-6.53 14.63H16.35l2-3.42z" class="cls-3"/><path d="M6.6 62.7l.94 3.38h-1.8l.87-3.37zm.83-2.05H5.76L3.3 69.27h1.5l.48-1.72h2.6l.5 1.72h1.48l-2.42-8.62zM12.85 64.18a1 1 0 0 1 .9.73 3.66 3.66 0 0 1 .25 1.26 3.56 3.56 0 0 1-.23 1.24 1 1 0 0 1-.9.72 1 1 0 0 1-.93-.72 3.48 3.48 0 0 1 0-2.5 1 1 0 0 1 .92-.73zm2.48-3.53H14v3.08a1.37 1.37 0 0 0-1.5-1 1.93 1.93 0 0 0-1.78 1.45 5.46 5.46 0 0 0-.33 2.07 5.93 5.93 0 0 0 .38 1.8c.4 1.05.94 1.5 1.9 1.46a1.63 1.63 0 0 0 1.32-.87v.7h1.35v-8.68zM17.54 62.87l1.1 4.7 1.1-4.7h1.42l-1.82 6.4h-1.42l-1.8-6.4h1.42zM24.85 66.62c0 .7-.15 1.4-1 1.56-.58.12-.83-.16-.9-.54a.84.84 0 0 1 .6-1 3.15 3.15 0 0 0 1.25-.34v.37zm1.6 2.65v-.22a1.12 1.12 0 0 1-.3-.76v-3.5a1.8 1.8 0 0 0-.95-1.8 3 3 0 0 0-1.2-.24A2 2 0 0 0 21.78 65h1.27c0-.46.12-1 .9-1 .62 0 .9.18.9.58a.7.7 0 0 1-.34.72 4.6 4.6 0 0 1-1.36.3 1.85 1.85 0 0 0-1.52 2c0 1.24.5 2 1.55 2a2.07 2.07 0 0 0 1.7-.9 1.2 1.2 0 0 0 .14.64zM27.38 62.87h1.35v1A1.52 1.52 0 0 1 30 62.75c1.2 0 2 .6 2 2.22v4.3h-1.3v-3.8c0-.58-.06-1.26-1-1.26s-1 .57-1 1.1v4h-1.32v-6.43zM36.43 65.25c-.2-1-.58-1-1-1.05s-.8.33-.94.95a5 5 0 0 0 0 1.87c.2 1 .56 1.15 1 1.16s.76 0 1-1.13h1.3a3.2 3.2 0 0 1-.9 1.95 1.86 1.86 0 0 1-1.54.58C33.72 69.6 33.14 68 33 67a6.25 6.25 0 0 1 .18-2.48c.62-1.7 1.33-1.74 2.2-1.8a2.2 2.2 0 0 1 1.4.35 3.26 3.26 0 0 1 .9 2.14zM39.65 65.5c0-.62.3-1.4 1.14-1.36s.94.86.94 1.35zm3.5 1.1a4.94 4.94 0 0 0-.45-2.6 2.2 2.2 0 0 0-2-1.26c-.6 0-2 .12-2.35 2.64a6.87 6.87 0 0 0 0 2.15 2.83 2.83 0 0 0 .93 1.5 2.27 2.27 0 0 0 1.36.5 2.66 2.66 0 0 0 2.4-2.08h-1.3a1 1 0 0 1-.78.72 1 1 0 0 1-1.15-.56 1.65 1.65 0 0 1-.15-1zM46.25 64.18a1 1 0 0 1 .9.73 3.48 3.48 0 0 1 0 2.5.94.94 0 0 1-1.82 0 3.48 3.48 0 0 1 0-2.5 1 1 0 0 1 .92-.72zm2.48-3.53h-1.35v3.08a1.37 1.37 0 0 0-1.5-1 1.93 1.93 0 0 0-1.78 1.45 5.44 5.44 0 0 0-.33 2.07 6 6 0 0 0 .4 1.8c.4 1.05.93 1.5 1.88 1.46a1.62 1.62 0 0 0 1.33-.9v.7h1.35v-8.65zM57.95 60.65v1.48h-3.67v1.97h3.38v1.48h-3.38v2.22h3.83v1.48h-5.27v-8.63h5.12zM59.16 62.87h1.35v1a1.53 1.53 0 0 1 1.3-1.1c1.2 0 2 .62 2 2.23v4.3h-1.32v-3.84c0-.57-.06-1.25-1-1.25s-1 .57-1 1.1v4h-1.32v-6.43zM67.23 64.25a1.08 1.08 0 0 1 1 .72 3.27 3.27 0 0 1 0 2.5 1 1 0 0 1-1.94 0 3.26 3.26 0 0 1 0-2.5 1.1 1.1 0 0 1 1-.72zm1.2-1.4v1c-.38-.53-.56-1-1.4-1.06a1.76 1.76 0 0 0-1.46.76 5.1 5.1 0 0 0-.06 5.3 1.63 1.63 0 0 0 1.52.72c.72 0 1-.4 1.42-.93v.9a1.22 1.22 0 0 1-1.18 1.23c-.62 0-.94-.35-.94-.72h-1.44c0 1 .76 1.84 2.2 1.84a2.65 2.65 0 0 0 1.8-.5 2.5 2.5 0 0 0 .83-1.93v-6.6zM71 62.86h1.35v6.4H71v-6.4zm0-2.2h1.35v1.47H71v-1.48zM73.7 62.87H75v1a1.53 1.53 0 0 1 1.3-1.1c1.2 0 2 .62 2 2.23v4.3H77v-3.84c0-.57-.06-1.25-1-1.25s-1 .57-1 1.1v4h-1.3v-6.43zM80.58 65.5c0-.62.3-1.4 1.14-1.36s1 .86 1 1.35zm3.5 1.1a5 5 0 0 0-.45-2.6 2.2 2.2 0 0 0-2-1.26c-.6 0-2 .12-2.35 2.64a7.64 7.64 0 0 0 0 1.37 7.8 7.8 0 0 0 .1.78 2.83 2.83 0 0 0 .93 1.5 2.27 2.27 0 0 0 1.37.5A2.66 2.66 0 0 0 84 67.46h-1.32a1 1 0 0 1-1.93.15 1.65 1.65 0 0 1-.17-1zM90.42 69.27l-1.26-6.97v6.97H87.7v-8.62h2.13l1.32 6.62 1.32-6.62h2.12v8.62h-1.46V62.3l-1.26 6.97h-1.46zM98.65 66.62c0 .7-.15 1.4-1 1.56-.58.12-.83-.16-.9-.54a.84.84 0 0 1 .58-1 3.15 3.15 0 0 0 1.26-.34v.37zm1.6 2.65v-.22a1.12 1.12 0 0 1-.3-.76v-3.5A1.8 1.8 0 0 0 99 63a3 3 0 0 0-1.24-.24A2 2 0 0 0 95.58 65h1.27c0-.46.12-1 .9-1 .62 0 .9.18.9.58a.7.7 0 0 1-.34.72 4.6 4.6 0 0 1-1.36.3 1.85 1.85 0 0 0-1.52 2c0 1.24.48 2 1.55 2a2.07 2.07 0 0 0 1.7-.9 1.23 1.23 0 0 0 .14.64zM101.17 62.87h1.35v1a1.52 1.52 0 0 1 1.3-1.1c1.2 0 2 .62 2 2.23v4.3h-1.32v-3.84c0-.57-.06-1.25-1-1.25s-1 .57-1 1.1v4h-1.35v-6.43zM110 66.62c0 .7-.15 1.4-1 1.56-.58.12-.83-.16-.9-.54a.84.84 0 0 1 .6-1 3.14 3.14 0 0 0 1.25-.34v.37zm1.6 2.65v-.22a1.12 1.12 0 0 1-.3-.76v-3.5a1.8 1.8 0 0 0-.95-1.8 3 3 0 0 0-1.24-.25 2 2 0 0 0-2.2 2.25h1.26c0-.46.12-1 .9-1 .62 0 .9.18.9.58a.7.7 0 0 1-.34.72 4.6 4.6 0 0 1-1.37.3 1.85 1.85 0 0 0-1.52 2c0 1.24.48 2 1.55 2a2.07 2.07 0 0 0 1.7-.9 1.22 1.22 0 0 0 .14.64zM114.63 64.25a1.1 1.1 0 0 1 1 .72 3.26 3.26 0 0 1 0 2.5 1 1 0 0 1-1.94 0 3.24 3.24 0 0 1 0-2.5 1.08 1.08 0 0 1 1-.72zm1.2-1.4v1c-.38-.53-.56-1-1.4-1.06a1.76 1.76 0 0 0-1.46.76 5.1 5.1 0 0 0-.06 5.3 1.63 1.63 0 0 0 1.52.72c.72 0 1-.4 1.42-.93v.9a1.22 1.22 0 0 1-1.18 1.23c-.62 0-.94-.35-.94-.72h-1.42c0 1 .76 1.84 2.2 1.84a2.66 2.66 0 0 0 1.8-.5 2.5 2.5 0 0 0 .8-1.93v-6.6zM119.36 65.5c0-.62.3-1.4 1.14-1.36s1 .86 1 1.35zm3.5 1.1a5 5 0 0 0-.46-2.58 2.2 2.2 0 0 0-2-1.26c-.6 0-2 .12-2.35 2.64a7.35 7.35 0 0 0 0 1.37 7.27 7.27 0 0 0 .1.78 2.82 2.82 0 0 0 .93 1.5 2.27 2.27 0 0 0 1.36.5 2.66 2.66 0 0 0 2.4-2.08h-1.35a1 1 0 0 1-.8.72 1 1 0 0 1-1.15-.57 1.68 1.68 0 0 1-.17-1zM123.77 69.27v-6.4h1.35v1c.43-.75.82-1.2 1.62-1.06s.85.4 1.23.94a1.6 1.6 0 0 1 1.85-.93c1 .2 1.33 1 1.33 2.1v4.43h-1.35v-4.46a.67.67 0 0 0-.68-.67c-.73-.06-1 .72-1 1.16v3.92h-1.32v-4.4a.7.7 0 0 0-.75-.68c-.48 0-.93.37-.93 1.16v3.92zM133.37 65.5c0-.62.3-1.4 1.14-1.36s1 .86 1 1.35zm3.5 1.1a5 5 0 0 0-.46-2.58 2.2 2.2 0 0 0-2-1.26c-.6 0-2 .12-2.34 2.64a6.9 6.9 0 0 0 0 2.15 2.83 2.83 0 0 0 .93 1.5 2.27 2.27 0 0 0 1.35.5 2.66 2.66 0 0 0 2.4-2.08h-1.34a1 1 0 0 1-.78.72 1 1 0 0 1-1.15-.57 1.67 1.67 0 0 1-.17-1zM137.8 62.87h1.35v1a1.53 1.53 0 0 1 1.3-1.1c1.2 0 2 .62 2 2.23v4.3h-1.36v-3.84c0-.57-.07-1.25-1-1.25s-1 .57-1 1.1v4h-1.3v-6.43zM143.9 63v-1.74h1.36V63h.74v1.1h-.75v3.6c0 .3 0 .54.22.54h.53v1.12a2.06 2.06 0 0 1-.65.15 1.67 1.67 0 0 1-.64-.07 1.3 1.3 0 0 1-.8-1.2V64.1h-.66V63zM149.63 60.65h1.45v8.62h-1.45v-8.62zM152.34 62.87h1.35v1a1.53 1.53 0 0 1 1.3-1.1c1.2 0 2 .62 2 2.23v4.3h-1.36v-3.84c0-.57-.06-1.25-1-1.25s-1 .57-1 1.1v4h-1.35v-6.43zM161.4 65.25c-.2-1-.6-1-1-1.05s-.8.33-.95.95a4.94 4.94 0 0 0 0 1.87c.2 1 .57 1.15 1 1.16s.77 0 1-1.13h1.3a3.2 3.2 0 0 1-.83 1.92 1.86 1.86 0 0 1-1.54.58c-1.7.05-2.28-1.55-2.38-2.55a6.33 6.33 0 0 1 .18-2.48c.62-1.7 1.33-1.74 2.2-1.8a2.2 2.2 0 0 1 1.38.35 3.27 3.27 0 0 1 .92 2.14zM163.63 67.56h1.46v1.72h-1.47v-1.72z" class="cls-4"/></g></g></svg>