<svg xmlns="http://www.w3.org/2000/svg" viewBox="0 0 81.57 22.69"><title>Asset 61</title><g><g><g><path fill="#212c5e" d="M25.6 17.28v2.14H22v-2.14h-.74v5.26H22V20.2h3.56v2.34h.74v-5.26"/><path fill="#212c5e" d="M27.57 17.28v5.26h4.65v-.78h-3.9V20.2h2.6v-.78h-2.6v-1.35h3.73v-.8"/><path fill="#212c5e" d="M33.33 17.28v5.26h4.17v-.78h-3.43v-4.48"/><path fill="#212c5e" d="M38.48 22.55h.74v-5.27h-.74z"/><path fill="#212c5e" d="M45.76 18.48l-.67.3a2.27 2.27 0 0 0-1.9-.86 2.06 2.06 0 0 0-1.5.56 2.08 2.08 0 0 0 0 2.87 2.14 2.14 0 0 0 1.55.55 2.23 2.23 0 0 0 1.85-.9l.63.42a2.93 2.93 0 0 1-1.08 1 3.2 3.2 0 0 1-1.44.3 2.82 2.82 0 0 1-2-.7 2.86 2.86 0 0 1 0-4.17 2.78 2.78 0 0 1 1.96-.7 2.88 2.88 0 0 1 2.56 1.36"/><path fill="#212c5e" d="M51.57 19.9a1.87 1.87 0 0 0-.66-1.48 2.3 2.3 0 0 0-2.92.07 2.07 2.07 0 0 0 0 2.86 2.36 2.36 0 0 0 3 0 1.9 1.9 0 0 0 .57-1.44m.77 0a2.66 2.66 0 0 1-.9 2.1 3.1 3.1 0 0 1-3.92 0 2.85 2.85 0 0 1 0-4.17 2.83 2.83 0 0 1 2-.7 2.8 2.8 0 0 1 1.95.7 2.68 2.68 0 0 1 .9 2.08"/><path fill="#212c5e" d="M56.86 19.76q.85 0 .85-.8c0-.6-.3-.88-.9-.88h-2.6v1.68zm.14-2.48a1.36 1.36 0 0 1 1.08.45 1.73 1.73 0 0 1 .4 1.2 1.45 1.45 0 0 1-1.63 1.6H54.2v2h-.74V17.3"/><path fill="#212c5e" d="M64 18.07h-2.1v4.47h-.73v-4.47h-2.1v-.8h5"/><path fill="#212c5e" d="M69.55 22.54H64.9v-5.26h4.48v.8h-3.75v1.33h2.6v.8h-2.6v1.55h3.92"/><path fill="#212c5e" d="M74 19.76c.57 0 .85-.27.85-.8s-.3-.88-.92-.88H71.4v1.68zm1.64 2.8h-.86l-1.2-2h-2.2v2h-.73v-5.28h3.5a1.38 1.38 0 0 1 1.1.45 1.73 1.73 0 0 1 .4 1.2 1.7 1.7 0 0 1-.32 1.07 1.35 1.35 0 0 1-.83.48"/><path fill="#212c5e" d="M80.85 18.52a3.82 3.82 0 0 0-2-.6 2.3 2.3 0 0 0-1 .2.58.58 0 0 0-.37.52.53.53 0 0 0 .4.5 3.1 3.1 0 0 0 .9.17c.6 0 1 .1 1.2.12a2.38 2.38 0 0 1 1.24.5 1.28 1.28 0 0 1 .4 1A1.5 1.5 0 0 1 81 22.2a3.05 3.05 0 0 1-1.8.46 3.7 3.7 0 0 1-2.65-.9l.4-.62a3.78 3.78 0 0 0 2.24.76 2.4 2.4 0 0 0 1.2-.26.75.75 0 0 0 .4-.68.67.67 0 0 0-.53-.67 10.77 10.77 0 0 0-1.52-.2 3.77 3.77 0 0 1-1.54-.34 1.1 1.1 0 0 1-.5-1 1.37 1.37 0 0 1 .6-1.17 2.74 2.74 0 0 1 1.64-.44 3.74 3.74 0 0 1 2.4.78"/><path fill="#212c5e" d="M18.25 9.12A9.12 9.12 0 1 1 9.12 0a9.13 9.13 0 0 1 9.12 9.12"/><path fill="#fff" d="M6.1 7.4l-.62.45H8l.47-.45zm-1.78 3.5c.3-.4 1.36-1.9 1.45-2.06a.94.94 0 0 1 .8-.38H14c.68 0 .82-.2.9-.3l1.14-1.5h-1c-.15.23-.53.77-.64 1a1.08 1.08 0 0 1-.9.42h-9a1.87 1.87 0 0 0-1.5.67l-1.5 2.2H4.3m8.62-3.7l.32-.45H.78c0 .15-.08.3-.1.46zM16 8.9a1.32 1.32 0 0 1-1.1.36H9.8a.86.86 0 0 0-.66.38c-.16.2-.55.78-.55.78a1.2 1.2 0 0 1-1.14.58H4.8L6 9.17s.18-.33.8-.33h7.5a1.18 1.18 0 0 0 1-.45c.22-.3 1-1.37 1.24-1.73h1"/><path fill="#212c5e" d="M56.2 12.3h-3.8V10.2h3.8a1.07 1.07 0 1 1 0 2.14M52.4 6h3.73a.94.94 0 0 1 .94.92 1 1 0 0 1-1 .93H52.4zm5.94 3a2.56 2.56 0 0 0 1-2.22 3.12 3.12 0 0 0-3.18-3.06h-6.38V14.6h6.6a3.3 3.3 0 0 0 3.4-3.18A2.7 2.7 0 0 0 58.33 9m9.8-5.3v6.13a2.43 2.43 0 1 1-4.85 0v-6.1h-2.7v6.12c0 3.9 2.28 5 5.1 5s5.13-1.13 5.13-5v-6.1zM77.6 8c-2.2-.47-2.92-.68-2.92-1.38s.8-.92 2-.92a7.5 7.5 0 0 1 3.44 1L81 4.46a12 12 0 0 0-4.8-1c-2.65 0-4.3 1.55-4.3 3.43s1.37 2.68 4.1 3.25c2.1.44 2.66.7 2.66 1.36s-.84.9-2 .9a10.8 10.8 0 0 1-4.2-1.06l-.8 2.15a12.07 12.07 0 0 0 5.2 1.32c3.28 0 4.6-1.57 4.6-3.4 0-1.62-1.12-2.87-3.85-3.47M26.8 3.75L21.3 14.6h3.26l.82-1.74h3.73L28 10.48h-1.52l1.4-3 3.5 7.08h3.25l-5.7-10.8zm22 3.6c0-2-1.35-3.56-4.13-3.56H39V14.6h2.6V6.08h3.2a1.2 1.2 0 0 1 1.34 1.28A1.2 1.2 0 0 1 44.8 8.6h-2.23l3.38 6h2.67s-2.32-3.9-2.3-3.9a3.3 3.3 0 0 0 2.46-3.35m-13.6 7.25h2.7V3.76h-2.7"/></g></g></g></svg>