<svg xmlns="http://www.w3.org/2000/svg" viewBox="0 0 240.94 69.5"><defs><style>.cls-1,.cls-2{fill:#ed2224;}.cls-2{fill-rule:evenodd;}</style></defs><title>AP 101</title><g id="Layer_2" data-name="Layer 2"><g id="Layer_1-2" data-name="Layer 1"><path class="cls-1" d="M65.84,66.9h-47l5.5-11H48.84L34.06,26.37a1.24,1.24,0,0,0-1.14-.7,1.26,1.26,0,0,0-1.14.7l-14.5,29L11.52,66.9H0l26.06-52.1a7.68,7.68,0,0,1,13.74,0Z"/><path class="cls-2" d="M70.67,10.55h47.58A8.79,8.79,0,0,1,127,19.31v0h0V35.59h0a8.79,8.79,0,0,1-8.77,8.77H84.44a1.26,1.26,0,0,0-1.25,1.25V66.9H70.67V31.83h42.58a1.26,1.26,0,0,0,1.25-1.25V24.32a1.25,1.25,0,0,0-1.25-1.25H70.67Z"/><path class="cls-2" d="M134.51,47H240.94V69.5H134.51Zm28.26,6.95c0-.4-.29-.76-.83-1.08a7.3,7.3,0,0,0-2.18-.78,15.5,15.5,0,0,0-3.08-.29H144.38v2.72h4.85V64.69h13.55ZM202,51.77H174.64a15.2,15.2,0,0,0-3,.29,7.2,7.2,0,0,0-2.18.76,1.44,1.44,0,0,0-.83,1.09v8.64a1.44,1.44,0,0,0,.83,1.09,8,8,0,0,0,2.18.76,16.14,16.14,0,0,0,3,.29H202a16.06,16.06,0,0,0,3.05-.29,7.63,7.63,0,0,0,2.17-.76,1.39,1.39,0,0,0,.81-1.09V53.91a1.39,1.39,0,0,0-.81-1.09,6.88,6.88,0,0,0-2.17-.76,15.14,15.14,0,0,0-3.05-.29Zm-7.68,9.67c0,.15-.14.26-.39.36a2.78,2.78,0,0,1-1,.15h-9.35a2.54,2.54,0,0,1-.93-.15c-.25-.1-.38-.21-.39-.36V55c0-.15.14-.28.39-.38a2.28,2.28,0,0,1,.93-.16h9.35a2.48,2.48,0,0,1,1,.16c.25.1.38.23.39.38Zm36.79-7.53c0-.4-.29-.76-.84-1.08a7.3,7.3,0,0,0-2.18-.78,15.39,15.39,0,0,0-3.08-.29h-12.3v2.72h4.85V64.69h13.55Z"/><path class="cls-2" d="M127.73,10.48c2.21,0,1.94.13,4.27.26s4.4-.13,5.82,1.29,1,3.62,1.16,6l.4,4,.39-7.64c.26-4,4.78-3.49,7.11-3.62l3.49-.39c-2.33-.13-1.17-.13-3.49-.26-3.11-.12-6.86.26-7.11-3.49L139.39,0c-.91,2.72.39,6.86-1.56,8.8-1.29,1.42-3.62,1.17-5.82,1.29a14.11,14.11,0,0,0-4.27.39Z"/></g></g></svg>