<svg xmlns="http://www.w3.org/2000/svg" viewBox="0 0 81.09 15.31"><title>Asset 26</title><g><g><circle cx="7.66" cy="7.66" r="7.66" fill="#fff"/><path fill="#828684" fill-rule="evenodd" d="M13.87 9.2h-4.2v.48h3.47a5.85 5.85 0 0 1-11 0h3.58V9.2H1a6.8 6.8 0 0 0 13.27 0zM7.66.85A6.8 6.8 0 0 0 .9 8.55h4.82v-.48h-3.9c0-.14 0-.28 0-.4a5.85 5.85 0 0 1 11.7 0c0 .13 0 .27 0 .4H9.67v.48h4.73A6.8 6.8 0 0 0 7.67.85z"/><path fill="#005e9d" fill-rule="evenodd" d="M9.08 3.62H6.23l-2.57 7.14h8L9.08 3.62zm-1.63 3h.4l1.27 4.2H6.2zM21.83 9l-.35-1.1h-1.84L19.26 9h-1.74l2-5.38h2.18l2 5.38zm-.88-3l-.13-.48-.12-.45c0-.14-.07-.24-.08-.32 0 .07 0 .18-.08.32l-.13.45-.16.48-.14.43-.1.3h1.16l-.1-.28c-.06-.13-.06-.27-.1-.45zM26.17 5.1a1.06 1.06 0 0 1 .76-.28 1.63 1.63 0 0 1 .48.06l-.05 1.4-.23-.06h-.23a.9.9 0 0 0-.8.35 2.1 2.1 0 0 0-.25 1.16V9h-1.72V6.14c0-.22 0-.43 0-.64s0-.4 0-.57h1.58a1.67 1.67 0 0 1 0 .17v.27c0 .1 0 .2 0 .3s0 .17 0 .23a1.64 1.64 0 0 1 .47-.8zM27.94 5.87c0-.12 0-.23 0-.34s0-.22 0-.32 0-.2 0-.27h1.63c0 .08 0 .18 0 .3s0 .22 0 .33a3.87 3.87 0 0 1 .3-.33 1.44 1.44 0 0 1 .3-.23 1.35 1.35 0 0 1 .35-.13 2.08 2.08 0 0 1 .44 0 1.75 1.75 0 0 1 .72.15 1.58 1.58 0 0 1 .56.42 1.93 1.93 0 0 1 .36.66 2.76 2.76 0 0 1 .13.86 2.68 2.68 0 0 1-.14.88 2.1 2.1 0 0 1-.4.68 1.73 1.73 0 0 1-.6.44 1.78 1.78 0 0 1-.75.16 1.68 1.68 0 0 1-.74-.15 1.14 1.14 0 0 1-.48-.44 1.48 1.48 0 0 1 0 .18c0 .1 0 .17 0 .26s0 .18 0 .27v1.44h-1.68v-4.8zM30 6.1a.7.7 0 0 0-.24.18.88.88 0 0 0-.17.28 1 1 0 0 0-.07.36 1 1 0 0 0 .22.7.72.72 0 0 0 .54.22.65.65 0 0 0 .5-.24 1.08 1.08 0 0 0 .2-.7.9.9 0 0 0-.2-.64.68.68 0 0 0-.5-.26.7.7 0 0 0-.3.1z"/><path fill="#005e9d" d="M33.4 3.14h1.7v5.83h-1.7z"/><path fill="#005e9d" fill-rule="evenodd" d="M36.63 4.95l.44-.07H37.93a2.55 2.55 0 0 1 1.6.42 1.6 1.6 0 0 1 .54 1.32c0 .1 0 .24 0 .4s0 .34 0 .52 0 .52 0 .8 0 .5.05.68h-1.48a1.45 1.45 0 0 1 0-.32v-.2a1.65 1.65 0 0 1 0-.2 1.44 1.44 0 0 1-.54.54 1.65 1.65 0 0 1-.84.2 2 2 0 0 1-.6-.08 1.38 1.38 0 0 1-.47-.25 1.2 1.2 0 0 1-.33-.4 1.23 1.23 0 0 1-.12-.55 1.14 1.14 0 0 1 .55-1.05 3.22 3.22 0 0 1 1.6-.33H38.48a.46.46 0 0 0-.24-.37.74.74 0 0 0-.24-.1h-.3a3.92 3.92 0 0 0-.72.06 3.17 3.17 0 0 0-.7.2V5.08a2 2 0 0 1 .4-.1zm1.75 2.24h-.12a1.8 1.8 0 0 0-.72.1.38.38 0 0 0-.26.37.34.34 0 0 0 .15.3.65.65 0 0 0 .36.1.7.7 0 0 0 .3-.07.67.67 0 0 0 .22-.17.58.58 0 0 0 .14-.27 1.53 1.53 0 0 0 0-.36zM43 5a1.56 1.56 0 0 1 .84-.22 1.75 1.75 0 0 1 .84.2 1 1 0 0 1 .5.65 1.68 1.68 0 0 1 .67-.63 1.7 1.7 0 0 1 .84-.2 1.88 1.88 0 0 1 .6.1 1.34 1.34 0 0 1 .5.3 1.44 1.44 0 0 1 .35.5 2 2 0 0 1 .12.75V9h-1.7V7a1.3 1.3 0 0 0-.14-.7.44.44 0 0 0-.43-.2.5.5 0 0 0-.33.1.77.77 0 0 0-.22.3 1.25 1.25 0 0 0-.08.35c0 .13 0 .23 0 .3V9h-1.7V7a1.32 1.32 0 0 0-.14-.7.43.43 0 0 0-.37-.2.6.6 0 0 0-.55.42 1.2 1.2 0 0 0-.1.4c0 .15 0 .3 0 .4V9h-1.68V6.3c0-.16 0-.35 0-.6s0-.5 0-.77h1.6s0 .1 0 .15 0 .12 0 .2 0 .12 0 .2 0 .1 0 .16A1.93 1.93 0 0 1 43 5zM49.77 4.95l.44-.07h.87a2.54 2.54 0 0 1 1.6.42 1.6 1.6 0 0 1 .54 1.32c0 .1 0 .24 0 .4s0 .34 0 .52 0 .52 0 .8 0 .5.06.68h-1.48a1.47 1.47 0 0 1 0-.32v-.2a1.65 1.65 0 0 1 0-.2 1.44 1.44 0 0 1-.54.54 1.65 1.65 0 0 1-.84.2 2 2 0 0 1-.6-.08 1.36 1.36 0 0 1-.47-.25 1.2 1.2 0 0 1-.33-.4 1.25 1.25 0 0 1-.12-.54 1.14 1.14 0 0 1 .58-1.06A3.22 3.22 0 0 1 51 6.36H51.58a.5.5 0 0 0-.06-.27.5.5 0 0 0-.14-.1.72.72 0 0 0-.25-.08h-.3a3.9 3.9 0 0 0-.72.07 3.2 3.2 0 0 0-.68.2V5.1a2 2 0 0 1 .4-.1zm1.75 2.24h-.12a1.8 1.8 0 0 0-.72.1.38.38 0 0 0-.26.37.33.33 0 0 0 .15.3.66.66 0 0 0 .36.1.7.7 0 0 0 .3-.06.67.67 0 0 0 .22-.16.6.6 0 0 0 .14-.27 1.53 1.53 0 0 0 0-.36zM60.12 4.8a3.6 3.6 0 0 0-.73-.06 2.2 2.2 0 0 0-.65.1 1.63 1.63 0 0 0-.54.27 1.32 1.32 0 0 0-.36.48 1.55 1.55 0 0 0-.14.68 1.77 1.77 0 0 0 .1.66 1.37 1.37 0 0 0 .32.48 1.28 1.28 0 0 0 .47.3 1.7 1.7 0 0 0 .58.1H59.52V7h-.78V5.9H61v2.95l-.37.08-.4.07h-.78a4.14 4.14 0 0 1-2.6-.7 2.42 2.42 0 0 1-.88-2 2.82 2.82 0 0 1 .25-1.22 2.46 2.46 0 0 1 .7-.88 3 3 0 0 1 1-.53 4.6 4.6 0 0 1 1.3-.18 5.92 5.92 0 0 1 .94.06 3.87 3.87 0 0 1 .74.18L60.78 5a3 3 0 0 0-.66-.2zM63.83 5.1a1.07 1.07 0 0 1 .76-.28 1.63 1.63 0 0 1 .47.06L65 6.28l-.23-.06h-.23a.9.9 0 0 0-.8.35 2.1 2.1 0 0 0-.24 1.16V9h-1.7V6.14c0-.22 0-.43 0-.64s0-.4 0-.57h1.57s0 .1 0 .17 0 .18 0 .27 0 .2 0 .3 0 .17 0 .23a1.64 1.64 0 0 1 .46-.8zM68.8 5a2.2 2.2 0 0 1 .78.43 1.8 1.8 0 0 1 .48.67 2.33 2.33 0 0 1 .16.88 2.2 2.2 0 0 1-.17.87 1.82 1.82 0 0 1-.48.67 2.2 2.2 0 0 1-.77.43 3.27 3.27 0 0 1-1 .15 3.18 3.18 0 0 1-1-.15 2.16 2.16 0 0 1-.8-.46 1.87 1.87 0 0 1-.48-.68 2.14 2.14 0 0 1-.2-.82 2.26 2.26 0 0 1 .17-.88 1.82 1.82 0 0 1 .5-.7 2.2 2.2 0 0 1 .73-.42 3.58 3.58 0 0 1 2.07 0zm-1.56 1.24A1.1 1.1 0 0 0 67 7a1 1 0 0 0 .2.67.67.67 0 0 0 .54.24.6.6 0 0 0 .5-.23 1.06 1.06 0 0 0 .22-.67 1.14 1.14 0 0 0-.2-.72.62.62 0 0 0-.5-.28.65.65 0 0 0-.52.24zM73.3 8.86a1.64 1.64 0 0 1-.84.22 2 2 0 0 1-.64-.1 1.4 1.4 0 0 1-.52-.3 1.43 1.43 0 0 1-.35-.52 1.94 1.94 0 0 1-.13-.74v-2.5h1.7v2a2.36 2.36 0 0 0 0 .46.76.76 0 0 0 .1.27.37.37 0 0 0 .18.14.65.65 0 0 0 .23 0 .6.6 0 0 0 .35-.12.8.8 0 0 0 .25-.3 1 1 0 0 0 .1-.4c0-.15 0-.3 0-.4V4.92h1.7V7.6c0 .16 0 .35 0 .6s0 .5 0 .77H74s0-.1 0-.15 0-.12 0-.2 0-.12 0-.2 0-.1 0-.16a1.85 1.85 0 0 1-.7.6zM76.28 5.87c0-.12 0-.23 0-.34s0-.22 0-.32v-.27h1.64c0 .08 0 .18 0 .3s0 .22 0 .33a3.72 3.72 0 0 1 .3-.33 1.43 1.43 0 0 1 .3-.23 1.37 1.37 0 0 1 .35-.13 2.07 2.07 0 0 1 .44 0A1.75 1.75 0 0 1 80 5a1.57 1.57 0 0 1 .56.42A1.92 1.92 0 0 1 81 6a2.75 2.75 0 0 1 .13.86 2.64 2.64 0 0 1-.14.88 2.1 2.1 0 0 1-.4.68 1.73 1.73 0 0 1-.58.44 1.8 1.8 0 0 1-.76.16 1.68 1.68 0 0 1-.74-.15 1.14 1.14 0 0 1-.52-.4 1.7 1.7 0 0 1 0 .2c0 .07 0 .15 0 .24s0 .2 0 .28v1.44h-1.72V5.87zm2.07.23a.7.7 0 0 0-.24.18.88.88 0 0 0-.16.28 1 1 0 0 0-.06.36 1 1 0 0 0 .22.7.72.72 0 0 0 .54.22.65.65 0 0 0 .52-.24 1.08 1.08 0 0 0 .2-.7.9.9 0 0 0-.2-.65.68.68 0 0 0-.52-.25.7.7 0 0 0-.28.1z"/></g></g></svg>