<svg xmlns="http://www.w3.org/2000/svg" viewBox="0 0 34.86 37.73"><title>Asset 60</title><g><g><path fill="#dddedf" d="M10.2.53A3.17 3.17 0 0 1 11 3.7c-.16.44-.14 1.1-.56 1.43-1.12-.2-1.13 0-1.1.87a10.3 10.3 0 0 0-2.08-.22 11.7 11.7 0 0 0-.17-2c-.24-1.15-.57-2.58.44-3.54a2.67 2.67 0 0 1 2.65.3z"/><path fill="#010101" d="M21.93 4.55a2.8 2.8 0 0 1 .5 2.74 5.5 5.5 0 0 1-2.54 2.16c-.63.3-.75-.37-1.13-.68-.48-.14-.9.24-1.22.3a3 3 0 0 0-1.16-2 6.7 6.7 0 0 0 2-1.7c.84-1 2.36-2 3.5-.87z"/><path fill="#9d9fa2" d="M15.12 1.08A2.8 2.8 0 0 1 17 3.16a5.5 5.5 0 0 1-1 3.17c-.37.57-.9-.06-1.36 0s-.52.82-.75 1.07a6.27 6.27 0 0 0-2.14-1.3 6.34 6.34 0 0 0 .82-2.45c.18-1.33 1-2.95 2.53-2.57z"/><path fill="#526685" d="M.68 5.28a28.93 28.93 0 0 1 6 .75 8.32 8.32 0 0 0 0 2.5 41.67 41.67 0 0 0-6-.26c-.06 0-.17 0-.2-.26a22.6 22.6 0 0 1 0-2.55.2.2 0 0 1 .2-.17z"/><path fill="#dddedf" d="M10.65 6.8c-1.05 3-1.6 7-1 9.3l.2.9C7 12 6.5 5.9 7.2 6s3.26.27 3.45.8z"/><path fill="#9d9fa2" d="M14.4 8.23a11.58 11.58 0 0 0-4.23 9c-1-2.6 0-9.3 1.4-10.92a6.88 6.88 0 0 1 2.82 1.96z"/><path fill="#010101" d="M17.4 9.54c.15 2.87-1.92 5-4 6.93 0 0-2.33 1.94-2.9 2.26 0 0-.1 0-.15-.5C10 14 12.1 10.7 15.1 7.92c.43-.3.76-.7 1.2-.66a3.52 3.52 0 0 1 1.1 2.27z"/><path fill="#526685" d="M17.7 11.4c0 2.8-1.76 4.9-3.67 6.92a46.8 46.8 0 0 1-7.1 5.37.26.26 0 0 1-.32-.12 6.28 6.28 0 0 1-.83-1.5c-.06-.1 0-.24.12-.28 3.53-1.88 7.76-4.63 10.3-7.9a7.4 7.4 0 0 0 1.4-3.24 2.85 2.85 0 0 1 .08.74z"/><path fill="#010101" d="M23.7 16.8c-.28 1.35-1.78 1.85-2.74 2.58-2.52 1-4.66 3.94-7.75 2.78-.64-.3-1.33-1-1.27-1.64 2.8-2.12 5.83-4 9.3-4.47.93-.05 1.96-.05 2.46.75zm1.47.9c1.44 1.9 3.4 3.6 4.52 5.64-.47.25-.9-.06-1.36-.1-1.94-.7-4.4-2.12-4.9-4.4a1.66 1.66 0 0 1 .34-1.45.94.94 0 0 1 1.4.3zm8.45 5.3l-.08.26-2.6 1.74c-.8.36-1.13-.4-1.66-.75-.25-.48.7-.73 1-.9a8.94 8.94 0 0 1 3.3-.5l.1.1z"/><path fill="#526685" d="M24.8 12.4c1.66-1.8 2.18-4 1.16-5s-3.43.38-5.1 2.16-2.18 4-1.16 5 3.43-.4 5.1-2.17z"/><path fill="#010101" d="M25.67 26.46v7.2h-1.5v-6l1.5-1.15zm-5.33 2.4a2.47 2.47 0 0 1 2.78 2.47 2.5 2.5 0 0 1-2.78 2.4 2.45 2.45 0 1 1 0-4.87zm0 4.08c1 0 1.22-1.1 1.22-1.7s-.25-1.62-1.22-1.62-1.23 1.05-1.23 1.63.2 1.7 1.23 1.7zm-6.75-3.3c-.14 0-.23-.06-.23-.17l2.2-1.77a.07.07 0 0 1 .08.06V29H17v.68h-1.32v2.43c0 1.4 1.33.84 1.33.84v.7a3.47 3.47 0 0 1-2.34-.14c-.5-.26-.46-.87-.46-1.33v-2.52h-.6zm-10.94-2.2h1.8l2.4 6.22h-1.7l-.48-1.3h-2.5l-.5 1.3H.23zM2.5 31.2h1.67L3.34 29l-.83 2.2zM11 29h1.5v4.7H11v-.8a1.74 1.74 0 0 1-1.7.9 2.06 2.06 0 0 1-1.38-.58 1.9 1.9 0 0 1-.3-1.25V29h1.45v3a.86.86 0 0 0 .92.8.86.86 0 0 0 .84-.5 2.6 2.6 0 0 0 .16-.8V29zm22.8 0h1.06l-2 4.67h-1.3l-2-4.68h1.7l1.28 3.2L33.8 29zM27 29h1.48v4.68H27zm1.5-2.48v1.78H27v-.65l1.5-1.14zM0 35.27h34.8v2.45H0z"/></g></g></svg>