<svg xmlns="http://www.w3.org/2000/svg" viewBox="0 0 73.41 24.96"><title>Asset 9</title><g><g fill-rule="evenodd"><path d="M14.78 16.4l-.7 1.04H11.9l.2-.27h1.8l.05-.08.46-.7h.38zM17.4 12.56l-2.5 3.65h-.35l2.68-3.9.18.26zM23.7 17.44H15.1l.2-.27h7.86l-.2-.3-4.57-6.64a1.2 1.2 0 0 0-.33-.33 1.08 1.08 0 0 1 .77.47z"/><path fill="#fff" d="M17.68 9.67h-.2.25V9.6zm-.28 2.9l-2.5 3.64h.15l.6-.88.07-.08h.08l1.7-2.5z"/><path d="M13.13 24.85h-1.3v-4h1.45a7.5 7.5 0 0 1 1.2.07 1.56 1.56 0 0 1 .6.23 1.24 1.24 0 0 1 .43.46 1.27 1.27 0 0 1 .16.62 1.34 1.34 0 0 1-.15.63 1.2 1.2 0 0 1-.43.45 1.52 1.52 0 0 1-.5.2 5.4 5.4 0 0 1-.95.05h-.5v1.33zm0-2.22h.27a1.62 1.62 0 0 0 .7-.1.4.4 0 0 0 .2-.38.37.37 0 0 0-.2-.36 1.57 1.57 0 0 0-.7-.12h-.27v.95zm3.57 2.22v-4h1.4v3.1h1.74v.93zm5.5-1.5h1.4L23.1 22s0-.1-.07-.2l-.1-.34-.1.3-.1.25-.5 1.34zm-2 1.5l1.78-4h1.75l1.77 4h-1.33l-.26-.72h-2l-.26.72zm6.36-1.3a2.44 2.44 0 0 0 .62.42 1.46 1.46 0 0 0 .6.14.83.83 0 0 0 .52-.1.34.34 0 0 0 .18-.3.36.36 0 0 0-.16-.3 2.24 2.24 0 0 0-.7-.23 2.57 2.57 0 0 1-1.07-.42.86.86 0 0 1-.3-.7 1.12 1.12 0 0 1 .48-.94 2.07 2.07 0 0 1 1.27-.37 3.6 3.6 0 0 1 .8.1 3 3 0 0 1 .73.26l-.44.78a1.94 1.94 0 0 0-.5-.24 1.56 1.56 0 0 0-.5-.08.8.8 0 0 0-.4.1.28.28 0 0 0-.17.24.27.27 0 0 0 .14.24 1.7 1.7 0 0 0 .53.18h.06a3 3 0 0 1 1.12.4.94.94 0 0 1 .28.36 1.07 1.07 0 0 1 .1.46 1.2 1.2 0 0 1-.54 1 2.4 2.4 0 0 1-1.43.4 3.14 3.14 0 0 1-1-.15 2.9 2.9 0 0 1-.86-.46l.63-.82zm5 1.3v-3.07H30.5v-1h3.7v1H33v3.08zm3.6 0v-4h1.4v4zM41.84 21v1.2a2.12 2.12 0 0 0-.57-.37 1.62 1.62 0 0 0-.6-.12 1.43 1.43 0 0 0-1 .33 1.06 1.06 0 0 0-.4.84 1 1 0 0 0 .4.8 1.47 1.47 0 0 0 1 .32 1.57 1.57 0 0 0 .6-.13 2 2 0 0 0 .57-.37v1.2a4.1 4.1 0 0 1-.66.2 3.42 3.42 0 0 1-.67.06 3.6 3.6 0 0 1-.77-.08 2.53 2.53 0 0 1-.66-.24 2.32 2.32 0 0 1-.87-.76 1.84 1.84 0 0 1-.3-1 1.82 1.82 0 0 1 .2-.84 2.08 2.08 0 0 1 .57-.7 2.5 2.5 0 0 1 .82-.43 3.3 3.3 0 0 1 1-.14 3.6 3.6 0 0 1 .66.06 4.26 4.26 0 0 1 .66.2zm8.92 3.87h-1.3l-.3-1.74c0-.12 0-.26-.07-.4s0-.32 0-.5a3.93 3.93 0 0 1-.2.64V23l-.7 1.88h-.93l-.8-1.88v-.12a3.36 3.36 0 0 1-.18-.63c0 .15 0 .3 0 .45s0 .3-.08.45l-.3 1.74h-1.3l.8-4h1.28l.77 2.07v.07a2.14 2.14 0 0 1 .14.48 1.68 1.68 0 0 1 .06-.24c0-.1.06-.2.1-.3l.8-2.08H50l.8 4zm6.36-2a1.7 1.7 0 0 1-.2.82 2.14 2.14 0 0 1-.6.67 3 3 0 0 1-.9.46 3.5 3.5 0 0 1-2.1 0 2.88 2.88 0 0 1-.88-.46 2.13 2.13 0 0 1-.6-.68 1.7 1.7 0 0 1 0-1.64 2.14 2.14 0 0 1 .6-.68 2.83 2.83 0 0 1 .9-.46 3.42 3.42 0 0 1 1-.16 3.47 3.47 0 0 1 1.04.16 2.87 2.87 0 0 1 .9.46 2.18 2.18 0 0 1 .58.68 1.7 1.7 0 0 1 .2.8zM54.37 24a1.4 1.4 0 0 0 1-.33 1.1 1.1 0 0 0 .38-.85 1.07 1.07 0 0 0-.38-.84 1.52 1.52 0 0 0-1.92 0 1.15 1.15 0 0 0 0 1.7 1.4 1.4 0 0 0 1 .33zm4 .83v-4h1.4v3.1h1.74v.93zm4.16 0v-4h1.07a11 11 0 0 1 1.7.1 2.83 2.83 0 0 1 .86.3 1.9 1.9 0 0 1 .74.67 1.92 1.92 0 0 1 0 1.9 1.92 1.92 0 0 1-.74.68 2.86 2.86 0 0 1-.85.3 9 9 0 0 1-1.47.08h-1.3zm1.38-.9h.25a2.12 2.12 0 0 0 1.2-.26 1 1 0 0 0 .38-.84 1 1 0 0 0-.38-.85 2.12 2.12 0 0 0-1.2-.27h-.24V24zm4.7-.4a2.45 2.45 0 0 0 .6.42 1.47 1.47 0 0 0 .6.14.82.82 0 0 0 .47-.13.34.34 0 0 0 .18-.3.36.36 0 0 0-.16-.3 2.27 2.27 0 0 0-.72-.23 2.6 2.6 0 0 1-1.07-.42.86.86 0 0 1-.3-.7 1.12 1.12 0 0 1 .5-.94 2.08 2.08 0 0 1 1.27-.37 3.56 3.56 0 0 1 .8.1 3 3 0 0 1 .72.27l-.45.8a1.9 1.9 0 0 0-.5-.25 1.53 1.53 0 0 0-.48-.08.8.8 0 0 0-.4.1.28.28 0 0 0-.17.24.28.28 0 0 0 .14.24 1.72 1.72 0 0 0 .53.18h.06a3 3 0 0 1 1.12.4 1 1 0 0 1 .28.36 1.08 1.08 0 0 1 .1.46 1.22 1.22 0 0 1-.54 1 2.4 2.4 0 0 1-1.44.4 3.15 3.15 0 0 1-1-.15 2.93 2.93 0 0 1-.85-.45z"/><path fill="#004283" d="M17.73 9.74h-.44a1.27 1.27 0 0 0-1.13.55l-4.1 6H.36l5.45-8.02L11.27.34l5.45 7.93 1 1.4zM19.24 15.23h-3.5l-.06.1-.62.88h-.5l2.67-3.9.18.26.12.17 1.72 2.5z"/><path fill="#fff" d="M14.75 17.63h9.3l-.2-.3L19 10.25a1.33 1.33 0 0 0-1.07-.58l-1-1.5-5.5-7.94-.16-.23-.16.23-5.44 7.94L.2 16.1l-.2.3h11.93l-.32.47-.2.3h.46l-.1.16-.22.3h2.62l.06-.08.26-.38h.58l-.1.16-.22.3zm3.3-7.75a1.08 1.08 0 0 1 .78.47l4.86 7.08H15.1l.2-.27h7.86l-.2-.3-4.57-6.64a1.2 1.2 0 0 0-.33-.33zM.38 16.2L5.82 8.3 11.27.34l5.45 7.93 1 1.4v.07h-.44a1.27 1.27 0 0 0-1.12.55l-4.1 6zm13.7 1.24H11.9l.2-.27h1.78l.06-.1.47-.67h.37l-.7 1zm1-1.23h-.5l2.67-3.9.18.26.12.17 1.72 2.5h-3.53l-.06.08z"/><path d="M38.42 17h-8l1.07-1.55h3.76L33 12.15a.17.17 0 0 0-.28 0L29.4 17h-2l4.56-6.64a1.22 1.22 0 0 1 1.92 0zM47 17h-1.86v-5c0-.2-.14-.35-.42-.45a4.76 4.76 0 0 0-1.43-.15 5.1 5.1 0 0 0-1.44.14c-.28.1-.4.25-.4.46v5h-1.87v-5.13a1.66 1.66 0 0 1 1.06-1.62 6.7 6.7 0 0 1 2.62-.4 6.4 6.4 0 0 1 2.63.43 1.66 1.66 0 0 1 1.1 1.6V17zm8.44-5.45L56.5 10h-9.56L48 11.54zM52.64 17h-1.83v-4.68h1.86V17zm12.2 0H58.4a2 2 0 0 1-1.32-.45 1.4 1.4 0 0 1-.54-1.1v-3.9a1.38 1.38 0 0 1 .54-1.1 2 2 0 0 1 1.3-.45h6.48v1.55h-6.3a.2.2 0 0 0-.12 0 .15.15 0 0 0-.05.1v1h6.46v1.56H58.4v1a.15.15 0 0 0 .04.13.2.2 0 0 0 .13 0h6.3V17zm8.54 0H68.3a2 2 0 0 1-1.85-1.1A5.24 5.24 0 0 1 66 13.5a7.35 7.35 0 0 1 .16-1.68 2.56 2.56 0 0 1 .67-1.3 2.06 2.06 0 0 1 1.47-.5h5.1v1.55h-4.9c-.23 0-.4.17-.48.5a5.43 5.43 0 0 0-.14 1.44A5.5 5.5 0 0 0 68 14.9q.14.5.47.5h4.9zM19.84 9.88H22l3.3 4.82a.15.15 0 0 0 .14.07.15.15 0 0 0 .14-.07l3.3-4.82h2l-4.56 6.64a1.23 1.23 0 0 1-1.92 0zM1.44 18.35H73.4l-1.06 1.56H.37l1.07-1.55z"/></g></g></svg>