<svg xmlns="http://www.w3.org/2000/svg" viewBox="0 0 65.37 15.49"><title>Asset 10</title><g><g fill-rule="evenodd"><path d="M8.34 6.3a.2.2 0 0 1 .2.14l4.73 9h2.4l1-2h-2.04l-4.32-8.3a2.32 2.32 0 0 0-1.04-.94 2.44 2.44 0 0 0-1.83 0 2.3 2.3 0 0 0-1.05.94l-4.32 8.3H0l1 2h2.4l4.73-9a.2.2 0 0 1 .2-.13zM26 6.3a.2.2 0 0 1 .2.14l4.72 9h33l1-2H32.26l-4.32-8.3a2.3 2.3 0 0 0-1.05-.94 2.44 2.44 0 0 0-1.84 0A2.32 2.32 0 0 0 24 5.22l-4.32 8.3h-2.05l1 2H21l4.72-9a.2.2 0 0 1 .28-.2z"/><path fill="#f04934" d="M17.16 9.33A.2.2 0 0 1 17 9.2l-4.72-9H9.84l-1 2h2.05l4.3 8.3a2.3 2.3 0 0 0 1.06.94 2.34 2.34 0 0 0 .9.18 2.4 2.4 0 0 0 .93-.18 2.3 2.3 0 0 0 1.04-.94l4.32-8.3h2.04l-1-2h-2.4l-4.73 9a.2.2 0 0 1-.2.13z"/><path d="M34.05 4h1.38l-.52-2-.05-.3c0-.14-.07-.3-.1-.53l-.1.43c0 .14-.06.27-.1.4l-.5 2zM32.1 6.27L33.88.15h1.74l1.77 6.13H36l-.26-1.1h-2l-.27 1.1zm7 0h1.07l2.1-6.12H40.8l-1 3.43c0 .06 0 .16-.07.3s-.07.33-.1.52l-.12-.56-.05-.26-1-3.43h-1.5l2.13 6.13zM43.8 4h1.38l-.52-2c0-.06 0-.16-.07-.3l-.12-.53-.1.43-.06.4-.52 2zm-1.94 2.27L43.62.15h1.74l1.76 6.13h-1.38l-.26-1.1h-2l-.27 1.1zm5.64 0V.15h1.34l1.92 3.15c0 .06.1.2.18.4s.18.4.28.68c0-.26 0-.48-.06-.68s0-.37 0-.53v-3h1.33v6.1h-1.35L49.22 3.1a3.58 3.58 0 0 1-.22-.38c-.08-.2-.17-.42-.28-.7 0 .27 0 .5.06.7s0 .36 0 .52v3zm6.7 0V1.6h-1.14V.15h3.67V1.6H55.6v4.67zm3.1 0V.15h3.12V1.5h-1.77v1.05h1.67v1.32h-1.67v1h1.77v1.4zm7.62-5.9v1.84a2.2 2.2 0 0 0-.57-.55 1.14 1.14 0 0 0-.6-.18 1.16 1.16 0 0 0-1 .5 2.07 2.07 0 0 0-.38 1.27 1.94 1.94 0 0 0 .38 1.22 1.17 1.17 0 0 0 1 .48 1.13 1.13 0 0 0 .6-.18 2.17 2.17 0 0 0 .58-.56V6a3.07 3.07 0 0 1-.66.3 2.3 2.3 0 0 1-.66.1 2.36 2.36 0 0 1-.76-.13 2 2 0 0 1-.65-.36 2.94 2.94 0 0 1-.88-1.15A3.93 3.93 0 0 1 61 3.2a4 4 0 0 1 .2-1.27 3.2 3.2 0 0 1 .56-1 2.42 2.42 0 0 1 .82-.67 2.28 2.28 0 0 1 1-.22 2.22 2.22 0 0 1 .66.1 3 3 0 0 1 .68.24zM32.56 10.8a1.2 1.2 0 0 0 .32.23.66.66 0 0 0 .3.08.37.37 0 0 0 .24-.06.2.2 0 0 0 .1-.17.22.22 0 0 0-.1-.18 1.1 1.1 0 0 0-.35-.14 1.23 1.23 0 0 1-.54-.24.53.53 0 0 1-.16-.4.7.7 0 0 1 .25-.56 1 1 0 0 1 .65-.2 1.6 1.6 0 0 1 .4.04 1.4 1.4 0 0 1 .38.16l-.22.46a.92.92 0 0 0-.25-.14.73.73 0 0 0-.25 0 .36.36 0 0 0-.2.06.16.16 0 0 0-.1.14.17.17 0 0 0 .08.14.88.88 0 0 0 .28.1 1.4 1.4 0 0 1 .57.23.6.6 0 0 1 .14.2.7.7 0 0 1 0 .28.74.74 0 0 1-.28.6 1.1 1.1 0 0 1-.73.23 1.35 1.35 0 0 1-.94-.34l.32-.48zm2.4.75v-1.8h-.6V9.2h1.9v.55h-.6v1.8zm2.18-.88h.7l-.26-.77v-.1l-.06-.2v.31l-.26.78zm-1 .88h.7l.15-.42h1l.12.42h.7l-.9-2.34H37l-.9 2.35zm6 0h-.67l-.15-1c0-.07 0-.15 0-.24v-.28a2.7 2.7 0 0 1-.1.37v.06l-.35 1.1h-.47l-.36-1.1v-.07a2.27 2.27 0 0 1-.1-.38c0 .1 0 .18 0 .26s0 .17 0 .26l-.15 1h-.67l.4-2.34H40l.4 1.2a1.36 1.36 0 0 1 .07.3 1 1 0 0 1 0-.15l.05-.18L41 9.2h.7l.4 2.34zm1.05 0h-.68V9.2h.74a3.37 3.37 0 0 1 .62 0 .76.76 0 0 1 .3.13.7.7 0 0 1 .22.27.8.8 0 0 1 .08.36.82.82 0 0 1-.08.37.63.63 0 0 1-.22.26.76.76 0 0 1-.26.1 2.42 2.42 0 0 1-.48 0h-.25v.77zm0-1.3h.12a.75.75 0 0 0 .36-.05.24.24 0 0 0 .1-.22.23.23 0 0 0-.1-.2.7.7 0 0 0-.35-.07h-.14v.56zm1.66 1.3V9.2h.72v2.34zm1.3 0V9.2h.7l1 1.2.08.15.14.26c0-.1 0-.17 0-.25a2 2 0 0 1 0-.2V9.2h.7v2.34H48l-1-1.2-.1-.16-.13-.26c0 .1 0 .18 0 .26s0 .14 0 .2v1.16zm4.36-.86v-.5h1.4s0 0 0 .05 0 0 0 .1a1.23 1.23 0 0 1-.36.93 1.42 1.42 0 0 1-1 .33 1.7 1.7 0 0 1-.57-.07 1.24 1.24 0 0 1-.45-.26 1.16 1.16 0 0 1 0-1.76 1.34 1.34 0 0 1 .45-.26 1.68 1.68 0 0 1 .55-.1 1.57 1.57 0 0 1 .68.15 1.28 1.28 0 0 1 .5.4l-.62.26a.7.7 0 0 0-.24-.2.72.72 0 0 0-.3-.07.66.66 0 0 0-.5.18.84.84 0 0 0 0 1.05.67.67 0 0 0 .5.2A.8.8 0 0 0 51 11a.45.45 0 0 0 .2-.32zm3.36.85v-1.8h-.6V9.2h1.9v.55h-.6v1.8zm4.27-1.17a1.1 1.1 0 0 1-.1.47 1.2 1.2 0 0 1-.3.4 1.47 1.47 0 0 1-.46.27 1.58 1.58 0 0 1-1.08 0 1.4 1.4 0 0 1-.45-.27 1.2 1.2 0 0 1-.3-.4 1.1 1.1 0 0 1 0-.94 1.23 1.23 0 0 1 .3-.4 1.4 1.4 0 0 1 .45-.26 1.6 1.6 0 0 1 1.07 0 1.42 1.42 0 0 1 .45.27 1.22 1.22 0 0 1 .3.4 1.1 1.1 0 0 1 .1.48zm-1.4.7a.67.67 0 0 0 .5-.2.72.72 0 0 0 0-1 .7.7 0 0 0-1 0 .68.68 0 0 0-.2.48.66.66 0 0 0 .68.7zm4.53-.7a1.1 1.1 0 0 1-.1.47 1.17 1.17 0 0 1-.3.4 1.5 1.5 0 0 1-.46.27 1.57 1.57 0 0 1-1.07 0 1.37 1.37 0 0 1-.45-.27 1.16 1.16 0 0 1-.3-.4 1.1 1.1 0 0 1 0-.94 1.2 1.2 0 0 1 .3-.4 1.38 1.38 0 0 1 .45-.26 1.53 1.53 0 0 1 .54-.1 1.55 1.55 0 0 1 .53.1 1.4 1.4 0 0 1 .46.27 1.2 1.2 0 0 1 .3.4 1.07 1.07 0 0 1 .1.48zm-1.4.7a.66.66 0 0 0 .5-.2.7.7 0 0 0-1-1 .68.68 0 0 0-.2.48.66.66 0 0 0 .7.7zm1.84.47V9.2h.7V11h.9v.55zm2.06-.76a1.24 1.24 0 0 0 .3.23.65.65 0 0 0 .32.08.4.4 0 0 0 .24-.06.2.2 0 0 0 .1-.17.22.22 0 0 0-.1-.18 1.08 1.08 0 0 0-.35-.14 1.23 1.23 0 0 1-.55-.24.53.53 0 0 1-.16-.4.7.7 0 0 1 .24-.56 1 1 0 0 1 .65-.2 1.6 1.6 0 0 1 .4.04 1.42 1.42 0 0 1 .37.16L65 9.8a.93.93 0 0 0-.25-.13.7.7 0 0 0-.25 0 .36.36 0 0 0-.2.06.17.17 0 0 0 0 .28.83.83 0 0 0 .26.1 1.4 1.4 0 0 1 .57.24.6.6 0 0 1 .14.2.72.72 0 0 1 0 .28.74.74 0 0 1-.27.6 1.1 1.1 0 0 1-.73.23 1.36 1.36 0 0 1-.93-.34z"/></g></g></svg>