<svg xmlns="http://www.w3.org/2000/svg" viewBox="0 0 82.97 18.44"><defs><clipPath id="a"><path fill="none" d="M9.3 17.47a8.17 8.17 0 1 1 8.17-8.17 8.17 8.17 0 0 1-8.17 8.17zm3.18-13.9h-.07a.14.14 0 0 0-.13.15v2.76a.3.3 0 0 1-.3.3H6.63a.3.3 0 0 1-.3-.3V3.7a.14.14 0 0 0-.13-.14H6.1a6.68 6.68 0 0 0 0 11.44h.06a.14.14 0 0 0 .14-.14V12.1a.3.3 0 0 1 .3-.28H12a.3.3 0 0 1 .3.3v2.77a.14.14 0 0 0 .13.13h.07a6.68 6.68 0 0 0 0-11.43zM3.85 9.3a5.82 5.82 0 0 1 1.63-4.06 8.83 8.83 0 0 0-.1 1.38V12a8.83 8.83 0 0 0 .1 1.38A5.82 5.82 0 0 1 3.85 9.3zm8.4 1.3a.3.3 0 0 1-.28.28H6.62a.3.3 0 0 1-.3-.3V8a.3.3 0 0 1 .3-.3H12a.3.3 0 0 1 .3.3zm.86 2.76a8.83 8.83 0 0 0 .1-1.38V6.62a8.83 8.83 0 0 0-.1-1.38 5.86 5.86 0 0 1 0 8.1zM.37 9.3A8.93 8.93 0 1 0 9.3.36 8.94 8.94 0 0 0 .36 9.3"/></clipPath><clipPath><path fill="none" d="M.36.36h17.87v17.87H.36z"/></clipPath></defs><title>Asset 3</title><g><g><g><g><path fill="#231f20" d="M0 9.3a9 9 0 0 0 2.73 6.5 9.34 9.34 0 0 0 6.57 2.64 9.15 9.15 0 0 0 9.14-9.14 9.34 9.34 0 0 0-2.65-6.57A9 9 0 0 0 9.3 0 9.3 9.3 0 0 0 0 9.3zm.3 0a9 9 0 1 1 9 9 9 9 0 0 1-9-9zm.9 0a8.1 8.1 0 1 0 8.1-8.1 8.12 8.12 0 0 0-8.1 8.1zm2.5 5.52A7.67 7.67 0 0 1 1.33 9.3a8 8 0 0 1 8-8 7.67 7.67 0 0 1 5.5 2.4 8 8 0 0 1 2.28 5.6 7.82 7.82 0 0 1-7.8 7.8 8 8 0 0 1-5.6-2.28zM11.9 3.7v2.7H6.53V3.7c0-.2 0-.5-.35-.5a.5.5 0 0 0-.26.07 7 7 0 0 0-3.4 6 6.77 6.77 0 0 0 3.4 5.86.5.5 0 0 0 .26.07.35.35 0 0 0 .35-.34V12h5.37v2.85c0 .3.28.35.5.35a.33.33 0 0 0 .18-.05A6.88 6.88 0 0 0 15.9 9.3a7.1 7.1 0 0 0-3.24-6 .5.5 0 0 0-.26-.07.5.5 0 0 0-.5.47zm.12 3a.17.17 0 0 0 .17-.17V3.7a.2.2 0 0 1 .3-.18 6.75 6.75 0 0 1 0 11.54.2.2 0 0 1-.3-.18v-2.8a.17.17 0 0 0-.2-.18H6.57a.17.17 0 0 0-.17.17v2.8a.2.2 0 0 1-.2.22.2.2 0 0 1-.12 0 6.75 6.75 0 0 1 0-11.55.2.2 0 0 1 .1 0 .2.2 0 0 1 .22.2v2.77a.17.17 0 0 0 .17.17zm1.2-1.22v.3c0 .28 0 .57 0 .86V12c0 .3 0 .58 0 .86v.34l.2-.27a5.8 5.8 0 0 0 0-7.2l-.2-.28zm.2 6.78V6a6.38 6.38 0 0 1 1 3.27 5.83 5.83 0 0 1-1 3.14zm-8.06-6.8l-.2.24a5.8 5.8 0 0 0 0 7.2l.22.28v-.34c0-.28 0-.57 0-.86V6.62c0-.3 0-.58 0-.86v-.34zM4.06 9.3A5.82 5.82 0 0 1 5 6.14v6.17a5.33 5.33 0 0 1-.95-3zm2.5-1.52a.17.17 0 0 0-.16.17v2.7a.17.17 0 0 0 .17.16H12a.17.17 0 0 0 .17-.16v-2.7A.17.17 0 0 0 12 7.8zm5.34.14v2.6H6.53v-2.6h5.37"/></g></g><g><g><path fill="#fff" d="M.12 9.3a8.9 8.9 0 0 0 2.7 6.4 9.22 9.22 0 0 0 6.48 2.62 9 9 0 0 0 9-9 9.22 9.22 0 0 0-2.62-6.5A8.88 8.88 0 0 0 9.3.13 9.2 9.2 0 0 0 .12 9.3zm3.5 5.6a7.78 7.78 0 0 1-2.4-5.6A8.1 8.1 0 0 1 9.3 1.2a7.78 7.78 0 0 1 5.6 2.4 8.1 8.1 0 0 1 2.33 5.7 7.94 7.94 0 0 1-7.93 7.93 8.1 8.1 0 0 1-5.7-2.33zM12 3.7v2.82H6.42V3.7c0-.35-.12-.38-.23-.38a.38.38 0 0 0-.2.06A6.87 6.87 0 0 0 2.65 9.3 6.66 6.66 0 0 0 6 15.06a.38.38 0 0 0 .2.06.24.24 0 0 0 .23-.23v-3H12v3c0 .1 0 .22.38.22a.22.22 0 0 0 .12 0 6.76 6.76 0 0 0 3.28-5.82 7 7 0 0 0-3.18-5.92.38.38 0 0 0-.2-.06.38.38 0 0 0-.4.38zm-7.07 8.67a5.44 5.44 0 0 1-1-3.08 5.94 5.94 0 0 1 1-3.23l.23-.35v7zm1.5-1.85V7.8H12v2.85H6.42zm6.86-4.38V5.6l.2.4a6.5 6.5 0 0 1 1 3.33 5.93 5.93 0 0 1-1 3.2l-.23.38V6.15"/></g></g><g><g><path fill="#6f6d6d" d="M5.37 13.13v-.3c0-.28 0-.57 0-.86V6.62c0-.3 0-.58 0-.86v-.3L5 6.1v6.26l.33.77"/></g></g><g><g><path fill="#231f20" d="M13.4 12.5V6l-.18-.5v.3c0 .27 0 .56 0 .85V12c0 .3 0 .58 0 .86v.3l.17-.64"/></g></g><g clip-path="url(#a)"><g><path fill="#dfe1e2" d="M9.3 17.47a8.17 8.17 0 1 1 8.17-8.17 8.17 8.17 0 0 1-8.17 8.17zm3.18-13.9h-.07a.14.14 0 0 0-.13.15v2.76a.3.3 0 0 1-.3.3H6.63a.3.3 0 0 1-.3-.3V3.7a.14.14 0 0 0-.13-.14H6.1a6.68 6.68 0 0 0 0 11.44h.06a.14.14 0 0 0 .14-.14V12.1a.3.3 0 0 1 .3-.28H12a.3.3 0 0 1 .3.3v2.77a.14.14 0 0 0 .13.13h.07a6.68 6.68 0 0 0 0-11.43zM3.85 9.3a5.82 5.82 0 0 1 1.63-4.06 8.83 8.83 0 0 0-.1 1.38V12a8.83 8.83 0 0 0 .1 1.38A5.82 5.82 0 0 1 3.85 9.3zm8.4 1.3a.3.3 0 0 1-.28.28H6.62a.3.3 0 0 1-.3-.3V8a.3.3 0 0 1 .3-.3H12a.3.3 0 0 1 .3.3zm.86 2.76a8.83 8.83 0 0 0 .1-1.38V6.62a8.83 8.83 0 0 0-.1-1.38 5.86 5.86 0 0 1 0 8.1zM.37 9.3A8.93 8.93 0 1 0 9.3.36 8.94 8.94 0 0 0 .36 9.3"/></g></g><g><g><path fill="#fff" d="M5.6 5.1v-.17l-.3.6v.15a9.32 9.32 0 0 0 0 .94V12a9.3 9.3 0 0 0 0 .94v.15l.3.6v-.2A8.57 8.57 0 0 1 5.5 12V6.62a8.57 8.57 0 0 1 .13-1.5"/></g></g><g><g><path fill="#43474d" d="M13 13.48v.18l.3-.6v-.15a9.2 9.2 0 0 0 0-.93V6.62a9.2 9.2 0 0 0 0-.94v-.15l-.3-.6v.18a8.54 8.54 0 0 1 .13 1.52V12a8.54 8.54 0 0 1-.13 1.48"/></g></g><g><g><g><path fill="#eb2127" d="M34.38 11.56c0-.7-.5-1.18-1.6-1.18h-2.15v2.37h2.2c.9 0 1.55-.32 1.55-1.2zM34 6.86a1.1 1.1 0 0 0-1.15-1.15h-2.22V8h2.16A1.13 1.13 0 0 0 34 6.85zm3.6 5a3.6 3.6 0 0 1-3.76 3.36h-6.18V3.2h5.66c2.18 0 3.75 1.08 3.75 3.3A2.62 2.62 0 0 1 35.4 9a3 3 0 0 1 2.2 2.9"/></g></g><g><g><path fill="#eb2127" d="M46.83 9.22c0-1.9-.87-3.42-2.58-3.42S41.7 7.33 41.7 9.22s.84 3.44 2.55 3.44 2.58-1.53 2.58-3.44zm3 0c0 3.55-2 6.33-5.55 6.33s-5.58-2.78-5.58-6.33 2.05-6.33 5.55-6.33S49.8 5.7 49.8 9.2"/></g></g><g><g><path fill="#eb2127" d="M60.17 11.6c0 2.67-2.4 3.95-4.67 3.95a5.9 5.9 0 0 1-5-2.26l1.93-1.9a3.8 3.8 0 0 0 3.06 1.55c1 0 1.62-.48 1.62-1.2s-.58-1-2.16-1.33l-.42-.1C52.6 9.93 51 8.86 51 6.7c0-2.38 1.93-3.8 4.47-3.8a5.65 5.65 0 0 1 4.4 1.88L58 6.63a3.45 3.45 0 0 0-2.47-1.12c-.7 0-1.47.33-1.47 1.13s.8 1 1.84 1.2l.43.1c1.72.36 3.8.9 3.8 3.67"/></g></g><g><g><path fill="#eb2127" d="M71.65 12.93a5.07 5.07 0 0 1-4.77 2.62c-3.4 0-5.6-2.82-5.6-6.4 0-3.4 2-6.24 5.63-6.24a5.16 5.16 0 0 1 4.66 2.63l-2.44 1.62a2.35 2.35 0 0 0-2.2-1.35C65.6 5.8 64.3 7 64.3 9.15c0 2.4 1.4 3.5 2.72 3.5a2.32 2.32 0 0 0 2.17-1.38l2.45 1.66"/></g></g><g><g><path fill="#eb2127" d="M83 15.26h-3.2V10.5h-3.67v4.76H73V3.2h3.16v4.43h3.66V3.2H83v12.06"/></g></g></g></g></g></svg>