<svg xmlns="http://www.w3.org/2000/svg" viewBox="0 0 82.97 15.09"><title>Asset 2</title><g><path fill="#ffb819" fill-rule="evenodd" d="M26.66 11.66v-.72h.7V4.7h-.7V4h3.13v7h.7v.72zm36.9-.92a2.27 2.27 0 0 1-2 1.06 2.13 2.13 0 0 1-2-2.34c0-1.54 1.1-2.52 2.85-2.52a3 3 0 0 1 1.1.16v-.48A1.3 1.3 0 0 0 62 5.2a2.2 2.2 0 0 0-1.76.9l-.42-.53a3.63 3.63 0 0 1 3.06-1.73 2.67 2.67 0 0 1 3 2.78v4.32h.78v.72h-3.1v-.92zm-.1-2.88a.7.7 0 0 0-.52-.16c-.72 0-.88.7-.88 1.45s.22 1.3.84 1.3a.75.75 0 0 0 .58-.22V7.86zm6.5 3.08h.93v.72H67.5v-9.8h-.84v-.7h3.26v9.78zM25.1 4.7v5.67a.44.44 0 0 0 .5.48 1.5 1.5 0 0 0 .44-.08v.7a3 3 0 0 1-1.48.3 1.67 1.67 0 0 1-1.9-1.84V4.7h-.8v-.53c.9-.72 2-1.55 2.8-2.25h.44V4h.94v.7zm2-2.74c0 .68.6 1.13 1.48 1.13s1.47-.47 1.47-1.1S29.47.83 28.6.83s-1.5.45-1.5 1.17zm-8.6 4.44v5.26h3.34v-.72h-.92V6.67a6.87 6.87 0 0 0-.1-1.24 2 2 0 0 0-2-1.6 2.18 2.18 0 0 0-2 1.32V4h-3v.7h.7v6.25h-.7v.72h3.84v-.72h-.7V6.4c0-.7.24-1.23.84-1.23s.82.54.82 1.23zM5.37 7.82C5.37 10.15 6.8 12 9.23 12s3.86-1.9 3.86-4.2S11.65 3.6 9.22 3.6 5.37 5.5 5.37 7.82zm2.85 0c0-2.34.22-3.38 1-3.38s1 1 1 3.38-.22 3.38-1 3.38-1-1-1-3.38zM42 7.42c0-2 .16-2.8.85-2.8s.84.75.86 2.8zm3.52 2.2a2.12 2.12 0 0 1-1.7.7c-.7 0-1.77-.38-1.82-2.16h4.1c0-.14 0-.4 0-.55 0-2.15-.88-3.76-3.2-3.76s-3.5 1.78-3.5 4 1.2 4 3.5 4A3.1 3.1 0 0 0 46 10l-.4-.38zM10.22 0s1.85 1.85 2.7 2.8v.72A5.92 5.92 0 0 0 9 2a5.52 5.52 0 0 0-5.68 5.82c0 3.18 2.06 5.83 5.68 5.83a5.5 5.5 0 0 0 4-1.7v.7a6.66 6.66 0 0 1-5.5 2.44A7.14 7.14 0 0 1 0 7.8 7.33 7.33 0 0 1 7.44.57a8.3 8.3 0 0 1 2.78.43V0zm47.9 4.7v5.67a.44.44 0 0 0 .48.48 1.5 1.5 0 0 0 .45-.08v.7a3 3 0 0 1-1.48.3 1.66 1.66 0 0 1-1.9-1.84V4.7h-.82v-.53c.9-.72 2-1.55 2.8-2.25h.45V4h1.17v.7zM35.9 6.4c0-.7-.22-1.23-.82-1.23s-.84.54-.84 1.23v4.54H35v.72h-3.87v-.72h.7V4.7h-.7V4h3v1.16a2.18 2.18 0 0 1 2-1.32 2 2 0 0 1 2 1.6 6.87 6.87 0 0 1 .1 1.24v4.26h.92v.72h-3.23V6.4zm15.6 0v5.26h3.33v-.72h-.92V6.67a6.87 6.87 0 0 0-.1-1.24 2 2 0 0 0-2-1.6 2.18 2.18 0 0 0-2 1.32V4h-3v.7h.7v6.25h-.7v.72h3.84v-.72h-.7V6.4c0-.7.24-1.23.84-1.23s.83.54.83 1.23zM83 11.66H71.75v-.37H83v.36zm-5.64-2.13l1.06-1 .44.44-1.14 1a2.4 2.4 0 0 0-.22.4h-.84a1.48 1.48 0 0 1 .7-.8zm-3.53-6.46L73 3.3a4 4 0 0 0-.56.27c-.17.1-.37.3-.38.4l.75.18a3.6 3.6 0 0 1 .37-.36l.17-.1.62-.62a.08.08 0 0 0-.08 0zm5.08 2.06a13 13 0 0 1-1.27-1.6A4.8 4.8 0 0 0 78 1.25a5.08 5.08 0 0 0-.53-.78C77.32.38 77 0 76.83 0a.14.14 0 0 0-.08 0v.43c-.45.3-1 .68-1.56 1.07a4.55 4.55 0 0 0 0 .46.85.85 0 0 0 .27.16 6.9 6.9 0 0 1 1-.17l-.63 1-.72.52-.9-.3a.14.14 0 0 0-.16 0l-.67.73a.18.18 0 0 0-.07.15v.82s0 .13 0 .26a1.3 1.3 0 0 0 .26.86l.43-.64a2 2 0 0 1-.2-.46s0-.7 0-.7l.43-.3 1.13.78a6.33 6.33 0 0 0 .6.92 10.26 10.26 0 0 0 1.64 1.17 6.78 6.78 0 0 0 .23.88l1.38 1.4-.82 1a1 1 0 0 0-.54.84h.93l.1-.55 1.13-1.25c.06-.07.06-.1 0-.2l-.32-1.1a1.94 1.94 0 0 0 .5-1.2c0-1-1.08-1.24-1.43-1.53zM80.7 6.8a3.84 3.84 0 0 0-.25-.7s0 0 .14 0l.68.45a8.9 8.9 0 0 1 .5 2.87 3.65 3.65 0 0 1-.93-.6z"/></g></svg>