<svg xmlns="http://www.w3.org/2000/svg" viewBox="0 0 74.33 11.52"><title>Asset 22</title><g><g><path fill="#797b7d" fill-rule="evenodd" d="M17.72 7.07a4.18 4.18 0 0 0-1-2.5 4.18 4.18 0 0 0-1.4-1.07A4.35 4.35 0 0 0 14 3.15a5 5 0 0 0-1.37.08A4.15 4.15 0 0 0 11 4L5.3 8a.74.74 0 0 0-.17.17.64.64 0 0 0 0 .8v.06h.07l.13.08h.17A.67.67 0 0 0 6 9l5.64-4a3.75 3.75 0 0 1 1-.5 3.52 3.52 0 0 1 1-.17h.07a2.34 2.34 0 0 1 1 .27 2.83 2.83 0 0 1 .84.55 3.42 3.42 0 0 1 .6.8 2.7 2.7 0 0 1 .3 1.18 3.06 3.06 0 0 1-.12.9 3.33 3.33 0 0 1-.36.8 2.7 2.7 0 0 1-.75.8 3 3 0 0 1-.85.43 2.88 2.88 0 0 1-.8.12 2.2 2.2 0 0 1-.65-.1 3.57 3.57 0 0 1-.62-.26 4.15 4.15 0 0 1-1.2-1 .7.7 0 0 0-.58-.32.67.67 0 0 0-.36.12.62.62 0 0 0-.25.7.82.82 0 0 0 .1.23 5.6 5.6 0 0 0 1 1 4.6 4.6 0 0 0 1 .6 3.45 3.45 0 0 0 1 .26h.36a4.47 4.47 0 0 0 .57 0 4.58 4.58 0 0 0 2-.77 4.2 4.2 0 0 0 .92-.94 4.93 4.93 0 0 0 .6-1.13 3.53 3.53 0 0 0 .27-1.5z"/><path fill="#d12131" fill-rule="evenodd" d="M12.62 5.8v-.07h-.06l-.13-.08H12.28a.68.68 0 0 0-.52.1l-5.64 4a3.7 3.7 0 0 1-1 .5 3.45 3.45 0 0 1-1 .18H4A2.33 2.33 0 0 1 3 10a2.83 2.83 0 0 1-.83-.55 3.37 3.37 0 0 1-.6-.8 2.7 2.7 0 0 1-.3-1.18 3.07 3.07 0 0 1 .12-.9 3.33 3.33 0 0 1 .35-.8A2.7 2.7 0 0 1 2.5 5a3 3 0 0 1 .85-.43 2.86 2.86 0 0 1 .8-.12 2.2 2.2 0 0 1 .65.1 3.48 3.48 0 0 1 .62.26 4.15 4.15 0 0 1 1.2 1 .7.7 0 0 0 .58.33.66.66 0 0 0 .4-.13.62.62 0 0 0 .25-.7.73.73 0 0 0-.1-.3 5.55 5.55 0 0 0-1-1 4.57 4.57 0 0 0-1-.6 3.44 3.44 0 0 0-1-.26 4.64 4.64 0 0 0-.93 0 4.58 4.58 0 0 0-2 .78 4.2 4.2 0 0 0-.92.94A5 5 0 0 0 .22 6 3.55 3.55 0 0 0 0 7.58a4.2 4.2 0 0 0 1 2.5 4.18 4.18 0 0 0 1.4 1.07 4.36 4.36 0 0 0 1.37.36h.36a5.46 5.46 0 0 0 1-.1 4.15 4.15 0 0 0 1.6-.7l5.7-4a.74.74 0 0 0 .17-.17.64.64 0 0 0 .02-.74z"/><path fill="#cf2530" fill-rule="evenodd" d="M25 4.77a5.9 5.9 0 0 1 .62-.62 3.42 3.42 0 0 1 .75-.5 3.76 3.76 0 0 1 .92-.3 4.32 4.32 0 0 1 1.1-.05 3.13 3.13 0 0 1 1 .24 3.43 3.43 0 0 1 .84.5 3.57 3.57 0 0 1 .65.72 4 4 0 0 1 .43.83 3.8 3.8 0 0 1 .25 1.06 11.34 11.34 0 0 1 0 1.22c0 .43 0 .86 0 1.3s0 .9 0 1.35H30.2a15.84 15.84 0 0 1 0-1.9 12.53 12.53 0 0 0 0-1.83A2.58 2.58 0 0 0 30 6a2.2 2.2 0 0 0-.5-.7 2.26 2.26 0 0 0-1.57-.6 2.2 2.2 0 0 0-.9.17A2.2 2.2 0 0 0 25.85 6a2.9 2.9 0 0 0-.22.88 12 12 0 0 0 0 1.78 14.8 14.8 0 0 1 0 1.87H24.3q0-.76 0-1.53t0-1.46a6.24 6.24 0 0 0-.16-1.27 2 2 0 0 0-.5-1 2.42 2.42 0 0 0-.64-.4 2.07 2.07 0 0 0-1-.2 2.13 2.13 0 0 0-1.6.64 2.55 2.55 0 0 0-.68 1.6 12.16 12.16 0 0 0 0 1.77 15.18 15.18 0 0 1 0 1.9H18.4q0-.58 0-1.13t0-1.07c0-.35 0-.68 0-1s0-.64 0-.94a2.85 2.85 0 0 1 .36-1.15 4.14 4.14 0 0 1 .67-.9 3.84 3.84 0 0 1 .9-.7 3.07 3.07 0 0 1 1.2-.36 4.3 4.3 0 0 1 1.13 0 3.38 3.38 0 0 1 .92.3 3.65 3.65 0 0 1 .76.5 5.3 5.3 0 0 1 .66.65zM39.1 7.48q-1.4 0-2.77 0h-2.77a2.1 2.1 0 0 0 .67 1.18 2.2 2.2 0 0 0 1.32.55c.28 0 .57 0 .86 0h2.67a5.15 5.15 0 0 1 0 .66q0 .34 0 .66h-2.9a7.17 7.17 0 0 1-.95 0 3.23 3.23 0 0 1-1.16-.36A3.68 3.68 0 0 1 32.5 8.6a3.2 3.2 0 0 1-.33-1.17 3.5 3.5 0 0 1 0-.9 3.3 3.3 0 0 1 .2-.8 3.7 3.7 0 0 1 .36-.65 3.63 3.63 0 0 1 .44-.54 3.86 3.86 0 0 1 .62-.5 3.58 3.58 0 0 1 .78-.38 3 3 0 0 1 .68-.16 3.4 3.4 0 0 1 .84 0 3.14 3.14 0 0 1 .93.22 3.37 3.37 0 0 1 .8.46 3.62 3.62 0 0 1 .63.64 4 4 0 0 1 .46.75l.1.26a2.5 2.5 0 0 1 .1.24 2.34 2.34 0 0 1 0 .7 2.66 2.66 0 0 0 0 .7zm-3.23-2.82a.53.53 0 0 0-.24 0 2.27 2.27 0 0 0-1.2.44 2.36 2.36 0 0 0-.72.94h4.13a2.2 2.2 0 0 0-.73-1 2.3 2.3 0 0 0-1.23-.38zM45.34 0h1.3q0 .92 0 1.83t0 1.83 0 1.83a15 15 0 0 1 0 1.8 3.34 3.34 0 0 1-.32 1.2 3.57 3.57 0 0 1-.7 1 3.66 3.66 0 0 1-1 .7 3.3 3.3 0 0 1-1.2.35 3.2 3.2 0 0 1-1.65-.2 4.13 4.13 0 0 1-1.2-.8 3.6 3.6 0 0 1-.84-1.23 3.65 3.65 0 0 1-.2-1.75 2.92 2.92 0 0 1 .3-1.12 3.88 3.88 0 0 1 .7-1 3.6 3.6 0 0 1 1-.7 3.23 3.23 0 0 1 1.12-.33 3.73 3.73 0 0 1 1.5.14 4.23 4.23 0 0 1 1.15.6q0-1 0-2t0-2.06s0-.07 0-.07zm-4.47 6.83a2.1 2.1 0 0 0 .13 1A2.2 2.2 0 0 0 42.2 9a2.24 2.24 0 0 0 .9.18 2.1 2.1 0 0 0 1-.23 2.3 2.3 0 0 0 .77-.63 2.27 2.27 0 0 0 .44-.93 2.1 2.1 0 0 0-.05-1.13 2.4 2.4 0 0 0-.33-.64 2 2 0 0 0-.52-.5 2.2 2.2 0 0 0-.7-.32 2.32 2.32 0 0 0-.8-.05 2.2 2.2 0 0 0-2 2zM47.3 2.9q0-.7 0-1.45t0-1.45h1.32q0 .72 0 1.45t0 1.42zm1.3.53q0 1.75 0 3.54t0 3.6h-1.3V3.48s0-.07 0-.07zM56.2 10.55h-1.3a1.5 1.5 0 0 1 0-.36 1.5 1.5 0 0 0 0-.38l-.38.24a3.47 3.47 0 0 1-.4.22 3.2 3.2 0 0 1-.8.24 3.86 3.86 0 0 1-1 0 3.2 3.2 0 0 1-1.2-.33 4.08 4.08 0 0 1-1-.7 3.63 3.63 0 0 1-.7-.92 3.3 3.3 0 0 1-.35-1.2 3.73 3.73 0 0 1 0-1 3.42 3.42 0 0 1 .2-.8 4 4 0 0 1 .4-.58 3.42 3.42 0 0 1 .42-.53 4 4 0 0 1 .76-.6 3.14 3.14 0 0 1 1-.37 3.4 3.4 0 0 1 .6-.08 4.6 4.6 0 0 1 .67 0 3.14 3.14 0 0 1 1.18.36 3.78 3.78 0 0 1 .92.7 3.88 3.88 0 0 1 .67.9 3.25 3.25 0 0 1 .35 1.2 5.8 5.8 0 0 1 0 1q0 .5 0 1c0 .33 0 .65 0 1s0 .64 0 1zm-5.05-5.2a2.4 2.4 0 0 0-.33.37 2.12 2.12 0 0 0-.26.5 2.53 2.53 0 0 0-.14.58 2.07 2.07 0 0 0 0 .65 2.14 2.14 0 0 0 .26.67 2.4 2.4 0 0 0 .48.57 2.18 2.18 0 0 0 .66.38 2.23 2.23 0 0 0 .8.14 1.94 1.94 0 0 0 .92-.22 2.55 2.55 0 0 0 .68-.48 2.45 2.45 0 0 0 .5-.67 1.86 1.86 0 0 0 .17-.85 2 2 0 0 0-.2-.88 2.32 2.32 0 0 0-.44-.65 2.28 2.28 0 0 0-.76-.53 1.87 1.87 0 0 0-1-.14 2.2 2.2 0 0 0-1.35.54z"/><path fill="#797b7d" fill-rule="evenodd" d="M66.7 6.36a6.35 6.35 0 0 1-.7 0h-.68a2.8 2.8 0 0 0-.75-1.15 2.16 2.16 0 0 0-1.34-.5 2 2 0 0 0-.82.13 2.15 2.15 0 0 0-1.23 1.1 3 3 0 0 0-.27 1 6.16 6.16 0 0 0 0 .9q0 .47 0 .92v1.83a5.92 5.92 0 0 1-.66 0h-.67V7.5c0-.16 0-.33 0-.5a2.77 2.77 0 0 1 0-.5 2.4 2.4 0 0 1 .17-.72 5 5 0 0 1 .3-.62 3.54 3.54 0 0 1 .84-1 3.76 3.76 0 0 1 1.2-.65 3.54 3.54 0 0 1 .67-.12 4.73 4.73 0 0 1 .82 0 3.43 3.43 0 0 1 1.18.34 3.67 3.67 0 0 1 1.58 1.52 3.73 3.73 0 0 1 .36 1.12zM70.28 3.47a3.8 3.8 0 0 1 .93 0 3.54 3.54 0 0 1 .83.2 3.36 3.36 0 0 1 .7.36 3.73 3.73 0 0 1 1.35 1.67 3.4 3.4 0 0 1 .22 1.74 3.2 3.2 0 0 1-.36 1.2 4 4 0 0 1-.67.9 3.56 3.56 0 0 1-.92.7 3.3 3.3 0 0 1-1.2.34 3.5 3.5 0 0 1-.93 0 3.55 3.55 0 0 1-.8-.2 3.44 3.44 0 0 1-.67-.37 3.78 3.78 0 0 1-.54-.44 3.66 3.66 0 0 1-.43-.56 3.5 3.5 0 0 1-.36-.66 3.4 3.4 0 0 1-.2-.8 3.7 3.7 0 0 1 0-1 3.13 3.13 0 0 1 .35-1.2 3.83 3.83 0 0 1 .65-.88 4 4 0 0 1 .63-.46 3.8 3.8 0 0 1 .8-.38l.3-.08.35-.06zm-1 1.9a2.45 2.45 0 0 0-.43.5 2 2 0 0 0-.27.66c0 .1 0 .2 0 .3a1.14 1.14 0 0 0 0 .28A2.27 2.27 0 0 0 69 8.5a2.18 2.18 0 0 0 1.22.72H70.8a2.24 2.24 0 0 0 .8-.2 2.36 2.36 0 0 0 .65-.45 2.24 2.24 0 0 0 .46-.67 2.32 2.32 0 0 0 .3-.8v-.16a2 2 0 0 0-.3-.92 2.74 2.74 0 0 0-.5-.64 2.4 2.4 0 0 0-.72-.43 1.77 1.77 0 0 0-.9-.1 2.94 2.94 0 0 0-.76.18 1.88 1.88 0 0 0-.56.36z"/><ellipse cx="57.85" cy="9.71" fill="#797b7d" rx="1.14" ry="1.02"/></g></g></svg>