<svg xmlns="http://www.w3.org/2000/svg" viewBox="0 0 330.95 124.28"><defs><style>.cls-1{fill:#606061;}.cls-2{fill:#444445;}.cls-3{fill:#d02527;}</style></defs><title>Asset 1</title><g id="Layer_2" data-name="Layer 2"><g id="Layer_1-2" data-name="Layer 1"><path class="cls-1" d="M321.41,68h-1.88v-.68h4.58V68h-1.89v5.51h-.81Z"/><path class="cls-1" d="M330,70.81c0-.86-.1-1.9-.09-2.67h0c-.21.73-.47,1.51-.78,2.35l-1.09,3h-.61l-1-2.95c-.29-.87-.54-1.67-.72-2.41h0c0,.77-.06,1.81-.12,2.74l-.17,2.65h-.76l.43-6.19h1l1.06,3c.26.76.47,1.44.63,2.08h0c.16-.62.38-1.3.65-2.08l1.1-3h1l.39,6.19h-.78Z"/><rect class="cls-2" x="135.13" y="38.26" width="8.4" height="30.61" transform="translate(2.99 114.33) rotate(-45.05)"/><rect class="cls-2" x="143.09" y="30.3" width="8.4" height="30.6" transform="translate(10.94 117.59) rotate(-45.04)"/><rect class="cls-2" x="150.87" y="22.51" width="8.4" height="30.61" transform="translate(18.73 120.8) rotate(-45.03)"/><rect class="cls-3" x="163.76" y="25.33" width="30.61" height="8.4" transform="translate(31.64 135.37) rotate(-45.04)"/><rect class="cls-3" x="155.8" y="17.37" width="30.6" height="8.4" transform="translate(34.96 127.43) rotate(-45.05)"/><rect class="cls-3" x="148.01" y="9.6" width="30.61" height="8.4" transform="translate(38.12 119.57) rotate(-45.02)"/><path class="cls-2" d="M13.57,94.46h7.55v.72q0,5.06-2.64,7.61t-7.87,2.55a14.45,14.45,0,0,1-4.78-.75,7.92,7.92,0,0,1-3.34-2.07,9,9,0,0,1-1.92-4,40.11,40.11,0,0,1-.57-8,41.69,41.69,0,0,1,.59-8.52,9,9,0,0,1,2-4,8.57,8.57,0,0,1,3.47-2.22A14.61,14.61,0,0,1,11,75a13.43,13.43,0,0,1,4.91.81,8,8,0,0,1,3.36,2.4,8.19,8.19,0,0,1,1.57,3.21,29.45,29.45,0,0,1,.47,6.38v3.46H8.17a1.7,1.7,0,0,0,0,.32Q8,93.39,8,94.11a9.6,9.6,0,0,0,.65,4.22,2.32,2.32,0,0,0,2.22,1.18A2.44,2.44,0,0,0,13,98.61a4.49,4.49,0,0,0,.7-2.75q0-.37-.07-1.15A1.56,1.56,0,0,1,13.57,94.46ZM8.37,86.27h5.4v-.15q.1-1.1.1-1.54a5.65,5.65,0,0,0-.68-3.12,2.39,2.39,0,0,0-2.13-1,2.31,2.31,0,0,0-2.1,1,6.24,6.24,0,0,0-.64,3.25q0,.62,0,1T8.37,86.27Z"/><path class="cls-2" d="M39,104.57l-.47-2.64a10.57,10.57,0,0,1-3.32,2.4,9.49,9.49,0,0,1-3.92.81A6.87,6.87,0,0,1,25.94,103,8.51,8.51,0,0,1,24,97a8.38,8.38,0,0,1,1.68-5.38A13.19,13.19,0,0,1,31.16,88l2.49-.92q4.51-1.64,4.51-3.71a2.65,2.65,0,0,0-.65-1.93,2.5,2.5,0,0,0-1.87-.66,2.63,2.63,0,0,0-2.18.88,4.32,4.32,0,0,0-.71,2.73v.2H24.68q0-4.88,2.71-7.26t8.24-2.38a19.43,19.43,0,0,1,4.45.46,10.12,10.12,0,0,1,3.27,1.33,6.32,6.32,0,0,1,2.38,2.76,17.18,17.18,0,0,1,.68,5.9V96.51a42.09,42.09,0,0,0,.24,5.17,9.52,9.52,0,0,0,.78,2.9ZM38,90.7a11.4,11.4,0,0,0-4.54,2.17A4.18,4.18,0,0,0,32,96.11a3.24,3.24,0,0,0,.71,2.19,2.39,2.39,0,0,0,1.91.82,2.86,2.86,0,0,0,2.56-1.2,7.53,7.53,0,0,0,.8-4Z"/><path class="cls-2" d="M49,95.43l7.2,0A6.28,6.28,0,0,0,57,98.73a2.58,2.58,0,0,0,2.24,1,2.79,2.79,0,0,0,2-.71A2.37,2.37,0,0,0,62,97.23a2.41,2.41,0,0,0-.54-1.61,7.64,7.64,0,0,0-2.38-1.51l-1.25-.6a21.2,21.2,0,0,1-6.08-3.79,8.16,8.16,0,0,1-1.87-2.79,8.78,8.78,0,0,1-.65-3.34,7.92,7.92,0,0,1,2.68-6.28A10.61,10.61,0,0,1,59.17,75q4.73,0,7.28,2.25A8.17,8.17,0,0,1,69,83.71v.52l-7,0a6.09,6.09,0,0,0-.66-3.09,2.2,2.2,0,0,0-2-.92,2.77,2.77,0,0,0-1.94.66,2.23,2.23,0,0,0-.72,1.73q0,1.89,3.61,3.49l.77.35q4.93,2.22,6.6,4.31a9.82,9.82,0,0,1-1,12.23q-2.69,2.39-7.67,2.39-4.73,0-7.36-2.42A8.74,8.74,0,0,1,49,96.16Z"/><path class="cls-2" d="M69.76,75.76h8l2.81,18.55,2.84-18.55h8l-5.73,26.47q-1.64,7.62-3.69,9.82t-6.5,2.2q-.65,0-1.46-.07T72.13,114v-6l.15,0q.85.07,1.22.08a3.31,3.31,0,0,0,2-.51,1.88,1.88,0,0,0,.66-1.58,18.72,18.72,0,0,0-.5-3q-.17-.8-.25-1.22Z"/><path class="cls-3" d="M105.77,93.24h7.92q0,.22,0,.58t0,.54q0,5.53-2.56,8.26t-7.79,2.73q-5.9,0-8.31-3.35t-2.4-11.82q0-8.47,2.42-11.83T103.38,75q5.28,0,7.77,2.7t2.49,8.43v.5h-7.77V85.8a8.73,8.73,0,0,0-.56-3.69,2,2,0,0,0-1.88-1.1,2,2,0,0,0-2.05,1.47q-.54,1.47-.54,7.7,0,6,.54,7.61a2,2,0,0,0,2,1.63,2,2,0,0,0,1.86-1.16,8.6,8.6,0,0,0,.58-3.67q0-.2,0-.65T105.77,93.24Z"/><path class="cls-3" d="M116.85,90.18q0-8.42,2.42-11.8T127.56,75q5.88,0,8.29,3.36t2.42,11.83q0,8.42-2.42,11.79t-8.29,3.37q-5.9,0-8.31-3.35T116.85,90.18Zm8.17,0q0,6.08.54,7.61a2.09,2.09,0,0,0,4,.06q.53-1.47.54-7.67t-.54-7.68a2.09,2.09,0,0,0-4,.06Q125,84.1,125,90.18Z"/><path class="cls-3" d="M142,104.57V75.76h7.12v3.41a9,9,0,0,1,2.89-3,7.15,7.15,0,0,1,3.76-1,5.71,5.71,0,0,1,3.4,1,6.45,6.45,0,0,1,2.2,3,9,9,0,0,1,2.93-3,7.19,7.19,0,0,1,3.75-1,5.24,5.24,0,0,1,4.69,2.22q1.48,2.22,1.48,7.07v20.1h-7.7V86.32a10.41,10.41,0,0,0-.44-3.9,1.57,1.57,0,0,0-1.51-.81,2.25,2.25,0,0,0-2,1.32,7.52,7.52,0,0,0-.73,3.64v18h-7.55V86.32a10.7,10.7,0,0,0-.42-3.9,1.56,1.56,0,0,0-1.52-.81,2.23,2.23,0,0,0-2,1.32,7.52,7.52,0,0,0-.73,3.64v18Z"/><path class="cls-3" d="M178.47,114.26V75.76h7.4V79a8,8,0,0,1,2.78-2.94,7,7,0,0,1,3.7-1,7.76,7.76,0,0,1,3.09.6,6.13,6.13,0,0,1,2.32,1.69,8.2,8.2,0,0,1,1.51,3.6,53.29,53.29,0,0,1,.44,8.46q0,9.84-1.63,12.9t-5.87,3.06a6.13,6.13,0,0,1-3.21-.83,8,8,0,0,1-2.51-2.53v12.23Zm10.46-15.71a2.2,2.2,0,0,0,2.15-1.79q.59-1.79.59-8.29a16.69,16.69,0,0,0-.57-5.35,2,2,0,0,0-2-1.44,2.22,2.22,0,0,0-2.2,1.67q-.61,1.67-.61,8.79a14.66,14.66,0,0,0,.59,5A2.06,2.06,0,0,0,188.93,98.55Z"/><path class="cls-3" d="M202.6,90.18q0-8.42,2.42-11.8T213.31,75q5.88,0,8.29,3.36T224,90.18q0,8.42-2.42,11.79t-8.29,3.37q-5.9,0-8.31-3.35T202.6,90.18Zm8.17,0q0,6.08.54,7.61a2.09,2.09,0,0,0,4,.06q.53-1.47.54-7.67t-.54-7.68a2.09,2.09,0,0,0-4,.06Q210.77,84.1,210.77,90.18Z"/><path class="cls-3" d="M226,95.43l7.2,0a6.27,6.27,0,0,0,.87,3.28,2.58,2.58,0,0,0,2.24,1,2.79,2.79,0,0,0,2-.71,2.37,2.37,0,0,0,.77-1.83,2.4,2.4,0,0,0-.54-1.61,7.65,7.65,0,0,0-2.38-1.51l-1.25-.6a21.19,21.19,0,0,1-6.08-3.79,8.16,8.16,0,0,1-1.87-2.79,8.77,8.77,0,0,1-.65-3.34,7.92,7.92,0,0,1,2.68-6.28A10.6,10.6,0,0,1,236.17,75q4.73,0,7.29,2.25A8.17,8.17,0,0,1,246,83.71v.52l-7,0a6.11,6.11,0,0,0-.66-3.09,2.2,2.2,0,0,0-2-.92,2.77,2.77,0,0,0-1.94.66,2.23,2.23,0,0,0-.72,1.73q0,1.89,3.61,3.49l.77.35q4.93,2.22,6.6,4.31a9.82,9.82,0,0,1-1,12.23q-2.69,2.39-7.67,2.39-4.73,0-7.36-2.42A8.74,8.74,0,0,1,226,96.16Z"/><path class="cls-3" d="M249.08,72.9v-7h8v7Zm0,31.68V75.76h8v28.81Z"/><path class="cls-3" d="M274.48,104.48q-1.47.27-2.57.41A15.53,15.53,0,0,1,270,105a9.71,9.71,0,0,1-4.07-.77A5.19,5.19,0,0,1,263.5,102a7.69,7.69,0,0,1-.73-2.5,36.08,36.08,0,0,1-.21-4.59V81.71h-3.11v-6h3.11v-8h8.09v8h3.84v6h-3.84V93.47q0,3.76.55,4.63a2.31,2.31,0,0,0,2.12.87,8.52,8.52,0,0,0,.9-.07l.27,0Z"/><path class="cls-3" d="M290.19,94.46h7.55v.72q0,5.06-2.64,7.61t-7.87,2.55a14.45,14.45,0,0,1-4.78-.75,7.92,7.92,0,0,1-3.34-2.07,9,9,0,0,1-1.92-4,40,40,0,0,1-.57-8,41.73,41.73,0,0,1,.59-8.52,9,9,0,0,1,2-4,8.58,8.58,0,0,1,3.47-2.22,14.61,14.61,0,0,1,4.89-.75,13.43,13.43,0,0,1,4.91.81,8,8,0,0,1,3.36,2.4,8.2,8.2,0,0,1,1.57,3.21,29.45,29.45,0,0,1,.47,6.38v3.46h-13.1a1.7,1.7,0,0,0,0,.32q-.1,1.82-.1,2.54a9.61,9.61,0,0,0,.65,4.22,2.32,2.32,0,0,0,2.22,1.18,2.44,2.44,0,0,0,2.07-.91,4.5,4.5,0,0,0,.7-2.75q0-.37-.08-1.15A1.56,1.56,0,0,1,290.19,94.46ZM285,86.27h5.4v-.15c.07-.73.1-1.25.1-1.54a5.64,5.64,0,0,0-.69-3.12,2.39,2.39,0,0,0-2.13-1,2.32,2.32,0,0,0-2.1,1,6.24,6.24,0,0,0-.63,3.25q0,.62,0,1T285,86.27Z"/><path class="cls-3" d="M300,95.43l7.2,0a6.27,6.27,0,0,0,.87,3.28,2.58,2.58,0,0,0,2.24,1,2.79,2.79,0,0,0,2-.71,2.37,2.37,0,0,0,.77-1.83,2.41,2.41,0,0,0-.54-1.61,7.65,7.65,0,0,0-2.38-1.51l-1.25-.6a21.19,21.19,0,0,1-6.08-3.79,8.16,8.16,0,0,1-1.87-2.79,8.77,8.77,0,0,1-.65-3.34A7.92,7.92,0,0,1,303,77.33,10.6,10.6,0,0,1,310.19,75q4.73,0,7.29,2.25A8.17,8.17,0,0,1,320,83.71v.52l-7,0a6.11,6.11,0,0,0-.66-3.09,2.2,2.2,0,0,0-2-.92,2.77,2.77,0,0,0-1.94.66,2.23,2.23,0,0,0-.72,1.73q0,1.89,3.61,3.49l.77.35q4.93,2.22,6.6,4.31a9.82,9.82,0,0,1-1,12.23q-2.69,2.39-7.67,2.39-4.73,0-7.36-2.42A8.74,8.74,0,0,1,300,96.16Z"/><path class="cls-2" d="M196.17,118.25h1.31a.23.23,0,0,1,0,0,2.32,2.32,0,0,0,0,.27,1.51,1.51,0,0,0,.44,1.17,1.83,1.83,0,0,0,1.28.4,1.69,1.69,0,0,0,1.2-.41,1.46,1.46,0,0,0,.44-1.12q0-1.11-1.71-1.71h0a5.47,5.47,0,0,1-2.22-1.19,3,3,0,0,1,.22-3.65,2.81,2.81,0,0,1,2-.69,2.91,2.91,0,0,1,2.08.66,2.58,2.58,0,0,1,.7,2v.13h-1.26a2,2,0,0,0-.39-1.24,1.36,1.36,0,0,0-1.08-.39,1.64,1.64,0,0,0-1.16.37,1.42,1.42,0,0,0-.39,1.09,1.53,1.53,0,0,0,.1.58,1,1,0,0,0,.3.41,4.5,4.5,0,0,0,1.44.66q.57.18.89.3a3,3,0,0,1,1.39,1,2.55,2.55,0,0,1,.42,1.53,2.87,2.87,0,0,1-.82,2.19,3.26,3.26,0,0,1-2.33.77,2.78,2.78,0,0,1-2.1-.74,3,3,0,0,1-.71-2.16Z"/><path class="cls-2" d="M203.55,121.09V108.45h1.33v4.22a2.42,2.42,0,0,1,.93-.93,2.81,2.81,0,0,1,1.35-.3,2.41,2.41,0,0,1,1.7.56,2,2,0,0,1,.61,1.58v7.51h-1.33v-6.88a1.88,1.88,0,0,0-.32-1.21,1.25,1.25,0,0,0-1-.38,1.84,1.84,0,0,0-1.4.56,2.11,2.11,0,0,0-.53,1.51v6.4Z"/><path class="cls-2" d="M217.25,121.1l-.44.06-.34,0a1.13,1.13,0,0,1-.88-.35,1.53,1.53,0,0,1-.34-1,2.43,2.43,0,0,1-.88,1.11,2.39,2.39,0,0,1-1.36.39,2,2,0,0,1-1.6-.69,3,3,0,0,1-.57-1.94,2.86,2.86,0,0,1,.53-1.86,5.26,5.26,0,0,1,2.29-1.23h0q1.44-.48,1.44-1.13v-.87a1,1,0,0,0-.33-.85,1.7,1.7,0,0,0-1.06-.27,1.37,1.37,0,0,0-1.05.37,1.61,1.61,0,0,0-.34,1.13v.16H211.1a3,3,0,0,1,.69-2.11,2.88,2.88,0,0,1,2.1-.66,2.71,2.71,0,0,1,2,.61,2.62,2.62,0,0,1,.62,1.93v5.52a.84.84,0,0,0,.13.53.52.52,0,0,0,.43.16l.18,0h0ZM215.16,116a3.7,3.7,0,0,1-1.38.73l-.13,0a2.42,2.42,0,0,0-1.2.72,2.09,2.09,0,0,0-.28,1.19,1.69,1.69,0,0,0,.31,1.09,1.06,1.06,0,0,0,.88.39,1.58,1.58,0,0,0,1.31-.62,2.65,2.65,0,0,0,.49-1.67Z"/><path class="cls-2" d="M218.27,121.09v-9.45h1.22v1.54a2.79,2.79,0,0,1,.87-1.3,2.05,2.05,0,0,1,1.33-.47H222l.23,0v1.41a.94.94,0,0,0-.23-.09,1.27,1.27,0,0,0-.28,0,2,2,0,0,0-1.58.67,2.84,2.84,0,0,0-.57,1.88v5.79Z"/><path class="cls-2" d="M227.14,117.89h1.3a3.92,3.92,0,0,1-.77,2.56,2.65,2.65,0,0,1-2.14.89,2.45,2.45,0,0,1-2.25-1.19,7.26,7.26,0,0,1-.73-3.68,7.88,7.88,0,0,1,.73-3.87,2.78,2.78,0,0,1,4.47-.18,5.64,5.64,0,0,1,.72,3.18c0,.22,0,.39,0,.51s0,.22,0,.31h-4.54v.42a6,6,0,0,0,.41,2.58,1.37,1.37,0,0,0,1.3.81,1.26,1.26,0,0,0,1.1-.61,3,3,0,0,0,.41-1.66Zm-3.23-2.55h3.21v-.25a4,4,0,0,0-.38-2,1.24,1.24,0,0,0-1.15-.66,1.37,1.37,0,0,0-1.27.71A4.43,4.43,0,0,0,223.92,115.34Z"/><path class="cls-2" d="M235.24,119.13a1,1,0,0,0,.21.78,1.77,1.77,0,0,0,1,.18h.29v1.16l-.33,0-.65,0a2.17,2.17,0,0,1-1.39-.37,1.37,1.37,0,0,1-.45-1.13v-7h-1.31v-1.09H234v-2.52h1.29v2.52h1.54v1.09h-1.54Z"/><path class="cls-2" d="M237.53,121.09V108.45h1.33v4.22a2.42,2.42,0,0,1,.93-.93,2.81,2.81,0,0,1,1.35-.3,2.41,2.41,0,0,1,1.7.56,2,2,0,0,1,.61,1.58v7.51h-1.33v-6.88a1.88,1.88,0,0,0-.32-1.21,1.25,1.25,0,0,0-1-.38,1.84,1.84,0,0,0-1.4.56,2.11,2.11,0,0,0-.53,1.51v6.4Z"/><path class="cls-2" d="M249.42,117.89h1.3a3.92,3.92,0,0,1-.77,2.56,2.65,2.65,0,0,1-2.14.89,2.45,2.45,0,0,1-2.25-1.19,7.26,7.26,0,0,1-.73-3.68,7.88,7.88,0,0,1,.73-3.87,2.78,2.78,0,0,1,4.47-.18,5.64,5.64,0,0,1,.72,3.18c0,.22,0,.39,0,.51s0,.22,0,.31h-4.54v.42a6,6,0,0,0,.41,2.58,1.37,1.37,0,0,0,1.3.81,1.26,1.26,0,0,0,1.1-.61,3,3,0,0,0,.41-1.66Zm-3.23-2.55h3.21v-.25a4,4,0,0,0-.38-2,1.24,1.24,0,0,0-1.15-.66,1.37,1.37,0,0,0-1.27.71A4.43,4.43,0,0,0,246.19,115.34Z"/><path class="cls-2" d="M256,121.09V108.45h1.28v7.48l3.23-4.28h1.54l-2.82,3.58,3,5.87h-1.62l-2.33-4.65-1,1.29v3.37Z"/><path class="cls-2" d="M262.8,121.09v-9.45H264v1.17a2.39,2.39,0,0,1,.94-1,2.8,2.8,0,0,1,1.44-.34,2.2,2.2,0,0,1,1.78.63,3.43,3.43,0,0,1,.53,2.17v6.84h-1.33v-6.94a1.71,1.71,0,0,0-.33-1.15,1.26,1.26,0,0,0-1-.38,1.83,1.83,0,0,0-1.41.56,2.12,2.12,0,0,0-.52,1.51v6.4Z"/><path class="cls-2" d="M270.09,116.37a6.9,6.9,0,0,1,.82-3.77,3.18,3.18,0,0,1,5,0,9.25,9.25,0,0,1,0,7.55,3.25,3.25,0,0,1-5,0A7,7,0,0,1,270.09,116.37Zm1.41,0a7.24,7.24,0,0,0,.43,3,1.66,1.66,0,0,0,2.93,0,7.18,7.18,0,0,0,.44-3,7.11,7.11,0,0,0-.44-3,1.67,1.67,0,0,0-2.92,0A7.13,7.13,0,0,0,271.5,116.37Z"/><path class="cls-2" d="M279.91,121.09l-2.42-9.45h1.36l1.75,7.55,1.46-7.55h1.35l1.63,7.57,1.63-7.57H288l-2.29,9.45h-1.3l-1.65-7.33-1.45,7.33Z"/><path class="cls-2" d="M289,121.09V108.45h1.31v12.64Z"/><path class="cls-2" d="M296.27,117.89h1.3a3.92,3.92,0,0,1-.77,2.56,2.65,2.65,0,0,1-2.14.89,2.45,2.45,0,0,1-2.25-1.19,7.26,7.26,0,0,1-.73-3.68,7.88,7.88,0,0,1,.73-3.87,2.78,2.78,0,0,1,4.47-.18,5.64,5.64,0,0,1,.72,3.18c0,.22,0,.39,0,.51s0,.22,0,.31H293v.42a6,6,0,0,0,.41,2.58,1.37,1.37,0,0,0,1.3.81,1.26,1.26,0,0,0,1.1-.61,3,3,0,0,0,.41-1.66ZM293,115.34h3.21v-.25a4,4,0,0,0-.38-2,1.24,1.24,0,0,0-1.15-.66,1.37,1.37,0,0,0-1.27.71A4.43,4.43,0,0,0,293,115.34Z"/><path class="cls-2" d="M305,121.09h-1.24V119.9a1.78,1.78,0,0,1-.74,1,2.29,2.29,0,0,1-1.31.38,2.44,2.44,0,0,1-2.23-1.33,7.9,7.9,0,0,1-.77-3.88,6.41,6.41,0,0,1,.77-3.43,2.42,2.42,0,0,1,2.15-1.22,2.54,2.54,0,0,1,1.32.34,1.46,1.46,0,0,1,.72.86v-4.17H305Zm-1.24-4.79a7.11,7.11,0,0,0-.41-2.88,1.42,1.42,0,0,0-1.38-.81,1.45,1.45,0,0,0-1.37.88,6.33,6.33,0,0,0-.44,2.72,7.67,7.67,0,0,0,.42,3,1.4,1.4,0,0,0,1.34.92,1.46,1.46,0,0,0,1.41-.87A7.14,7.14,0,0,0,303.79,116.29Z"/><path class="cls-2" d="M306.71,122H308a1.1,1.1,0,0,0,.43.87,1.84,1.84,0,0,0,1.12.3,1.57,1.57,0,0,0,1.4-.63,3.72,3.72,0,0,0,.43-2s0-.09,0-.21,0-.21,0-.29a2.1,2.1,0,0,1-.82,1,2.41,2.41,0,0,1-1.28.32,2.31,2.31,0,0,1-2.15-1.28,8.22,8.22,0,0,1-.71-3.88,6.6,6.6,0,0,1,.74-3.49,2.46,2.46,0,0,1,2.22-1.17,2.25,2.25,0,0,1,1.27.35,1.85,1.85,0,0,1,.74,1v-1.11h1.28v9a3.92,3.92,0,0,1-.84,2.68,3.44,3.44,0,0,1-4.36.31,2,2,0,0,1-.77-1.63Zm1.11-5.57a7,7,0,0,0,.41,2.84,1.4,1.4,0,0,0,1.35.86,1.44,1.44,0,0,0,1.39-.87,7.37,7.37,0,0,0,.42-2.95,6.72,6.72,0,0,0-.44-2.83,1.47,1.47,0,0,0-1.41-.88,1.37,1.37,0,0,0-1.32.89A7.6,7.6,0,0,0,307.82,116.38Z"/><path class="cls-2" d="M318.65,117.89h1.3a3.92,3.92,0,0,1-.77,2.56,2.65,2.65,0,0,1-2.14.89,2.45,2.45,0,0,1-2.25-1.19,7.26,7.26,0,0,1-.73-3.68,7.88,7.88,0,0,1,.73-3.87,2.78,2.78,0,0,1,4.47-.18,5.64,5.64,0,0,1,.72,3.18c0,.22,0,.39,0,.51s0,.22,0,.31h-4.54v.42a6,6,0,0,0,.41,2.58,1.37,1.37,0,0,0,1.3.81,1.26,1.26,0,0,0,1.1-.61,3,3,0,0,0,.41-1.66Zm-3.23-2.55h3.21v-.25a4,4,0,0,0-.38-2,1.24,1.24,0,0,0-1.15-.66,1.37,1.37,0,0,0-1.27.71A4.43,4.43,0,0,0,315.42,115.34Z"/></g></g></svg>