<svg xmlns="http://www.w3.org/2000/svg" viewBox="0 0 51.48 29.16"><title>Asset 13</title><g><g><path fill="#00a05a" d="M0 20.58l8.58 8.58 8.58-8.58L8.58 12 0 20.58zM8.58 14l6.56 6.56-6.56 6.58L2 20.58 8.58 14z"/><path fill="#f58220" d="M8.7 20.57l8.57 8.58 8.58-8.58L17.27 12 8.7 20.57zM17.26 14l6.56 6.56-6.56 6.56-6.56-6.56L17.28 14z"/><path fill="#d71920" d="M17.08 20.57l8.58 8.58 8.58-8.58L25.66 12l-8.58 8.58zM25.66 14l6.56 6.56-6.56 6.56-6.56-6.55L25.66 14z"/><path fill="#ffcb05" d="M26 20.57l8.58 8.58 8.58-8.58-8.6-8.57L26 20.57zM34.56 14l6.56 6.56-6.56 6.56L28 20.57 34.56 14z"/><path fill="#0066b3" d="M34.32 20.57l8.58 8.58 8.58-8.58L42.9 12l-8.58 8.58zM42.9 14l6.56 6.56-6.56 6.57-6.56-6.56L42.9 14zM3.77 0L.1 9.68h7.54l.64-1.72h-2.9l.97-2.37h1.83l.64-1.73H6.88l.87-2.04H10L10.66 0H3.77zM12.05 0L8.28 9.68h6.78l.65-1.72h-2.25L16.57 0h-4.52zM41.96 0L38.2 9.68h4.2l2.9-7.96h1.82l-2.8 7.96h4l3-7.85L50.24 0h-8.28zM27.65 0h-8.28L15.8 9.68h8.4l2.26-1.6 2.47-6.36L27.65 0zM22.5 8h-2l2.2-6.28h2L22.5 8zM39.05 0h-7L29.9 1.6l-2.47 6.47 1.3 1.6h6.77l2.37-1.6 2.37-6.35L39.04 0zm-5.27 8h-2.15l2.47-6.24h2L33.78 8z"/></g></g></svg>