<svg xmlns="http://www.w3.org/2000/svg" viewBox="0 0 75.88 17.97"><title>Asset 36</title><g><g><g><path fill="#231f20" d="M30 13.13c-.55 0-.82.05-.82.64s.38.53.82.57.6 0 .6.4-.13.43-.6.43-.58 0-.57-.5h-.25c0 .65.24.72.8.72s.87 0 .87-.66-.27-.58-.8-.6-.62 0-.62-.42.07-.37.56-.37.54 0 .55.4h.25c0-.6-.35-.62-.8-.62zm2.82 0c-.44 0-.73.15-.73.7v.85a.62.62 0 0 0 .63.7h.35c.45 0 .78-.06.78-.57v-.2h-.26v.18c0 .32-.12.38-.52.38h-.3c-.42 0-.45-.23-.45-.74v-.6c0-.42.2-.48.7-.48h.15c.33 0 .4.12.4.43v.07h.25v-.08c0-.44-.14-.64-.6-.64h-.42zm-9.5 0v2.22h1.43v-.22h-1.2v-.82h1.12v-.2h-1.12v-.76h1.18v-.22zm2.37 0l-.83 2.22h.27l.17-.47h1.14l.17.47h.28l-.88-2.2zm1.38 0v2.22h1.14c.67 0 .7-.6.7-.83V14c0-.82-.5-.85-.76-.85zm-1.2.2l.48 1.35h-1zm1.45 0h.87a.5.5 0 0 1 .47.54v.58c0 .4-.07.66-.5.66h-.87zm-7.74.43c-.36 0-.64 0-.64.43h.25c0-.22.23-.23.42-.23s.4 0 .4.3v.3c0-.15-.33-.16-.48-.16-.4 0-.6.06-.6.5s.24.46.6.46c.2 0 .4 0 .5-.18v.16h.24V14.3c0-.46-.28-.5-.67-.5zm1.8 0c-.2 0-.42 0-.5.2v-.18h-.22v1.55h.23v-.9c0-.37.1-.48.47-.48s.38 0 .38.33v1.05h.23v-1c0-.43-.18-.54-.58-.54zm13.37 0c-.58 0-.7.14-.7.8s.12.8.7.8.7-.14.7-.8-.15-.76-.73-.76zm1.8 0a.53.53 0 0 0-.52.26v-.24h-.23v1.55H36v-.94c0-.33.17-.46.47-.46s.33.13.34.34v1h.25v-1c0-.34.14-.43.47-.43s.34.12.34.38v1h.24v-1c0-.38-.14-.55-.54-.55a.58.58 0 0 0-.56.26c-.05-.2-.3-.26-.47-.26zm2.7 0a.54.54 0 0 0-.5.2v-.18h-.24V16h.24v-.85c.1.18.32.2.5.2.46 0 .6-.18.6-.8-.02-.42-.06-.75-.63-.75zm1.57 0c-.35 0-.62 0-.62.43h.24c0-.22.22-.23.4-.23s.43 0 .43.3v.3c0-.15-.35-.16-.5-.16-.4 0-.6.06-.6.5s.23.46.58.46c.2 0 .42 0 .5-.18v.16h.25V14.3c0-.46-.3-.5-.68-.5zm1.8 0c-.18 0-.4 0-.47.2v-.18h-.27v1.55h.24v-.9c0-.37.08-.48.46-.48s.38 0 .38.33v1.05h.23v-1c0-.43-.18-.54-.58-.54zm.8 0l.56 1.6h.1c-.06.2-.1.5-.33.5h-.1V16h.1c.38 0 .46-.3.54-.58l.46-1.67h-.25l-.33 1.38-.48-1.38h-.25zm-8.7.24c.42 0 .45.06.45.6s0 .62-.46.62-.45-.07-.45-.6.02-.62.44-.62zm4.44 0c.4 0 .44.14.44.6s-.07.62-.44.62-.44-.24-.44-.6 0-.62.44-.62zm-19.84.64h.18c.3 0 .47 0 .47.28s-.25.3-.48.3-.4 0-.4-.32.07-.26.22-.28zm21.27 0h.2c.3 0 .45 0 .45.28s-.23.3-.46.3-.4 0-.4-.32.06-.26.2-.28z"/><path fill="#231f20" d="M63 5.4v1.08h-.67v.62H63v2.66c0 .7.18 1.13.52 1.33a3.5 3.5 0 0 0 1.65.28c.2 0 .4 0 .57 0v-.66a3.7 3.7 0 0 1-.64 0 1.66 1.66 0 0 1-1.1-.23 1.5 1.5 0 0 1-.27-1.08V7.1h2v-.62h-2V5.4zm-41.6 1a3.16 3.16 0 0 0-2.06.5 2.67 2.67 0 0 0-.57 2 2.84 2.84 0 0 0 .4 1.73 1.67 1.67 0 0 0 1 .64 11.84 11.84 0 0 0 2 .1 5.76 5.76 0 0 0 2-.27A1.17 1.17 0 0 0 25 9.86h-.75a.9.9 0 0 1-.14.43.8.8 0 0 1-.35.27 1.8 1.8 0 0 1-.55.14c-.2 0-.5 0-.84 0h-.4c-.32 0-.6 0-.84 0a5 5 0 0 1-.52-.06 1.1 1.1 0 0 1-.82-.52A2.56 2.56 0 0 1 19.53 9H25v-.23a2.94 2.94 0 0 0-.34-1.6 1.46 1.46 0 0 0-.93-.65 9 9 0 0 0-1.75-.12zm23.5 0a4.7 4.7 0 0 0-1.37.18 1.5 1.5 0 0 0-.86.6 1.93 1.93 0 0 0-.3.8 8 8 0 0 0 0 1 2.2 2.2 0 0 0 .7 2 4.4 4.4 0 0 0 2.32.45h.8a3.14 3.14 0 0 0 1.65-.43 1.53 1.53 0 0 0 .58-1.4h-.76c0 .58-.2.9-.6 1a4.8 4.8 0 0 1-.93.16h-.54c-.27 0-.53 0-.77 0s-.5 0-.8-.1a1 1 0 0 1-.68-.4A2.27 2.27 0 0 1 43.1 9v-.2c0-.18 0-.36 0-.53a2.52 2.52 0 0 1 .1-.56.72.72 0 0 1 .45-.44 2.45 2.45 0 0 1 .64-.18 10 10 0 0 1 1 0h.1a8 8 0 0 1 1.07.06 1.86 1.86 0 0 1 .63.18.72.72 0 0 1 .32.33 1.3 1.3 0 0 1 .1.55h.76a1.6 1.6 0 0 0-.43-1.24 1.73 1.73 0 0 0-1-.45 14.18 14.18 0 0 0-1.6-.06h-.43zm23.67 0a3.16 3.16 0 0 0-2.07.5 2.67 2.67 0 0 0-.57 2 2.85 2.85 0 0 0 .4 1.73 1.67 1.67 0 0 0 1 .64 11.84 11.84 0 0 0 2 .1 5.74 5.74 0 0 0 2-.27 1.17 1.17 0 0 0 .78-1.23h-.75a.9.9 0 0 1-.13.43.78.78 0 0 1-.36.28 1.88 1.88 0 0 1-.56.14c-.2 0-.48 0-.83 0h-.4c-.33 0-.6 0-.85 0a5.1 5.1 0 0 1-.52-.07 1.1 1.1 0 0 1-.82-.52 2.6 2.6 0 0 1-.2-1.13h5.44v-.23a2.9 2.9 0 0 0-.35-1.6 1.45 1.45 0 0 0-.93-.65 8.85 8.85 0 0 0-1.74-.12zM35 6.4a2.8 2.8 0 0 0-1.36.26 1.22 1.22 0 0 0-.56.67v-.85h-.72v4.83h.72V8.6c0-.64.15-1.07.45-1.26A2.82 2.82 0 0 1 35 7h.48v-.58zm40.37 0a2.83 2.83 0 0 0-1.37.26 1.2 1.2 0 0 0-.56.67v-.85h-.72v4.83h.72V8.6c0-.64.15-1.07.45-1.26A2.86 2.86 0 0 1 75.4 7h.48v-.58zm-36.72 0h-.75c-.2 0-.56 0-1 .1a1.28 1.28 0 0 0-1 .7 3.7 3.7 0 0 0-.36 1.8c0 1.06.24 1.73.7 2a5 5 0 0 0 2.42.42 5.2 5.2 0 0 0 2.57-.42c.44-.3.65-1 .65-2.15a2.76 2.76 0 0 0-.38-1.63 1.57 1.57 0 0 0-1-.63 10.27 10.27 0 0 0-1.85-.13zm13.4 0h-.76c-.22 0-.56 0-1 .1a1.28 1.28 0 0 0-1 .7 3.7 3.7 0 0 0-.36 1.8c0 1.06.24 1.73.7 2a5 5 0 0 0 2.42.42 5.15 5.15 0 0 0 2.56-.42c.44-.3.66-1 .66-2.15a2.76 2.76 0 0 0-.38-1.63 1.57 1.57 0 0 0-1-.63 10.27 10.27 0 0 0-1.85-.13zm6.4 0a3.22 3.22 0 0 0-1.1.17 1.23 1.23 0 0 0-.67.66v-.75H56v6.34h.72v-2.3a1.08 1.08 0 0 0 .55.67 2.32 2.32 0 0 0 1 .16h1.9a1.94 1.94 0 0 0 1.68-.6 3.3 3.3 0 0 0 .42-1.88c0-1.05-.2-1.73-.64-2a4.43 4.43 0 0 0-2.33-.45zm-32.74.07v3a1.77 1.77 0 0 0 .57 1.42 3.77 3.77 0 0 0 2.3.47 3.37 3.37 0 0 0 1.55-.27 1.42 1.42 0 0 0 .66-.74v.94h.72V6.48h-.7v2.64c0 .7-.2 1.15-.57 1.34a4.2 4.2 0 0 1-1.76.28 3.14 3.14 0 0 1-1.57-.28c-.3-.2-.45-.63-.45-1.34V6.48zM21.67 7h.56a4.55 4.55 0 0 1 1.1.1 1.35 1.35 0 0 1 .58.27.83.83 0 0 1 .25.42 2.38 2.38 0 0 1 .07.56h-4.7a2.1 2.1 0 0 1 .1-.58.93.93 0 0 1 .3-.45 1.36 1.36 0 0 1 .68-.27A7.44 7.44 0 0 1 21.66 7zM68.8 7h.58a4.45 4.45 0 0 1 1.1.1 1.33 1.33 0 0 1 .57.27.8.8 0 0 1 .25.42 2.32 2.32 0 0 1 .07.56H66.7a2 2 0 0 1 .07-.58.93.93 0 0 1 .3-.45 1.34 1.34 0 0 1 .7-.27A7.28 7.28 0 0 1 68.8 7zM38.36 7h.99c.22 0 .5 0 .86.08a.85.85 0 0 1 .73.58 4.12 4.12 0 0 1 .2 1.4c0 .77-.2 1.23-.56 1.38a5.32 5.32 0 0 1-1.9.24h-.3a2.72 2.72 0 0 1-1.62-.35 1.9 1.9 0 0 1-.45-1.5c0-.8.14-1.3.43-1.53a2.9 2.9 0 0 1 1.62-.24zm13.4 0h1.02c.22 0 .5 0 .86.08a.85.85 0 0 1 .73.58 4.1 4.1 0 0 1 .2 1.4c0 .77-.2 1.23-.56 1.38a5.32 5.32 0 0 1-1.9.24h-.3a2.72 2.72 0 0 1-1.62-.35 1.9 1.9 0 0 1-.45-1.5c0-.8.14-1.3.43-1.53a2.9 2.9 0 0 1 1.6-.24zm7.22 0h.25a3.65 3.65 0 0 1 1.78.35c.28.2.42.7.42 1.57s-.15 1.33-.45 1.53a3.55 3.55 0 0 1-1.77.3 5.25 5.25 0 0 1-2-.27c-.34-.17-.5-.7-.5-1.57a3.36 3.36 0 0 1 .16-1.18.8.8 0 0 1 .6-.53 4.8 4.8 0 0 1 .74-.12z"/><path fill="#fff" d="M.63 9A8.36 8.36 0 1 1 9 17.34 8.36 8.36 0 0 1 .63 9"/><path fill="none" stroke="#fff" stroke-width="1.25" d="M.63 9A8.36 8.36 0 1 1 9 17.34 8.36 8.36 0 0 1 .63 9z"/><path fill="#04baeb" d="M.63 9A8.36 8.36 0 1 1 9 17.34 8.36 8.36 0 0 1 .63 9"/><path fill="#fff" d="M5 10.57c.1-.18.38-.57.77-1.1A1.4 1.4 0 0 1 6.7 9h6.9a1.4 1.4 0 0 0 1-.47c.12-.13 1.15-1.7 1.15-1.7H17c0 .08-1.4 2.1-1.54 2.22a2 2 0 0 1-1.46.5H9.28a.6.6 0 0 0-.16 0 .38.38 0 0 0-.12.1c-.4.38-.52.93-1.1 1.18a2.77 2.77 0 0 1-.86.2h-2.3l.26-.46"/><path fill="#fff" d="M8 7.72l-.34.5H5.4s.35-.5.34-.5H8"/><path fill="#fff" d="M12.8 7.57l.2-.33H.8c0 .1 0 .2-.05.32h12"/><path fill="#fff" d="M4.7 10.78a2.9 2.9 0 0 1-.2.27h-3c.38-.7.87-1.27 1.3-1.9a2.5 2.5 0 0 1 1.65-.8H13c.2 0 .3-.2.4-.3l.85-1.2h1.28s-.84 1.28-1.06 1.57a1.16 1.16 0 0 1-.93.42H6.7a1.5 1.5 0 0 0-1.1.6c-.35.44-.74 1-.77 1.08l-.14.24"/></g></g></g></svg>