<?xml version="1.0" encoding="utf-8"?>
<!-- Generator: Adobe Illustrator 15.0.2, SVG Export Plug-In . SVG Version: 6.00 Build 0)  -->
<!DOCTYPE svg PUBLIC "-//W3C//DTD SVG 1.1//EN" "http://www.w3.org/Graphics/SVG/1.1/DTD/svg11.dtd">
<svg version="1.1" id="Ebene_1" xmlns="http://www.w3.org/2000/svg" xmlns:xlink="http://www.w3.org/1999/xlink" x="0px" y="0px"
	 width="276.109px" height="73.086px" viewBox="0 0 276.109 73.086" enable-background="new 0 0 276.109 73.086"
	 xml:space="preserve">
<g>
	<polygon fill-rule="evenodd" clip-rule="evenodd" fill="#032942" points="276.19,16.928 276.19,56.132 260.506,56.132 
		260.506,41.92 242.866,41.92 242.866,56.132 227.183,56.132 227.183,16.928 242.866,16.928 242.866,31.137 260.506,31.137 
		260.506,16.928 	"/>
	<polygon fill-rule="evenodd" clip-rule="evenodd" fill="#032942" points="206.604,34.08 206.604,27.708 188.96,27.708 
		188.96,45.353 206.604,45.353 206.604,38.98 222.284,38.98 222.284,56.132 173.281,56.132 173.281,16.928 222.284,16.928 
		222.284,34.08 	"/>
	<polygon fill-rule="evenodd" clip-rule="evenodd" fill="#032942" points="155.637,43.389 155.64,43.392 168.381,56.132 
		151.708,56.132 138.978,43.403 138.978,32.611 152.698,32.611 152.698,27.708 131.136,27.708 131.136,56.132 115.456,56.132 
		115.456,16.928 168.381,16.928 168.381,43.389 	"/>
	<path fill="#032942" d="M119.999,8.997c2.437,0,4.518-1.896,4.518-4.487c0-2.566-2.082-4.459-4.518-4.459
		c-2.46,0-4.545,1.893-4.545,4.459C115.454,7.102,117.539,8.997,119.999,8.997L119.999,8.997z M116.357,4.51
		c0-2.117,1.597-3.714,3.643-3.714c2.023,0,3.62,1.597,3.62,3.714c0,2.154-1.597,3.737-3.62,3.737
		C117.954,8.247,116.357,6.664,116.357,4.51L116.357,4.51z M119.055,4.866h0.896l1.362,2.235h0.875l-1.469-2.271
		c0.759-0.096,1.339-0.498,1.339-1.419c0-1.018-0.604-1.467-1.825-1.467h-1.96v5.157h0.781V4.866L119.055,4.866z M119.055,4.203
		V2.607h1.062c0.545,0,1.125,0.117,1.125,0.755c0,0.795-0.592,0.841-1.255,0.841H119.055L119.055,4.203z"/>
	<path fill-rule="evenodd" clip-rule="evenodd" fill="#C5322A" d="M81.248,0.01L51.943,16.928v39.205l29.305,16.917l29.307-16.917
		V16.928L81.248,0.01z M81.248,51.431c-8.242,0-14.922-6.682-14.922-14.919c0-8.245,6.68-14.924,14.922-14.924
		c8.239,0,14.922,6.679,14.922,14.924C96.171,44.75,89.488,51.431,81.248,51.431z"/>
	<polygon fill-rule="evenodd" clip-rule="evenodd" fill="#C5322A" points="51.943,12.742 73.987,0.01 51.943,0.01 	"/>
	<polygon fill-rule="evenodd" clip-rule="evenodd" fill="#C5322A" points="110.555,12.742 88.511,0.01 110.555,0.01 	"/>
	<polygon fill-rule="evenodd" clip-rule="evenodd" fill="#032942" points="15.68,27.708 15.68,32.611 47.043,32.611 47.043,43.392 
		15.68,43.392 15.68,56.132 0,56.132 0,16.928 47.043,16.928 47.043,27.708 	"/>
</g>
</svg>
