<svg xmlns="http://www.w3.org/2000/svg" viewBox="0 0 47.93 24.53"><title>Asset 11</title><g><g fill-rule="evenodd"><path fill="#fff" d="M9.1 22a.88.88 0 0 1-.88-1.12l.53-2.64a1.23 1.23 0 0 1 1.2-1h1.58a.9.9 0 0 1 .9 1.1l-.55 2.67a1.26 1.26 0 0 1-1.18 1zm1.1-1.7l.25-1.37-.26 1.38zM15.37 22a.9.9 0 0 1-.72-.33.93.93 0 0 1-.18-.78l.53-2.65a1.25 1.25 0 0 1 1.2-1h1.6a.9.9 0 0 1 .9 1.1l-.56 2.66A1.22 1.22 0 0 1 17 22zm1.1-1.7l.25-1.37-.26 1.38zM32.8 22a.4.4 0 0 1-.4-.47l.78-3.9a.4.4 0 0 1 .38-.33H36a.92.92 0 0 1 .73.34.9.9 0 0 1 .16.77l-.26 1.24a.68.68 0 0 1-.7.58h-1.26l-.3 1.46A.4.4 0 0 1 34 22zM12.44 22a.4.4 0 0 1-.38-.47l.52-2.53h-.44a.4.4 0 0 1-.3-.14.4.4 0 0 1-.08-.32c0-.1 0-.2 0-.22a.24.24 0 0 0 0-.2.4.4 0 0 1-.12-.28.4.4 0 0 1 0-.12v-.1a.4.4 0 0 1 .37-.26h3.4a.4.4 0 0 1 .38.5l-.24.85a.4.4 0 0 1-.38.3h-.57l-.6 2.7a.4.4 0 0 1-.38.3zM44 22a.4.4 0 0 1-.38-.47l.53-2.53h-.44a.4.4 0 0 1-.37-.46v-.2a.26.26 0 0 0 0-.18.4.4 0 0 1-.1-.43v-.1a.4.4 0 0 1 .36-.24H47a.4.4 0 0 1 .38.48l-.22.86a.4.4 0 0 1-.38.3h-.58l-.56 2.74a.4.4 0 0 1-.38.3zM4.13 22a.4.4 0 0 1-.36-.25l-.46-1.17-.23 1.1a.4.4 0 0 1-.38.3H1a.4.4 0 0 1-.38-.47l.8-3.5h-.8a.4.4 0 0 1-.27-.68l.9-.84a.4.4 0 0 1 .26-.1h2.24a.4.4 0 0 1 .36.23l.9 2.16 1.6-2.22a.4.4 0 0 1 .32-.16h2.13a.4.4 0 0 1 .38.47l-1 4.83A.4.4 0 0 1 8 22H6.37a.4.4 0 0 1-.37-.5l.07-.3-.42.63a.4.4 0 0 1-.32.17zM20.9 22a.4.4 0 0 1-.36-.22L20 20.73l-.2.94a.4.4 0 0 1-.37.32h-1.2a.4.4 0 0 1-.38-.47l.5-2.6a.38.38 0 0 1-.14-.12.4.4 0 0 1-.07-.3V18.25a.22.22 0 0 0 0-.2.4.4 0 0 1-.12-.27.36.36 0 0 1 0-.12v-.08a.4.4 0 0 1 .38-.28h3a.9.9 0 0 1 .72.34.9.9 0 0 1 .16.77L22 19.66a.66.66 0 0 1-.3.48l.7 1.32a.4.4 0 0 1-.35.57zM42.4 22a.4.4 0 0 1-.35-.22l-.53-1.07-.18.95A.4.4 0 0 1 41 22h-1.27a.4.4 0 0 1-.3-.14.4.4 0 0 1-.08-.32l.5-2.6a.4.4 0 0 1-.22-.46 1.06 1.06 0 0 0 0-.14.3.3 0 0 0 0-.2.4.4 0 0 1-.12-.3.4.4 0 0 1 0-.07v-.08a.4.4 0 0 1 .4-.33h3a.93.93 0 0 1 .73.34.9.9 0 0 1 .16.78l-.26 1.23a.65.65 0 0 1-.3.5l.76 1.24a.4.4 0 0 1-.34.57zM36.8 22a.92.92 0 0 1-.72-.34.9.9 0 0 1-.16-.77l.54-2.67a1.26 1.26 0 0 1 1.2-.94h1.58a.92.92 0 0 1 .73.32.93.93 0 0 1 .18.78l-.55 2.65a1.24 1.24 0 0 1-1.17 1zm1.1-1.7l.26-1.37-.26 1.38zM22.16 20.55a.4.4 0 0 1-.27-.67l4-3.78a.4.4 0 0 1 .26-.1h.7a.4.4 0 0 1 .27.66l-4 3.78a.38.38 0 0 1-.27.1zM23.3 20.55a.4.4 0 0 1-.28-.67l5.48-5.3a.4.4 0 0 1 .27-.1H30a.4.4 0 0 1 .27.67l-5.48 5.3a.38.38 0 0 1-.28.1zM23.6 23.25a.4.4 0 0 1-.4-.4v-1.32a.4.4 0 0 1 .12-.28l5-4.83a.4.4 0 0 1 .27-.1.37.37 0 0 1 .14 0 .4.4 0 0 1 .24.35V18a.4.4 0 0 1-.12.28l-5 4.82a.4.4 0 0 1-.27.15zM23.6 24.53a.4.4 0 0 1-.16 0 .4.4 0 0 1-.24-.36v-.9a.4.4 0 0 1 .1-.27l3.82-3.8a.4.4 0 0 1 .67.28v.9a.4.4 0 0 1-.12.28l-3.8 3.8a.38.38 0 0 1-.3.07zM26.56 22a.4.4 0 0 1-.27-.67l1.57-1.53a.4.4 0 0 1 .27-.1H30l-1.15-1a.87.87 0 0 1-.23-.74v-.8a.72.72 0 0 1 .17-.5.9.9 0 0 1 .7-.27h3.68a.4.4 0 0 1 .3.14.4.4 0 0 1 .08.33l-.23 1a.4.4 0 0 1-.38.3h-1.82l1.46 1.25a1 1 0 0 1 .25.9c-.08.34-.26 1-.28 1a.85.85 0 0 1-.83.67h-5.18zM43.77 14.55a.4.4 0 0 1-.22-.07l-11.38-7.6-.67.5 9.58 6.47a.4.4 0 0 1-.22.7h-11.8a.38.38 0 0 1-.22-.05l-4.22-2.77v2.44a.4.4 0 0 1-.4.4H10.57a.4.4 0 0 1-.22-.08L.17 7.6a.4.4 0 0 1 0-.6L10.27.07A.4.4 0 0 1 10.5 0h11a.4.4 0 0 1 .22.7l-8 5.63 3.2 2.1V5a.4.4 0 0 1 .17-.32L24 .08a.4.4 0 0 1 .6.3v2.54L28.7.07a.4.4 0 0 1 .24-.07h7.12a.4.4 0 0 1 .22.07l3.88 2.68V.4a.4.4 0 0 1 .4-.4h7a.4.4 0 0 1 .38.4v13.76a.4.4 0 0 1-.4.4z"/><path fill="#0c1e58" d="M24.23 14.16V11l4.82 3.16h11.82L30.83 7.4l1.33-1 11.6 7.76h3.78V.4h-7v3.1L36.07.4h-7.12l-4.7 3.27V.4l-6.95 4.65v4.1L13 6.36 21.5.38h-11L.4 7.27l10.16 6.88h13.67z"/><path fill="#ed2128" d="M11.53 17.7h-1.6a.85.85 0 0 0-.8.63L8.6 21a.5.5 0 0 0 .5.64h1.6a.87.87 0 0 0 .8-.64l.5-2.67a.5.5 0 0 0-.5-.64zm-1 2.88a.24.24 0 0 1-.22.13h-.4c-.1 0-.18-.05-.17-.12l.36-1.9a.2.2 0 0 1 .2-.13h.44c.1 0 .17.06.15.13zM17.8 17.7h-1.6a.86.86 0 0 0-.8.63L14.86 21a.5.5 0 0 0 .5.64H17a.84.84 0 0 0 .8-.64l.54-2.65a.5.5 0 0 0-.5-.64zm-1 2.88c0 .07-.1.13-.2.13h-.45c-.1 0-.17-.05-.16-.12l.35-1.9a.2.2 0 0 1 .2-.13H17c.1 0 .18.06.15.13zM12.08 17.7v.1a.63.63 0 0 1 .1.55s0 .08 0 .2h.93l-.6 3.05h1.2l.63-3.06h.9l.23-.86zM6.93 16.76l-2 2.8-1.2-2.8h-2.2l-.9.84H1.9l-.86 4H2.7l.5-2.35.93 2.36H5.3l1.56-2.3-.5 2.3h1.65l1.05-4.84H6.93zM21.17 19.83h.2a.28.28 0 0 0 .33-.25l.3-1.25a.5.5 0 0 0-.5-.64h-3v.07a.62.62 0 0 1 .1.56s0 .08 0 .2h.32l-.6 3h1.23l.58-3h.6c.2 0 .15.13.15.13l-.13.73a.16.16 0 0 1-.12.14h-.6l1 2h1.22z"/><path fill="#0c1e58" d="M26.86 16.37h-.7l-4 3.8h.68l4.02-3.8zM30.04 14.87h-1.27l-5.48 5.3h1.26l5.48-5.3z"/><path fill="#ed2128" d="M28.6 18.04V16.7l-5 4.83v1.33l5-4.82zM27.4 20.34v-.9l-3.8 3.8v.9l3.8-3.8z"/><path fill="#0c1e58" d="M36 17.7h-2.44l-.77 3.9H34l.6-3h.6c.18 0 .15.13.15.13l-.13.73c0 .16-.18.15-.18.15h-.56c0 .18.3.2.3.2h1.16c.3 0 .33-.26.33-.26l.26-1.25a.5.5 0 0 0-.53-.6zM43.65 17.7v.1a.65.65 0 0 1 .1.55v.2h.93L44 21.6h1.22l.62-3.06h.9l.26-.86zM42.68 19.83h.2a.28.28 0 0 0 .32-.25l.26-1.25a.5.5 0 0 0-.52-.64h-3v.07a.7.7 0 0 1 .1.56 1.45 1.45 0 0 1 0 .2h.33l-.6 3H41l.58-3h.6c.2 0 .15.13.15.13l-.13.73c0 .1-.1.12-.13.14h-.62l1 2h1.24zM39.22 17.7h-1.58a.87.87 0 0 0-.8.63L36.28 21a.5.5 0 0 0 .5.64h1.6a.85.85 0 0 0 .8-.64l.55-2.65a.5.5 0 0 0-.53-.64zm-1 2.88a.2.2 0 0 1-.2.13h-.46c-.1 0-.18-.05-.15-.12l.36-1.9a.22.22 0 0 1 .2-.13h.45c.1 0 .2.06.17.13zM26.56 21.64l1.58-1.53h2.64s.14-.05 0-.2l-1.67-1.5c-.13-.12-.1-.42-.1-.42v-.82s-.04-.38.5-.38h3.7l-.24 1h-2.5s-.2.17-.05.3l1.93 1.63a.58.58 0 0 1 .14.55c-.1.35-.28 1-.28 1a.47.47 0 0 1-.46.36z"/></g></g></svg>