<svg xmlns="http://www.w3.org/2000/svg" viewBox="0 0 78.85 13.97"><title>Asset 20</title><g><g fill="#ec242a"><path d="M71.45 10.66h3V0h-3zM78.85 0v10.66h-3V0zM6.4 4.14H4V0H0v10.66h4v-5.3h2.4v5.3h4V0h-4zM25 4l-.24-.7H21.5v7.4h3.26V6.2c0-1 .62-1.5 1.15-1.5s1 .1 1 1.07v4.9h3.27v-4.8c0-2.7-3-3.75-5.18-1.9zm33.48 3.55L57 3.25h-2.27L53.2 7.74l-1.57-4.47h-4.36L45.7 7l-2.2-3.74h-3.72l4.38 7.5-.57 1.4c-.2.44-.68.46-.78 0a1.37 1.37 0 0 0-2.74 0A2 2 0 0 0 42.44 14a2.8 2.8 0 0 0 2.45-2l3.6-8.76 2.62 7.37h2.38L55 6.4l1.5 4.26h2.2l2.53-7.4h-1.3l-1.45 4.3zM16 2.88A4.34 4.34 0 0 0 11.45 7 4.34 4.34 0 0 0 16 11.17 4.34 4.34 0 0 0 20.5 7 4.34 4.34 0 0 0 16 2.88zM17.1 9a1.12 1.12 0 0 1-2.26 0V5.1a1.12 1.12 0 1 1 2.25 0zM40.14 7.62a4.85 4.85 0 0 0 0-.6 4.34 4.34 0 0 0-4.52-4.13A4.34 4.34 0 0 0 31.14 7a4.34 4.34 0 0 0 4.52 4.14 4.6 4.6 0 0 0 4-2.17l-1-.37a3.53 3.53 0 0 1-3 1.54A1.2 1.2 0 0 1 34.54 9V7.62h5.6zm-5.6-2.53a1.12 1.12 0 0 1 2.25 0v1.46h-2.26zM70.3 7.6a4.85 4.85 0 0 0 0-.6 4.53 4.53 0 0 0-9 0 4.34 4.34 0 0 0 4.53 4.15A4.6 4.6 0 0 0 69.8 9l-1-.37a3.53 3.53 0 0 1-3 1.54A1.2 1.2 0 0 1 64.7 9V7.62h5.6zM64.7 5.1a1.12 1.12 0 0 1 2.26 0v1.46H64.7z"/></g></g></svg>