<svg xmlns="http://www.w3.org/2000/svg" viewBox="0 0 82.97 9.64"><title>Asset 18</title><g><g><path fill="#1f2858" d="M81.8 2.76v.35h.2a.38.38 0 0 0 .2 0 .14.14 0 0 0 .06-.12.15.15 0 0 0-.07-.14.4.4 0 0 0-.22 0h-.18zm-.24-.15H82a.68.68 0 0 1 .36.1.25.25 0 0 1 .12.22.3.3 0 0 1-.07.2.32.32 0 0 1-.18.1l.25.5h-.27l-.2-.46h-.2v.46h-.24v-1.1zm.44-.26a.87.87 0 0 0-.33.06.84.84 0 0 0-.27.18.9.9 0 0 0-.2.28.82.82 0 0 0 0 .64.85.85 0 0 0 .2.27.88.88 0 0 0 .27.2A.8.8 0 0 0 82 4a.9.9 0 0 0 .3 0 .87.87 0 0 0 .27-.18.8.8 0 0 0 .2-.27.77.77 0 0 0 .06-.32.88.88 0 0 0-.06-.33.82.82 0 0 0-.18-.28.9.9 0 0 0-.3-.2.86.86 0 0 0-.3-.08m0-.15a1 1 0 0 1 .4.07 1 1 0 0 1 .53.54 1 1 0 0 1 0 .77.94.94 0 0 1-.22.32 1 1 0 0 1-.32.2 1 1 0 0 1-.38.1 1 1 0 0 1-.4-.1 1 1 0 0 1-.32-.2 1 1 0 0 1-.28-.34 1 1 0 0 1 0-.38 1 1 0 0 1 0-.38 1 1 0 0 1 .23-.33 1 1 0 0 1 .32-.2 1 1 0 0 1 .45-.08"/><path fill="#1f2858" d="M66.35 4.76a3.24 3.24 0 0 0-1.5-.5c-.22 0-.7-.06-1.43-.1a4.26 4.26 0 0 1-1-.15c-.28-.08-.4-.23-.4-.43s.12-.34.38-.45a3.16 3.16 0 0 1 1.2-.18 7.2 7.2 0 0 1 2.85.57s0 0 0-.04v-.88s0-.07 0-.08a8.53 8.53 0 0 0-2.83-.5 3.84 3.84 0 0 0-2 .43 1.36 1.36 0 0 0-.72 1.2 1.1 1.1 0 0 0 .64 1.06 5.4 5.4 0 0 0 1.84.34 14.2 14.2 0 0 1 1.78.18c.4.1.6.3.6.6a.67.67 0 0 1-.46.6 3.14 3.14 0 0 1-1.4.23 5.84 5.84 0 0 1-2.9-.73s0 0 0 .08v.8s0 .1 0 .1a5.14 5.14 0 0 0 2.93.72 4.2 4.2 0 0 0 2.15-.46 1.48 1.48 0 0 0 .77-1.32 1.23 1.23 0 0 0-.5-1m12.88-2.67a.08.08 0 0 0-.08.08V6.1l-3.28-3.85-.06-.07h-1.1a.08.08 0 0 0-.08.08V7.4a.08.08 0 0 0 .08.07h.85a.08.08 0 0 0 .08-.08v-4s0-.06 0 0l3.43 4a.2.2 0 0 0 .13.05h.83a.08.08 0 0 0 .08-.08V2.25a.08.08 0 0 0-.07-.08h-.85zm-7 4a2.32 2.32 0 0 1-1.6.53A2.36 2.36 0 0 1 69 6.17a1.66 1.66 0 0 1-.65-1.36A1.66 1.66 0 0 1 69 3.47a2.64 2.64 0 0 1 3.1-.07 1.67 1.67 0 0 1 .76 1.4 1.67 1.67 0 0 1-.64 1.36m.6-3.45a3.4 3.4 0 0 0-2.17-.7 3.44 3.44 0 0 0-2.2.7 2.5 2.5 0 0 0-1.1 2.1 2.5 2.5 0 0 0 1.08 2.1 3.85 3.85 0 0 0 4.42 0 2.5 2.5 0 0 0 1.08-2.1 2.52 2.52 0 0 0-1.1-2.1m-13.7 3.4l-3.3-3.85-.06-.07h-1.1a.08.08 0 0 0-.08.08V7.4a.08.08 0 0 0 .07.07h.85a.08.08 0 0 0 .08-.08v-4s0-.06 0 0l3.43 4a.2.2 0 0 0 .13.05H60a.08.08 0 0 0 .08-.08V2.25a.08.08 0 0 0-.08-.08h-.85a.08.08 0 0 0-.08.08V6.1zM52.5 7.4a.08.08 0 0 0 .08.07h.85a.08.08 0 0 0 .08-.08V2.24a.08.08 0 0 0-.07-.08h-.85a.08.08 0 0 0-.08.08zm-2.1-3.35a.08.08 0 0 1-.07.08h-3.1a.08.08 0 0 1-.07-.08v-1.8a.08.08 0 0 0-.08-.08h-.85a.08.08 0 0 0-.08.08V7.4a.08.08 0 0 0 .08.07h.85a.08.08 0 0 0 .08-.08V5.1a.08.08 0 0 1 .08-.1h3.1a.08.08 0 0 1 .07.08v2.3a.08.08 0 0 0 .1.1h.84a.08.08 0 0 0 .08-.1V2.26a.08.08 0 0 0-.08-.08h-.85a.08.08 0 0 0-.1.08zm-9.8-.6a2.7 2.7 0 0 1 1.74-.52 2.86 2.86 0 0 1 2.2.83s0 0 .08 0l.77-.27s.05 0 0-.07A3.7 3.7 0 0 0 42.33 2a3.8 3.8 0 0 0-2.33.7 2.5 2.5 0 0 0-1.1 2.1A2.52 2.52 0 0 0 40 6.9a3.84 3.84 0 0 0 2.35.7 4.72 4.72 0 0 0 1.73-.28 3.5 3.5 0 0 0 1.33-1s0 0 0-.07l-.72-.4s-.06 0-.08 0a2.85 2.85 0 0 1-2.15.85 2.93 2.93 0 0 1-1.78-.52A1.66 1.66 0 0 1 40 4.8a1.65 1.65 0 0 1 .66-1.34m-1.83-1.2a.08.08 0 0 0-.08-.1h-5.3a.08.08 0 0 0-.07.1V3a.08.08 0 0 0 .08.08h2.07a.08.08 0 0 1 .08.08V7.4a.08.08 0 0 0 .1.07h.84a.08.08 0 0 0 .08-.08V3.14a.08.08 0 0 1 .08-.08h2.07a.08.08 0 0 0 .06-.07zm-7.3 3.2a1 1 0 0 1-.5.93 2.43 2.43 0 0 1-1.4.3 2.47 2.47 0 0 1-1.38-.3 1 1 0 0 1-.5-.95v-3.2a.08.08 0 0 0-.1-.08h-.84a.08.08 0 0 0-.07.08v3.4a1.6 1.6 0 0 0 .83 1.44 3.63 3.63 0 0 0 2.07.52 3.56 3.56 0 0 0 2.06-.53 1.56 1.56 0 0 0 .82-1.45v-3.4a.08.08 0 0 0-.08-.08h-.84a.08.08 0 0 0-.08.08v3.2zm-6.7-1.4a.08.08 0 0 1-.1.08h-3.07a.08.08 0 0 1-.08-.08v-1.8a.08.08 0 0 0-.08-.1h-.85a.08.08 0 0 0-.08.1v5.13a.08.08 0 0 0 .08.07h.85a.08.08 0 0 0 .08-.08V5.1a.08.08 0 0 1 .08-.1h3.1a.08.08 0 0 1 .07.08v2.3a.08.08 0 0 0 .08.1h.86a.08.08 0 0 0 .08-.1V2.26a.08.08 0 0 0-.08-.08h-.86a.08.08 0 0 0-.08.08z"/><path fill="#1f2858" d="M16.74 9.64H17V0h-.27z"/><path fill="#df1f28" d="M6.34 9.36A1.3 1.3 0 0 0 8 9.26l4.64-4.82c.3-.37.43-1.62-1.18-1.62h-3.7a1.56 1.56 0 0 0-.96.43l-.94 1c-.1.1-.13.14-.1.2s0 0 .13 0h2.83c.94 0 1 0 1.06.2s0 .28-.24.53L7.72 7.05a.85.85 0 0 1-.6.25.82.82 0 0 1-.56-.22L4.88 5.53A.8.8 0 0 1 4.62 5a.82.82 0 0 1 .22-.6L6.8 2.3A1.82 1.82 0 0 1 8 1.74h4.23a1.7 1.7 0 0 0 1-.4L14.4.17c.08-.1.13-.15.12-.16s0 0-.13 0H7a1.5 1.5 0 0 0-1 .43l-3.7 4.2a.52.52 0 0 0 0 .74l4 4zM.14 2.82c-.1 0-.14 0-.14 0S0 2.9.12 3l1.14 1.12a.5.5 0 0 0 .7 0l.9-1C3 2.92 3 2.9 3 2.86s0 0-.14 0z"/></g></g></svg>