<svg xmlns="http://www.w3.org/2000/svg" viewBox="0 0 62.06 24.75"><title>Asset 15</title><g><g fill="#1e439b"><path d="M28.28 20.32h.53v3.94h-.52z"/><path fill-rule="evenodd" d="M29.3 24.26l1.55-3.94h.57l1.65 3.94h-.6l-.47-1.2h-1.68l-.44 1.2zm1.17-1.62h1.36l-.42-1.1c-.12-.32-.2-.6-.27-.8a5 5 0 0 1-.22.74zM33.5 24.26v-3.94h1.8a2.42 2.42 0 0 1 .8.1.87.87 0 0 1 .46.38 1.1 1.1 0 0 1 .17.6 1 1 0 0 1-.28.7 1.4 1.4 0 0 1-.86.38 1.37 1.37 0 0 1 .3.2 2.77 2.77 0 0 1 .45.52l.7 1.07h-.67l-.53-.82c-.16-.24-.3-.42-.4-.54a1.07 1.07 0 0 0-.26-.25.74.74 0 0 0-.25-.1H34v1.74zm.54-2.2h1.14a1.75 1.75 0 0 0 .57-.07.6.6 0 0 0 .3-.24.65.65 0 0 0 .12-.35.6.6 0 0 0-.2-.45 1 1 0 0 0-.67-.18H34zM39.1 24.26v-3.94h1.5a1.9 1.9 0 0 1 .75.12 1 1 0 0 1 .6.9.86.86 0 0 1-.15.46 1 1 0 0 1-.43.36 1 1 0 0 1 .56.36 1 1 0 0 1 .2.6 1.1 1.1 0 0 1-.12.5 1 1 0 0 1-.28.38 1.22 1.22 0 0 1-.44.2 2.74 2.74 0 0 1-.65.06zm.53-2.26h.87a2 2 0 0 0 .5 0 .56.56 0 0 0 .32-.2.56.56 0 0 0 .1-.34.64.64 0 0 0-.1-.34.5.5 0 0 0-.27-.2 2.43 2.43 0 0 0-.6-.06h-.8V22zm0 1.82H41a.9.9 0 0 0 .3-.1.57.57 0 0 0 .2-.23.67.67 0 0 0 .08-.34.64.64 0 0 0-.12-.38.62.62 0 0 0-.32-.23 2 2 0 0 0-.6-.07h-.92zM42.88 24.26v-3.94h1.78a2.43 2.43 0 0 1 .82.1.87.87 0 0 1 .45.38 1.1 1.1 0 0 1 .17.6 1 1 0 0 1-.28.7 1.42 1.42 0 0 1-.86.38 1.36 1.36 0 0 1 .32.2 2.86 2.86 0 0 1 .44.52l.7 1.07h-.67l-.53-.82c-.16-.24-.28-.42-.38-.54a1.2 1.2 0 0 0-.27-.25.76.76 0 0 0-.24-.1H43.43v1.74zm.53-2.2h1.16a1.75 1.75 0 0 0 .57-.07.6.6 0 0 0 .3-.24.64.64 0 0 0 .12-.35.6.6 0 0 0-.2-.45 1 1 0 0 0-.66-.18h-1.3zM46.48 24.26L48 20.32h.57l1.65 3.94h-.6l-.48-1.2H47.5l-.5 1.2zm1.16-1.62H49l-.42-1.1c-.13-.32-.22-.6-.3-.8a4.84 4.84 0 0 1-.2.74zM50.5 23h.5a1.07 1.07 0 0 0 .16.48.9.9 0 0 0 .4.3 1.56 1.56 0 0 0 .63.13 1.5 1.5 0 0 0 .53-.08.75.75 0 0 0 .35-.24.57.57 0 0 0 .1-.34.5.5 0 0 0-.1-.32.8.8 0 0 0-.36-.23 7 7 0 0 0-.72-.2 3.7 3.7 0 0 1-.78-.24 1.08 1.08 0 0 1-.43-.37.88.88 0 0 1-.15-.5 1 1 0 0 1 .17-.56 1.06 1.06 0 0 1 .5-.4 1.92 1.92 0 0 1 .75-.13 2.05 2.05 0 0 1 .8.15 1.14 1.14 0 0 1 .52.4 1.17 1.17 0 0 1 .2.63h-.52a.8.8 0 0 0-.28-.56 1.1 1.1 0 0 0-.7-.2 1.13 1.13 0 0 0-.7.2.5.5 0 0 0-.22.4.44.44 0 0 0 .16.36 2.2 2.2 0 0 0 .8.28 5.27 5.27 0 0 1 .9.25 1.2 1.2 0 0 1 .52.4 1 1 0 0 1 .17.57 1 1 0 0 1-.18.6 1.2 1.2 0 0 1-.53.42 1.85 1.85 0 0 1-.77.14 2.37 2.37 0 0 1-.9-.16 1.26 1.26 0 0 1-.6-.47 1.3 1.3 0 0 1-.25-.7zM54.26 22.34a2.12 2.12 0 0 1 .54-1.54 1.85 1.85 0 0 1 1.4-.55 1.94 1.94 0 0 1 1 .26 1.7 1.7 0 0 1 .67.74 2.47 2.47 0 0 1 0 2.13 1.67 1.67 0 0 1-.7.72 2 2 0 0 1-1 .23 1.93 1.93 0 0 1-1-.27 1.73 1.73 0 0 1-.68-.73 2.17 2.17 0 0 1-.24-1zm.55 0a1.56 1.56 0 0 0 .4 1.12 1.38 1.38 0 0 0 2 0 1.65 1.65 0 0 0 .4-1.17 2 2 0 0 0-.18-.85 1.25 1.25 0 0 0-.5-.56 1.34 1.34 0 0 0-.7-.2 1.38 1.38 0 0 0-1 .37 1.67 1.67 0 0 0-.4 1.28zM59.94 24.26l-1.56-3.94H59l1 2.86c.1.23.16.44.2.64.07-.22.14-.43.23-.64l1.1-2.86h.53l-1.58 3.94zM4.83 0h2.64l-4.9 12.48H0L4.83 0zM18.88 0h-2.5L3.72 12.48h1.3l9.9-9.68-3.9 9.68h2.8L18.87 0zM26.58 0h-6.34L14.8 12.48h2.92l.87-2.16h.3l2.38 2.16h2.32l-3.3-3H24a1.7 1.7 0 0 0 1.6-1.05c.6-1.48 1.9-4.4 2.47-5.9A1.86 1.86 0 0 0 26.57 0zm-.76 1.92c-.2.55-2.17 5.2-2.53 6-.22.48-.7.5-1.24.5h-2.6V8l3.07-7h2.84c.63 0 .53.68.45.92zM3.85 13.75h1.57l15.33 6.68-9.43-6.68h2.75l13.76 11-23.98-11zM53.54 15.24a.67.67 0 0 0 .1-.36s0-.06 0-.1a7.6 7.6 0 0 1 1.62-.6L54.8 14l-1.34.45a.7.7 0 0 0-.5-.22v-1.65l-.46.23v1.57L51.1 14v.46l1.16.46s-.83.7-1.15.7a57 57 0 0 1-6.23-.47c-.33 0-.46-.7-.92-.7H42.8v-.22h-.93v-.33l6.93-.37V13l-13.16.7v.45l5.77-.3v.54h-1.15v.22h-.92c-.52 0-.6.6-.7.7-.54.45-2.08.68-2.08 1.38 0 .93.65 1 1.15 1.16a34.7 34.7 0 0 0 6.93 0c.7-.23 1.8-1 2.3-1.16 1.4-.23 4.63 0 5.1-.23s.43-.4.77-.94h.14a.66.66 0 0 0 .2 0l1 1 .23-.46z"/><circle cx="38.17" cy="18.12" r=".23"/><circle cx="42.79" cy="18.12" r=".23"/></g></g></svg>