<svg xmlns="http://www.w3.org/2000/svg" viewBox="0 0 79.19 14.7"><title>Asset 4</title><g><g fill-rule="evenodd"><path fill="#fff" d="M8.84 14.17v-.62h.2a.52.52 0 0 0 .5-.55 10.86 10.86 0 0 0-1.42-3.84 20.9 20.9 0 0 0-2.52-3.4L4 7.1v4.24c0 1.26 0 2.1 1 2.2h.2v.63H0v-.62h.2c1-.16 1.1-.9 1.1-2.06v-8c0-1.23-.08-2-1.1-2.2H0v-.7h5.26v.62H5c-1 .1-1 .85-1 2.07V5.2l1.3-1.05.15-.15C7.07 2.7 7.9 1.83 7.9 1.45c0-.14 0-.2-.34-.25h-.2V.56h5.27v.64h-.22a5.88 5.88 0 0 0-3.34 1.7l-.25.2L7.53 4.2a18.58 18.58 0 0 1 4.28 6.67l.38.9.1.26c.26.67.55 1.42 1.23 1.5h.22v.63z"/><path fill="#de1f27" d="M1.53 3.4c0-1.1 0-2.22-1.3-2.42v-.2H5V1c-1.28.12-1.3 1.18-1.3 2.3v2.4l1.75-1.37C6 3.85 8.12 2.2 8.12 1.45c0-.36-.22-.44-.54-.48V.8h4.8V1c-1.55.1-2.6 1-3.72 2l-1.5 1.17a18.16 18.16 0 0 1 4.4 6.77l.4.92c.3.74.6 1.78 1.5 1.9v.18H9.1v-.18a.75.75 0 0 0 .7-.78A11.07 11.07 0 0 0 8.32 9a21.45 21.45 0 0 0-2.7-3.6L3.72 7v4.35c0 1.14 0 2.32 1.3 2.44v.17H.25v-.18c1.28-.2 1.3-1.23 1.3-2.3z"/><path fill="#fff" d="M23.56 14.33a.4.4 0 0 0-.25-.15 3.88 3.88 0 0 0-.42 0h-9.4v-.65h.24a1.23 1.23 0 0 0 .76-.4 2.74 2.74 0 0 0 .3-1.66v-8c0-1.23-.07-2-1.1-2.2h-.2v-.7h9a.9.9 0 0 0 .67-.2l.3-.27 1 4.62-.56.2-.1-.2A5 5 0 0 0 19 1.95c-1.28 0-1.6.14-1.6 1.44v.9h1.75a1.94 1.94 0 0 0 1.38-.3.85.85 0 0 0 .2-.65v-.2l.6-.2.87 4.94-.58.2-.07-.23C20.88 5.7 19.8 5.7 17.68 5.7h-.24v5.12c0 1.5 0 2 1.82 2A5.94 5.94 0 0 0 25 9.06l.1-.18.62.2-1.9 5.62z"/><path fill="#de1f27" d="M17.2 10.82c0 1.56 0 2.2 2.06 2.2a6.2 6.2 0 0 0 6-3.85l.2.06-1.7 5a.65.65 0 0 0-.4-.24 3.8 3.8 0 0 0-.48 0H13.7v-.2a1.47 1.47 0 0 0 .95-.47 2.9 2.9 0 0 0 .35-1.87v-8c0-1.08 0-2.23-1.3-2.43V.8h8.55a1.45 1.45 0 0 0 1.08-.25l.9 4-.16.06a5.23 5.23 0 0 0-5-2.9c-1.38 0-1.84.22-1.84 1.67v1.16h1.54c.94 0 2.26.12 2.22-1.2l.17-.06.78 4.47-.16.06c-.7-2.34-2-2.34-4.08-2.34h-.52z"/><path fill="#fff" d="M35.6 14.17v-.63h.2c1-.1 1.1-.86 1.1-2.06V3l-4.15 6.72L29 3.06v8.25c0 1.28.07 2.12 1.08 2.2h.2v.64h-4.4v-.62h.2c1-.15 1.1-.88 1.1-2.06v-8c0-1.24-.08-2.06-1.1-2.2h-.2v-.7h5.53v.6h-.17c-.08 0-.13.05-.15.1s0 .23.22.7l2.1 3.83 2.06-3.36c.15-.25.57-.93.47-1.17 0 0 0-.07-.2-.1h-.17v-.6h5.28v.6h-.2c-1 .17-1.1.9-1.1 2.07v8c0 1.23.08 2 1.1 2.2h.2v.62z"/><path fill="#de1f27" d="M28.72 2.17v9.15c0 1.14 0 2.32 1.3 2.44v.18h-3.9v-.18c1.3-.18 1.3-1.2 1.3-2.3v-8c0-1.1 0-2.26-1.3-2.43V.8h5.06V1c-.48.12-.4.54-.08 1.14l2.3 4.2 2.28-3.7c.5-.82.8-1.48.14-1.64V.8h4.8V1c-1.27.2-1.3 1.22-1.3 2.3v8c0 1.1 0 2.23 1.3 2.44v.18h-4.8v-.18c1.3-.14 1.3-1.18 1.3-2.3V2.17l-4.36 7.1z"/><path fill="#fff" d="M44.5 14.17v-.64h.23c1 0 1.07-.68 1.07-2.06v-9.4c-2.27.05-3.58.85-4.26 2.56l-.08.2-.6-.2L42 0l.3.34a.6.6 0 0 0 .4.18h8.67c.32 0 .5-.05.6-.18l.3-.4 1.13 4.7-.6.2-.08-.2c-.67-1.73-2-2.52-4.26-2.57v9.27c0 1.33.07 2.15 1.07 2.18h.23v.64z"/><path fill="#de1f27" d="M48.23 11.34c0 1.22 0 2.38 1.3 2.42v.18h-4.8v-.18c1.28 0 1.3-1.1 1.3-2.3V1.83c-2.44 0-4 .78-4.7 2.72l-.2-.06 1-4a.8.8 0 0 0 .55.25c.22 0 .46 0 .64 0H51c.38 0 .92.08 1.18-.26l1 4-.18.05c-.76-1.94-2.28-2.72-4.7-2.72z"/><path fill="#fff" d="M63.5 14.33a.4.4 0 0 0-.26-.15 3.86 3.86 0 0 0-.43 0h-9.4v-.65h.24a1.23 1.23 0 0 0 .75-.4 2.74 2.74 0 0 0 .3-1.66v-8c0-1.23-.08-2-1.1-2.2h-.2v-.7h9a.9.9 0 0 0 .7-.2l.3-.27 1 4.6-.56.22-.1-.2A5 5 0 0 0 59 1.94c-1.28 0-1.6.14-1.6 1.44v.9h1.75a1.94 1.94 0 0 0 1.3-.3.85.85 0 0 0 .2-.65v-.2l.6-.2.87 4.94-.58.2-.07-.23C60.8 5.7 59.74 5.7 57.6 5.7h-.23v5.12c0 1.5 0 2 1.82 2A6 6 0 0 0 65 9.06l.1-.18.62.2-1.96 5.62z"/><path fill="#de1f27" d="M57.13 10.82c0 1.56 0 2.2 2.06 2.2a6.2 6.2 0 0 0 6-3.85l.2.06-1.7 5a.65.65 0 0 0-.4-.24 3.77 3.77 0 0 0-.5 0h-9.16v-.2a1.46 1.46 0 0 0 .94-.47 2.9 2.9 0 0 0 .36-1.82v-8c0-1.07 0-2.22-1.3-2.42v-.3h8.54a1.45 1.45 0 0 0 1.08-.23l.9 4-.16.08a5.23 5.23 0 0 0-5-2.9c-1.38 0-1.84.2-1.84 1.66v1.13h1.54c.94 0 2.26.12 2.22-1.2l.18-.06.78 4.47-.16.06c-.7-2.34-2-2.34-4.07-2.34h-.48z"/><path fill="#fff" d="M73.92 14.17v-.63h.2c1-.1 1.1-.93 1.1-2.2V7.08l-1.63-1.3a20.74 20.74 0 0 0-2.53 3.38A10.78 10.78 0 0 0 69.65 13a.52.52 0 0 0 .5.55h.2v.62h-4.87v-.62h.2c.7-.1 1-.84 1.24-1.5l.1-.25.38-.92a18.54 18.54 0 0 1 4.27-6.67l-1.3-1.1-.24-.2a5.88 5.88 0 0 0-3.34-1.7h-.23V.57h5.28v.62h-.2c-.34 0-.34.1-.34.25 0 .38.83 1.24 2.45 2.57l.15.13 1.33 1.07V3.27c0-1.22-.07-2-1.08-2.06h-.2V.57h5.25v.62H79c-1 .16-1.1 1-1.1 2.2v8c0 1.18.07 1.9 1.1 2.06h.2v.62z"/><path fill="#de1f27" d="M77.65 11.46c0 1.08 0 2.1 1.3 2.3v.18h-4.8v-.18c1.3-.12 1.3-1.3 1.3-2.44V7l-1.9-1.52A21.3 21.3 0 0 0 70.88 9a11 11 0 0 0-1.46 4 .75.75 0 0 0 .7.78v.18h-4.38v-.18c.92-.12 1.22-1.16 1.52-1.9l.38-.92A18.14 18.14 0 0 1 72 4.16l-1.5-1.23C69.4 2 68.35 1.07 66.8 1V.8h4.8V1c-.32 0-.54.12-.54.48 0 .74 2.1 2.4 2.68 2.88l1.72 1.38V3.27c0-1.12 0-2.18-1.3-2.3V.8H79V1c-1.28.2-1.3 1.34-1.3 2.43z"/></g></g></svg>