<svg xmlns="http://www.w3.org/2000/svg" viewBox="0 0 31.95 33.61"><defs><style>.cls-1{fill:#fff;}.cls-2{fill:#0096b9;}.cls-10,.cls-11,.cls-12,.cls-13,.cls-2,.cls-3,.cls-4,.cls-5,.cls-6,.cls-7,.cls-8,.cls-9{fill-rule:evenodd;}.cls-3{fill:#006183;}.cls-4{fill:#0071a7;}.cls-5{fill:#f7f5f5;}.cls-6{fill:#3c91b5;}.cls-7{fill:#00517f;}.cls-8{fill:#49b2c9;}.cls-9{fill:#004260;}.cls-10{fill:#4d91a4;}.cls-11{fill:#2a7e96;}.cls-12{fill:#aaadae;}</style></defs><title>Asset 2</title><g id="Layer_2"><g id="Layer_1-2"><path d="M0 0h31.95v33.6H0z" class="cls-1"/><path d="M18.84 9.54l-8 6.54v.07l8.1 3.14 8.6 3.23L9.36 16.4 19.5 9l-.68.55zM8 16.5l20.63 6.63-9.3-15z" class="cls-2"/><path d="M3.47 23.48l3.23-5.73 17.85 5.35c-1.55-.1-10-2.8-12.22-3.42L7.76 18.4c-.92-.24-.72-.4-1.2.32-.27.4-3 4.72-3.1 4.75zm2.9-6.26l.2.4L3 23.77H27.45L6.48 17z" class="cls-3"/><path d="M15.4 1.4l.12.74-6 11.3v.02l8.24-5.6v.02l-9.4 6.75-.27.36 10.8-7.64v-.03L15.47 1.3l-.06.1z" class="cls-4"/><path d="M18.92 19.3l-8.22-3.13v-.07l8.14-6.56.7-.55-.03-.04L9.38 16.4l18.15 6.13-8.6-3.24z" class="cls-5"/><path d="M7.2 16.02L8.1 15l.27-.37 7.35-12.87-.26-.45-8.5 14.88.24-.16z" class="cls-6"/><path d="M15.46 1.3l3.45 6.03v.03L8.1 15 7.2 16l12.22-8.6-3.84-6.3h-.03l-.1.2z" class="cls-7"/><path d="M19.35 8.18l9.3 14.95.28.4.43.15-9.72-15.7-.3.2z" class="cls-3"/><path d="M28.93 23.53l-.3-.4-20.6-6.62-.14.13-.05.06.16.07v-.03.03l20.93 6.76z" class="cls-8"/><path d="M3.47 23.48c.1 0 2.83-4.36 3.1-4.75.48-.74.28-.57 1.2-.3l4.57 1.27c2.18.6 10.66 3.3 12.2 3.4L6.7 17.75zM8.37 14.63l9.4-6.75-8.24 5.58H9.5l6.02-11.32-7.15 12.5z" class="cls-5"/><path d="M6.47 17.03l21 6.8h-2.6 3.75l-22.15-6.8z" class="cls-9"/><path d="M2.78 23.44l-.18.34v.02h6.02l-5.6-.03 3.56-6.16.03-.18-.1-.04-3.72 6.06z" class="cls-10"/><path d="M2.78 23.44l3.72-6.06.1.04-.02.2-.2-.4-3.6 6.22z" class="cls-11"/><path d="M18.92 19.3l-8.1-3.15v-.07l8.02-6.54-8.15 6.56v.07l8.22 3.12z" class="cls-12"/><path d="M3.6 28.58c0 .22 0 .4 0 .58a3.14 3.14 0 0 1 0 .4.72.72 0 0 1 0 .17.12.12 0 0 1-.1.08h-.2s0 0 .07 0h1s.07 0 .07 0h-.28a.17.17 0 0 1-.16-.07.55.55 0 0 1 0-.17 3.67 3.67 0 0 1 0-.4c0-.17 0-.36 0-.58v-.44l.16.2.25.26.3.3.28.3.24.26.16.15.13.12.13.08.13.06h.78s0 0-.06 0H6.2l-.13-.07-.13-.1-.17-.14-.23-.22-.15-.14-.24-.23-.27-.27-.27-.27-.22-.22-.1-.2.1-.1.17-.18.22-.2.2-.25.18-.18.1-.1.15-.14.12-.1.1-.1.13-.06a.64.64 0 0 1 .22-.06s0 0-.07 0h-.7s-.05 0-.05 0a.1.1 0 0 1 .06.1.24.24 0 0 1-.07.14L5 27l-.13.14-.2.2-.23.25-.23.22-.13.18-.1.1H4v-1c0-.1 0-.1 0-.18s0-.08 0-.1a.42.42 0 0 1 0-.2.17.17 0 0 1 .12-.07h.1s0 0-.06 0h-.9s-.06 0-.06 0h.15a.2.2 0 0 1 .15.08.4.4 0 0 1 0 .18s0 .08 0 .12 0 .1 0 .17v1.48zm3.3.2c0 .18 0 .34 0 .5a3 3 0 0 1 0 .33 1.07 1.07 0 0 1 0 .15.1.1 0 0 1-.1.07h-.15s0 0 .06 0h.9s.05 0 .05 0h-.23a.16.16 0 0 1-.12-.07.37.37 0 0 1 0-.14 3.08 3.08 0 0 1 0-.32c0-.14 0-.3 0-.5v-.1H7.87l.08.1.1.15.12.16.13.15.3.36a.84.84 0 0 0 .24.22.54.54 0 0 0 .16.06H9.58 9.4l-.18-.05a1 1 0 0 1-.22-.28c-.1-.12-.24-.27-.38-.43l-.45-.56a1.53 1.53 0 0 0 .38-.45 1 1 0 0 0 .1-.42.57.57 0 0 0 0-.18.77.77 0 0 0-.06-.15l-.1-.12-.08-.08A.85.85 0 0 0 8 27a2.7 2.7 0 0 0-.4 0h-1s-.05 0-.05 0h.14a.16.16 0 0 1 .12.06.4.4 0 0 1 0 .15s0 .07 0 .1 0 .1 0 .15v1.27zm.33-1.6h.28a.65.65 0 0 1 .5.2.8.8 0 0 1 .2.56.88.88 0 0 1-.08.37.5.5 0 0 1-.17.23.34.34 0 0 1-.15.06H7.26a.06.06 0 0 1 0-.06V27.2zm3.06.9v-.58c0-.06 0-.1 0-.14s0-.07 0-.1a.4.4 0 0 1 0-.15.15.15 0 0 1 .1-.05h.1s0 0-.06 0h-.8s-.06 0-.06 0h.12a.13.13 0 0 1 .1.06.37.37 0 0 1 0 .16s0 .06 0 .1 0 .08 0 .14v1.27c0 .2 0 .35 0 .5s0 .26 0 .34a.57.57 0 0 1 0 .15.1.1 0 0 1-.1.07s0 0 .05 0h.9s.05 0 .05 0h-.18a.14.14 0 0 1-.12-.07.52.52 0 0 1 0-.14 2.66 2.66 0 0 1 0-.33c0-.14 0-.3 0-.5v-.67zm1.64 1.86h.33a.73.73 0 0 0 .3-.1.77.77 0 0 0 .3-.32.83.83 0 0 0 .07-.34.8.8 0 0 0 0-.24.7.7 0 0 0-.1-.23 1.34 1.34 0 0 0-.2-.22 2.8 2.8 0 0 0-.3-.24l-.12-.08-.28-.16a1.1 1.1 0 0 1-.16-.15.48.48 0 0 1-.1-.15.55.55 0 0 1 0-.17.35.35 0 0 1 .17-.3.65.65 0 0 1 .37-.12h.23l.15.06.1.06V27.37a.8.8 0 0 1 0 .1s0 0 0-.1 0-.23 0-.3 0-.1 0-.1h-.56a1.25 1.25 0 0 0-.36.04.85.85 0 0 0-.28.15.65.65 0 0 0-.18.23.7.7 0 0 0-.06.3.72.72 0 0 0 .12.4 1.9 1.9 0 0 0 .45.42l.18.13.24.18a1.08 1.08 0 0 1 .16.16.54.54 0 0 1 .1.16.53.53 0 0 1 0 .2.5.5 0 0 1-.16.35.6.6 0 0 1-.45.15h-.2a.76.76 0 0 1-.2-.07.52.52 0 0 1-.15-.12.38.38 0 0 1-.1-.18.46.46 0 0 1 0-.08s0 0 0-.06 0 0 0 .07v.16c0 .07 0 .15 0 .25a.36.36 0 0 0 0 .1h.06a1 1 0 0 0 .3.08h.3zm3-2.78h.88a.2.2 0 0 1 .07.07.18.18 0 0 1 0 .08.24.24 0 0 0 0 .06s0 0 0-.07 0-.1 0-.13v-.13S16 27 16 27H13.6V27.43v-.07a.23.23 0 0 1 .13-.1 1.23 1.23 0 0 1 .28 0h.6v1.63c0 .2 0 .35 0 .5a3.1 3.1 0 0 1 0 .34.57.57 0 0 1 0 .14.1.1 0 0 1-.1.07h-.12s0 0 .06 0h.9s.07 0 .07 0h-.17a.16.16 0 0 1-.12-.07.4.4 0 0 1 0-.14c0-.08 0-.2 0-.34s0-.3 0-.5v-1.72zm1.44 1.27a1.7 1.7 0 0 0 .1.53 1.43 1.43 0 0 0 .76.85 1.63 1.63 0 0 0 .7.15 1.7 1.7 0 0 0 .65-.12 1.54 1.54 0 0 0 .5-.34 1.52 1.52 0 0 0 .32-.5 1.63 1.63 0 0 0 .12-.62 1.45 1.45 0 0 0-.12-.6 1.35 1.35 0 0 0-.33-.45 1.44 1.44 0 0 0-.5-.3 1.9 1.9 0 0 0-.64-.1 1.6 1.6 0 0 0-.7.16 1.53 1.53 0 0 0-.5.36 1.55 1.55 0 0 0-.38 1zm.4-.1a1.6 1.6 0 0 1 .1-.55 1.1 1.1 0 0 1 .24-.4 1 1 0 0 1 .36-.23 1.33 1.33 0 0 1 .46-.08 1.15 1.15 0 0 1 .45.1 1.1 1.1 0 0 1 .37.26 1.3 1.3 0 0 1 .26.44 1.8 1.8 0 0 1 .1.6 1.62 1.62 0 0 1-.12.68 1.07 1.07 0 0 1-.28.4.9.9 0 0 1-.35.2 1.27 1.27 0 0 1-.32 0 1.22 1.22 0 0 1-.5-.1 1.16 1.16 0 0 1-.4-.3 1.4 1.4 0 0 1-.27-.46 1.84 1.84 0 0 1-.1-.6zM7.15 32.5h.23v-.07a.24.24 0 0 0 0-.05v-.07.11a.17.17 0 0 1-.08.06h-.15a.5.5 0 0 1-.2 0 .47.47 0 0 1-.15-.1.48.48 0 0 1-.1-.15.46.46 0 0 1 0-.17.66.66 0 0 1 0-.18.3.3 0 0 1 .1-.15h.51v.06a.2.2 0 0 1 0 .07v-.14h-.5l-.07.04-.07.1v.08a.52.52 0 0 0 0 .1.52.52 0 0 0 0 .07.68.68 0 0 0 0 .1.45.45 0 0 0 .08.18l.08.1a.53.53 0 0 0 .18.1.83.83 0 0 0 .14-.08zM8.3 31.7v.05l.08.1.1.1.1.12.12.1.1.12.1.07a.27.27 0 0 0 0-.05v-.8H9a.37.37 0 0 1 0 .1v.63-.05l-.07-.08-.1-.1-.1-.1-.14-.15-.14-.14-.1-.1a.16.16 0 0 0 0 .05v.74s0 .05 0 .07h.13s0 0 0-.08v-.6zm2.16.8h.23v-.07a.27.27 0 0 0 0-.05v-.07.11a.17.17 0 0 1-.1.06h-.12a.5.5 0 0 1-.2 0 .47.47 0 0 1-.14-.1.48.48 0 0 1-.1-.15.47.47 0 0 1-.04-.2.7.7 0 0 1 0-.18.3.3 0 0 1 .1-.15h.51v.06a.2.2 0 0 1 0 .07v-.14H9.93l-.07.05-.07.1v.1a.47.47 0 0 0 0 .08.43.43 0 0 0 0 .08.6.6 0 0 0 0 .1.37.37 0 0 0 0 .1.4.4 0 0 0 0 .1l.08.1a.55.55 0 0 0 .18.1.83.83 0 0 0 .26 0zm2.18 0h.2a.26.26 0 0 0 .1-.1.28.28 0 0 0 0-.2.25.25 0 0 0 0-.07l-.1-.13-.1-.08-.07-.06-.05-.05a.18.18 0 0 1 0-.04.12.12 0 0 1 .05-.1.2.2 0 0 1 .12 0H12.9v.08s0-.08 0-.1H12.5a.22.22 0 0 0-.05.08.23.23 0 0 0 0 .23.6.6 0 0 0 .15.14h.06l.07.05h.05v.05a.18.18 0 0 1 0 .18.2.2 0 0 1-.15 0h-.14a.1.1 0 0 1 0-.06v.05s0 .05 0 .08h.08zm1.05-.5a.52.52 0 0 0 0 .18.47.47 0 0 0 .08.16.48.48 0 0 0 .16.12.55.55 0 0 0 .23 0 .57.57 0 0 0 .22 0 .52.52 0 0 0 .16-.1.47.47 0 0 0 .1-.18.5.5 0 0 0 0-.2.52.52 0 0 0 0-.2.46.46 0 0 0-.1-.15.5.5 0 0 0-.17-.1.62.62 0 0 0-.22 0 .54.54 0 0 0-.24 0 .5.5 0 0 0-.16.13.52.52 0 0 0-.1.16.54.54 0 0 0 0 .17zm.13 0a.5.5 0 0 1 0-.18.38.38 0 0 1 .08-.13.32.32 0 0 1 .13-.1h.15a.4.4 0 0 1 .15 0 .36.36 0 0 1 .13.1.46.46 0 0 1 .1.15.6.6 0 0 1 0 .2.57.57 0 0 1 0 .23.37.37 0 0 1-.1.13.3.3 0 0 1-.13.07h-.1a.4.4 0 0 1-.18 0 .42.42 0 0 1-.13-.1.47.47 0 0 1-.1-.15.6.6 0 0 1 0-.2zm1.85-.08v-.28a.13.13 0 0 1 0-.05h-.23a.12.12 0 0 1 0 .04v.42c0 .06 0 .12 0 .17a1 1 0 0 1 0 .1H16v-.14a.1.1 0 0 1-.06 0h-.27a.3.3 0 0 1 0-.06s0-.05 0-.08v-.35zm1.1.2a.63.63 0 0 0 0 .1.34.34 0 0 0 0 .1V32.43l.1.05h.46a.25.25 0 0 0 .06-.1.46.46 0 0 0 0-.08.52.52 0 0 0 0-.1s0-.08 0-.12v-.38h-.2a.73.73 0 0 1 0 .08v.2a1 1 0 0 1 0 .18.28.28 0 0 1-.06.13.22.22 0 0 1-.1.08h-.2a.23.23 0 0 1-.1-.06v-.06a.52.52 0 0 1 0-.1 1 1 0 0 1 0-.1v-.4h-.23v.4zm2-.5H19h-.82v.13h.28v.54c0 .05 0 .1 0 .16a1 1 0 0 1 0 .1h.22a.94.94 0 0 1 0-.1c0-.05 0-.1 0-.17v-.55zm1.25.3v-.2a.15.15 0 0 1 0-.05h-.2v.64s0 .1 0 .12H20a.76.76 0 0 1 0-.1c0-.06 0-.1 0-.18v-.23zm.8.1a.58.58 0 0 0 0 .2.5.5 0 0 0 .1.15.48.48 0 0 0 .16.12.56.56 0 0 0 .23 0 .58.58 0 0 0 .22 0 .5.5 0 0 0 .28-.3.55.55 0 0 0 0-.2.5.5 0 0 0 0-.2.45.45 0 0 0-.28-.24.63.63 0 0 0-.2 0 .53.53 0 0 0-.25 0 .5.5 0 0 0-.16.12.53.53 0 0 0-.13.33zm.15 0a.56.56 0 0 1 0-.17.37.37 0 0 1 .08-.13.3.3 0 0 1 .12-.08h.15a.4.4 0 0 1 .15 0 .36.36 0 0 1 .13.1.43.43 0 0 1 .1.14.58.58 0 0 1 0 .2.53.53 0 0 1 0 .23.3.3 0 0 1-.1.14.3.3 0 0 1-.12.06h-.1a.4.4 0 0 1-.3-.13.43.43 0 0 1-.1-.15.58.58 0 0 1-.06-.22zM22.68 31.7l.05.05.08.1.1.1.12.12.1.1.12.12.1.07a.42.42 0 0 0 0-.05v-.8h-.16a.37.37 0 0 1 0 .1v.63-.05l-.08-.08-.1-.1-.1-.1.1-.1-.13-.14-.1-.1a.15.15 0 0 0 0 .05v.74s0 .05 0 .07h.13s0 0 0-.07v-.6zm1.8.8h.2a.25.25 0 0 0 .1-.1.27.27 0 0 0 0-.1.28.28 0 0 0 0-.1.25.25 0 0 0 0-.07l-.1-.13-.1-.08-.07-.06-.04-.05a.17.17 0 0 1 0-.04.1.1 0 0 1 .05-.1.22.22 0 0 1 .13 0h.14v.08s0-.08 0-.1H24.34a.22.22 0 0 0-.05.08.24.24 0 0 0 0 .1.23.23 0 0 0 0 .13.6.6 0 0 0 .14.14h.06l.08.05h.05v.05a.16.16 0 0 1 0 .06.17.17 0 0 1 0 .12.2.2 0 0 1-.15 0h-.17a.14.14 0 0 1 0-.06v.05s0 .05 0 .08h.1z" class="cls-13"/><path d="M21.26 27.16h.87a.2.2 0 0 1 .07.07.18.18 0 0 1 0 .08.16.16 0 0 0 0 .06s0 0 0-.07 0-.1 0-.13v-.13s0-.08 0-.1H19.93V27.35v-.07a.23.23 0 0 1 .13-.1 1.2 1.2 0 0 1 .27 0h.58v1.63c0 .2 0 .36 0 .5s0 .27 0 .35a.52.52 0 0 1 0 .14.1.1 0 0 1-.1.06h-.1s0 0 .05 0h.9s.07 0 .07 0h-.18a.15.15 0 0 1-.12-.07.37.37 0 0 1 0-.15c0-.08 0-.2 0-.34s0-.3 0-.5v-1.64zm1.9 1.62c0 .2 0 .35 0 .5a2.55 2.55 0 0 1 0 .34 1.12 1.12 0 0 1 0 .14.1.1 0 0 1-.08.06h-.12s0 0 .06 0h1.6a.14.14 0 0 0 0-.06.67.67 0 0 0 0-.1v-.1s0-.1 0-.12v-.06s0 0 0 .06a.4.4 0 0 1-.07.17.33.33 0 0 1-.12.1.6.6 0 0 1-.2 0h-.44a.34.34 0 0 1-.15 0 .16.16 0 0 1-.07-.1.67.67 0 0 1 0-.15v-1h.6a.32.32 0 0 1 .16 0 .13.13 0 0 1 0 .07.27.27 0 0 1 0 .07s0 0 0 .05 0-.05 0-.1a1.43 1.43 0 0 1 0-.15 1 1 0 0 1 0-.14.4.4 0 0 0 0-.07h-.06a.13.13 0 0 1-.08 0h-.79v-1H24.2a.26.26 0 0 1 0 .06.6.6 0 0 1 0 .06.28.28 0 0 0 0-.05s0-.05 0-.08 0-.06 0-.1a.75.75 0 0 1 0-.1.26.26 0 0 0 0-.07h-1.32s-.06 0-.06 0H23a.16.16 0 0 1 .13.06.4.4 0 0 1 0 .14v.1s0 .08 0 .14v1.27zm4.9 1.4a5 5 0 0 0 .87.4 2.6 2.6 0 0 0 .77.1 3 3 0 0 0 .4 0l.36-.06.3-.1.2-.07h-.08a2.38 2.38 0 0 1-.42.1 2.28 2.28 0 0 1-.36 0h-.23l-.36-.05a4.2 4.2 0 0 1-.48-.13 4.67 4.67 0 0 1-.6-.25l-.82-.4a1.23 1.23 0 0 0 .22-.17 1.48 1.48 0 0 0 .23-.28 1.74 1.74 0 0 0 .18-.37 1.43 1.43 0 0 0 .07-.46 1.45 1.45 0 0 0-.12-.6 1.33 1.33 0 0 0-.33-.45 1.45 1.45 0 0 0-.5-.3 1.9 1.9 0 0 0-.63-.1 1.6 1.6 0 0 0-.7.15 1.54 1.54 0 0 0-.5.37 1.56 1.56 0 0 0-.38 1 1.68 1.68 0 0 0 .1.53 1.38 1.38 0 0 0 .27.5 1.45 1.45 0 0 0 .5.35 1.66 1.66 0 0 0 .7.14h.51l.14-.05.66.35zm-2.46-1.84a1.6 1.6 0 0 1 .1-.55 1.06 1.06 0 0 1 .23-.4 1 1 0 0 1 .36-.23 1.35 1.35 0 0 1 .45-.08 1.16 1.16 0 0 1 .45.08 1.1 1.1 0 0 1 .38.27 1.33 1.33 0 0 1 .26.44 1.75 1.75 0 0 1 .1.6 1.9 1.9 0 0 1-.06.47 1.2 1.2 0 0 1-.14.35.87.87 0 0 1-.2.24 1.07 1.07 0 0 1-.48.22h-.2a1.2 1.2 0 0 1-.5-.1 1.17 1.17 0 0 1-.4-.3 1.4 1.4 0 0 1-.27-.45 1.8 1.8 0 0 1-.1-.6z" class="cls-3"/></g></g></svg>