<svg xmlns="http://www.w3.org/2000/svg" viewBox="0 0 30.1 30.1"><title>Asset 8</title><g><g><path fill="#fff" d="M0 0h30.1v30H0z"/><path fill="#00a8e1" fill-rule="evenodd" d="M.1.1a15 15 0 0 1 14.82 14.7A15.07 15.07 0 0 1 .1 30z"/><path fill-rule="evenodd" d="M30.1 30.1H0V0h30.1v30.1zM.2 29.9h29.7V.2H.2z"/><path fill="#fff" fill-rule="evenodd" d="M25.82 3.44l-.7 1-.73.98-1.47 1.96-1.45 1.96-.7.98-.72 1 1.57 2.4 1.57 2.37 1.6 2.38 1.57 2.4h-10.4l-.52-.94-.5-.94-1.02-1.87-1.03-1.85-.5-.94-.52-.94v7.47H1.8V3.44h10.08v6.78l.57-.86.55-.84 1.13-1.7 1.12-1.68.56-.85.56-.86h9.46z"/><path fill-rule="evenodd" d="M26.47 20.93H15.93l-.53-1-.5-.93-3-5.4v7.3H1.74V3.38h10.2V10l.46-.7.55-.84 1.13-1.66 1.68-2.54.57-.88h9.6l-1.5 2.07-2.9 3.92-1.4 1.95 1.55 2.36 1.57 2.38 1.6 2.4 1.62 2.47zM16 20.83h10.27l-1.52-2.32-1.6-2.38-1.56-2.38-1.6-2.42 1.45-2 2.9-3.92 1.37-1.9H16.4l-.54.84-1.68 2.52L13 8.56l-.55.83-.57.84h-.1V3.5h-10V20.8h10v-7.4h.1L15 19l.5.94zM4.12 23.1h1.5v2.43L6.7 24.4h1.8l-1.37 1.2 1.45 2.22H6.93l-.77-1.37-.55.48v.9H4.13v-4.7zM9 24.4h1.4v.6a1.38 1.38 0 0 1 .4-.5 1 1 0 0 1 .53-.14 1.7 1.7 0 0 1 .7.18l-.44.93a1.24 1.24 0 0 0-.42-.1.53.53 0 0 0-.45.2 2 2 0 0 0-.23 1.13v1.14H9V24.4zm3.3-1.28h1.46V24h-1.43v-.9zm0 1.3h1.46v3.4h-1.43v-3.4zm2.14 2.45l1.45-.12a.64.64 0 0 0 .24.33.82.82 0 0 0 .43.1.8.8 0 0 0 .46-.1.23.23 0 0 0 0-.44 3.35 3.35 0 0 0-.63-.13 7.22 7.22 0 0 1-1.06-.2 1.12 1.12 0 0 1-.5-.35.87.87 0 0 1 0-1.13 1.3 1.3 0 0 1 .6-.36 3.54 3.54 0 0 1 1-.12 3.87 3.87 0 0 1 1 .1 1.33 1.33 0 0 1 .54.28 1.48 1.48 0 0 1 .36.53l-1.34.1a.42.42 0 0 0-.18-.23.8.8 0 0 0-.4-.1.64.64 0 0 0-.37.08.23.23 0 0 0-.1.2.2.2 0 0 0 .13.18 2.4 2.4 0 0 0 .62.12 4.66 4.66 0 0 1 1.08.2 1.17 1.17 0 0 1 .54.4.86.86 0 0 1 .2.53 1 1 0 0 1-.2.57 1.33 1.33 0 0 1-.64.44 3.3 3.3 0 0 1-1.17.17 3 3 0 0 1-1.5-.27 1.2 1.2 0 0 1-.57-.76zM21 23.1v1.3h.8v1H21v1.2a.6.6 0 0 0 0 .3.28.28 0 0 0 .25.1 1.76 1.76 0 0 0 .45-.07l.1.9a5.23 5.23 0 0 1-1 .1 2 2 0 0 1-.8-.12.8.8 0 0 1-.37-.37 2 2 0 0 1-.12-.82v-1.2H19v-1h.54v-.6l1.46-.7zm1.32 3a1.63 1.63 0 0 1 .6-1.28 2.36 2.36 0 0 1 1.58-.5 2.32 2.32 0 0 1 1.73.58 1.72 1.72 0 0 1-.1 2.47 2.4 2.4 0 0 1-1.62.5 2.43 2.43 0 0 1-1.5-.4 1.6 1.6 0 0 1-.7-1.35zm1.46 0a1 1 0 0 0 .2.7.72.72 0 0 0 1 0 1 1 0 0 0 .2-.7.94.94 0 0 0-.2-.66.66.66 0 0 0-.5-.22.7.7 0 0 0-.52.22 1 1 0 0 0-.2.67zm.66-3.1h1.26l-1.16 1h-.7zM24.47 27.93A2.48 2.48 0 0 1 23 27.5a1.72 1.72 0 0 1-.1-2.7 2.4 2.4 0 0 1 1.6-.5 2.36 2.36 0 0 1 1.75.6 1.75 1.75 0 0 1-.1 2.52 2.43 2.43 0 0 1-1.64.5zm0-3.56a2.33 2.33 0 0 0-1.56.5 1.65 1.65 0 0 0 .1 2.58 2.4 2.4 0 0 0 1.46.4 2.36 2.36 0 0 0 1.6-.48 1.68 1.68 0 0 0 .1-2.42 2.3 2.3 0 0 0-1.7-.58zm-3.65 3.56a2 2 0 0 1-.82-.13.84.84 0 0 1-.4-.4 2.06 2.06 0 0 1-.13-.84V25.4h-.54v-1h.54v-.6l1.53-.74v1.3h.8v1H21v1.18a.53.53 0 0 0 0 .27c.08.13.28.13.67 0l.12 1a5.26 5.26 0 0 1-1 .12zM19 25.33h.54v1.23a2 2 0 0 0 .12.8.78.78 0 0 0 .36.37 1.94 1.94 0 0 0 .8.12 5.2 5.2 0 0 0 1-.1l-.1-.83a1.76 1.76 0 0 1-.43.07.3.3 0 0 1-.3-.14.6.6 0 0 1-.04-.3v-1.23h.8v-.9h-.8v-1.26l-1.4.64v.65H19v.9zm-2.5 2.6a3.08 3.08 0 0 1-1.5-.27 1.24 1.24 0 0 1-.57-.78l1.47-.12a.6.6 0 0 0 .24.3.8.8 0 0 0 .4.1A.76.76 0 0 0 17 27a.2.2 0 0 0 0-.37 3.3 3.3 0 0 0-.62-.13 7.38 7.38 0 0 1-1.06-.22 1.17 1.17 0 0 1-.52-.28.9.9 0 0 1 0-1.18 1.34 1.34 0 0 1 .62-.37 3.6 3.6 0 0 1 1-.12 4 4 0 0 1 1 .1 1.38 1.38 0 0 1 .56.3 1.56 1.56 0 0 1 .37.53L17 25.4a.4.4 0 0 0-.16-.22.76.76 0 0 0-.4-.1.6.6 0 0 0-.34.07.2.2 0 0 0-.1.16.17.17 0 0 0 .12.17 2.38 2.38 0 0 0 .6.1 4.7 4.7 0 0 1 1.1.22 1.2 1.2 0 0 1 .56.38.9.9 0 0 1 .2.56 1 1 0 0 1-.2.6 1.38 1.38 0 0 1-.65.46 3.37 3.37 0 0 1-1.18.17zm-2-1a1.17 1.17 0 0 0 .55.7 3 3 0 0 0 1.47.26 3.32 3.32 0 0 0 1.15-.17 1.32 1.32 0 0 0 .6-.43.94.94 0 0 0 .2-.55.82.82 0 0 0-.18-.5 1.14 1.14 0 0 0-.54-.37 4.68 4.68 0 0 0-1.07-.2 2.4 2.4 0 0 1-.64-.12.24.24 0 0 1-.16-.22.26.26 0 0 1 .13-.22.66.66 0 0 1 .38-.1.83.83 0 0 1 .44.12.45.45 0 0 1 .18.23l1.3-.1a1.43 1.43 0 0 0-.32-.48 1.3 1.3 0 0 0-.53-.3 3.9 3.9 0 0 0-1-.08 3.53 3.53 0 0 0-1 .12 1.27 1.27 0 0 0-.6.35.8.8 0 0 0-.2.55.8.8 0 0 0 .2.53 1.08 1.08 0 0 0 .47.33 7.08 7.08 0 0 0 1.05.23 3.38 3.38 0 0 1 .63.14.27.27 0 0 1 .2.25.28.28 0 0 1-.15.24.82.82 0 0 1-.47.12.86.86 0 0 1-.44-.1.66.66 0 0 1-.26-.32l-1.38.1zm-.68.95H12.3v-3.5h1.52v3.47zm-1.46-.07h1.4v-3.36h-1.4v3.34zm-1.83.08H9v-3.5h1.44v.45a1.23 1.23 0 0 1 .35-.4 1.3 1.3 0 0 1 1.25 0l-.48 1a1.2 1.2 0 0 0-.4-.1.5.5 0 0 0-.42.2 1.94 1.94 0 0 0-.22 1.1v1.18zm-1.47-.07h1.4v-1.13a2 2 0 0 1 .23-1.14.56.56 0 0 1 .46-.23 1.23 1.23 0 0 1 .4.1l.4-.88a1.23 1.23 0 0 0-1.15 0 1.34 1.34 0 0 0-.4.5h-.06v-.53H9.07v3.33zm-.43.08H6.9l-.74-1.33-.5.44v.9H4.08v-4.82h1.56v2.37l1-1.08H8.5v.06L7.18 25.6l1.47 2.25zM7 27.78h1.5l-1.42-2.2 1.32-1.14H6.72l-1.08 1.12h-.06v-2.4H4.15v4.62h1.42v-.87l.6-.5.83 1.38zm17.53-.73a.72.72 0 0 0 .54-.23 1 1 0 0 0 .2-.72 1 1 0 0 0-.2-.7.7.7 0 0 0-.53-.22.73.73 0 0 0-.55.23 1 1 0 0 0-.23.7 1 1 0 0 0 .22.7.72.72 0 0 0 .53.23zm0-1.8a.66.66 0 0 0-.5.22 1.17 1.17 0 0 0 0 1.3.7.7 0 0 0 1 0 1 1 0 0 0 .2-.67.9.9 0 0 0-.2-.64.62.62 0 0 0-.48-.2zM13.83 24H12.3v-1h1.52v1zm-1.46 0h1.4v-.82h-1.4V24zm12.18 0h-.77l.65-1h1.27v.06l-1.17 1zm-.65 0h.62l1.07-.9h-1.14zM28 22.5a1.44 1.44 0 0 1 .7.18 1.3 1.3 0 0 1 .5.52 1.4 1.4 0 0 1 0 1.4 1.3 1.3 0 0 1-.5.52 1.4 1.4 0 0 1-1.4 0 1.3 1.3 0 0 1-.53-.52 1.4 1.4 0 0 1-.2-.7 1.42 1.42 0 0 1 .2-.7 1.28 1.28 0 0 1 .53-.52 1.44 1.44 0 0 1 .7-.18zm0 .23a1.2 1.2 0 0 0-.58.15 1.08 1.08 0 0 0-.44.43 1.18 1.18 0 0 0-.16.6 1.17 1.17 0 0 0 .16.58 1.1 1.1 0 0 0 .43.43 1.17 1.17 0 0 0 1.17 0 1.1 1.1 0 0 0 .43-.42 1.17 1.17 0 0 0 .15-.58 1.2 1.2 0 0 0-.16-.6 1.07 1.07 0 0 0-.45-.42 1.2 1.2 0 0 0-.57-.15zm-.62 1.94h.24V24h.14a.3.3 0 0 1 .2.05 1.23 1.23 0 0 1 .25.35l.14.24h.3l-.18-.3a1.74 1.74 0 0 0-.22-.3.4.4 0 0 0-.13-.08.47.47 0 0 0 .32-.14.4.4 0 0 0 .12-.3.4.4 0 0 0-.07-.2.38.38 0 0 0-.2-.16 1.26 1.26 0 0 0-.38 0h-.53v1.5zm.24-.85h.3a.48.48 0 0 0 .3-.06.2.2 0 0 0 .07-.17.2.2 0 0 0 0-.13.2.2 0 0 0-.1-.08.77.77 0 0 0-.25 0h-.28zM28 25.35a1.47 1.47 0 0 1-.72-.2 1.36 1.36 0 0 1-.54-.53 1.46 1.46 0 0 1-.2-.72 1.48 1.48 0 0 1 .2-.73 1.35 1.35 0 0 1 .54-.54 1.46 1.46 0 0 1 1.42 0 1.35 1.35 0 0 1 .54.54 1.45 1.45 0 0 1 0 1.44 1.36 1.36 0 0 1-.54.55 1.47 1.47 0 0 1-.72.2zm0-2.8a1.4 1.4 0 0 0-.67.18 1.25 1.25 0 0 0-.5.5 1.36 1.36 0 0 0 0 1.35 1.28 1.28 0 0 0 .5.5 1.37 1.37 0 0 0 1.34 0 1.26 1.26 0 0 0 .5-.5 1.35 1.35 0 0 0 0-1.35 1.24 1.24 0 0 0-.5-.5 1.4 1.4 0 0 0-.67-.18zm0 2.57a1.23 1.23 0 0 0 .6-.16 1.14 1.14 0 0 0 .45-.45 1.22 1.22 0 0 0 0-1.2 1.12 1.12 0 0 0-.46-.45 1.22 1.22 0 0 0-1.2 0 1.13 1.13 0 0 0-.46.45 1.2 1.2 0 0 0 0 1.2 1.15 1.15 0 0 0 .45.46 1.23 1.23 0 0 0 .6.16zm0-2.34a1.15 1.15 0 0 0-.55.15 1 1 0 0 0-.42.4 1.15 1.15 0 0 0-.15.57 1.13 1.13 0 0 0 .15.56 1.06 1.06 0 0 0 .42.42 1.12 1.12 0 0 0 1.12 0 1.05 1.05 0 0 0 .4-.42 1.13 1.13 0 0 0 0-1.12 1 1 0 0 0-.4-.4 1.15 1.15 0 0 0-.56-.16zm.73 1.95l-.23-.37a1.8 1.8 0 0 0-.23-.3.5.5 0 0 0 .2-.14.45.45 0 0 0 .14-.32.44.44 0 0 0-.07-.25.43.43 0 0 0-.2-.16 1.27 1.27 0 0 0-.4 0h-.57v1.6h.34v-.65h.1a.28.28 0 0 1 .17 0 1.2 1.2 0 0 1 .24.34l.16.25zm-.35-.1h.2l-.15-.2a1.65 1.65 0 0 0-.22-.3.34.34 0 0 0-.1-.13.43.43 0 0 0 .28-.12.35.35 0 0 0 .1-.26.34.34 0 0 0-.05-.2.33.33 0 0 0-.17-.13 1.25 1.25 0 0 0-.37 0h-.48v1.4h.15V24h.2a.35.35 0 0 1 .2.06 1.22 1.22 0 0 1 .28.36l.12.2zm-.46-.75a.52.52 0 0 0 .32-.07.26.26 0 0 0 0-.34.27.27 0 0 0-.12-.1.77.77 0 0 0-.26 0h-.32v.55zm-.25-.1h.25a.42.42 0 0 0 .26-.04.17.17 0 0 0 0-.22.17.17 0 0 0-.08-.06.72.72 0 0 0-.23 0h-.23z"/></g></g></svg>