<svg xmlns="http://www.w3.org/2000/svg" viewBox="0 0 73.41 9.19"><title>Asset 23</title><g id="Layer_2" data-name="Layer 2"><g id="Layer_1-2" data-name="Layer 1"><path d="M46.51,6.85l1.63,2-1.63-2ZM40.84.78h5.67V5l2.81-2.17-1.44-2h4.69L49.85,2.89l4.48,6.3H48.47l-.33-.39-1.63-2V9.19H40.84V.78ZM60.54,8.24h0A5.41,5.41,0,0,1,59.36,9a3.37,3.37,0,0,1-1.29.24,2.43,2.43,0,0,1-1.15-.26,1.89,1.89,0,0,1-.76-.7,1.81,1.81,0,0,1-.27-1,1.72,1.72,0,0,1,.44-1.19,2.21,2.21,0,0,1,1.21-.66l.8-.17L59.44,5l1-.27a1.76,1.76,0,0,0-.27-1,1.2,1.2,0,0,0-1-.31,2.08,2.08,0,0,0-1,.18,1.58,1.58,0,0,0-.56.54c-.15.24-.26.4-.33.47a.55.55,0,0,1-.41.12.73.73,0,0,1-.49-.18.59.59,0,0,1-.21-.47,1.44,1.44,0,0,1,.31-.87,2.27,2.27,0,0,1,1-.69,4.44,4.44,0,0,1,1.67-.27,4.74,4.74,0,0,1,1.75.26,1.64,1.64,0,0,1,.9.84,3.65,3.65,0,0,1,.26,1.52c0,.4,0,.74,0,1s0,.59,0,.93a3.4,3.4,0,0,0,.16,1,3.07,3.07,0,0,1,.16.67.62.62,0,0,1-.24.47.83.83,0,0,1-.56.21.74.74,0,0,1-.51-.25,3.52,3.52,0,0,1-.54-.71Zm-.11-2.45h0a8.3,8.3,0,0,1-1.08.29l-1,.22a1.33,1.33,0,0,0-.52.28.72.72,0,0,0-.25.58.86.86,0,0,0,.29.66,1.08,1.08,0,0,0,.76.27,2,2,0,0,0,.93-.22,1.47,1.47,0,0,0,.63-.57A2.62,2.62,0,0,0,60.43,6V5.78Zm5.06,1h0V8.16a1.09,1.09,0,0,1-.24.77.8.8,0,0,1-.61.26.78.78,0,0,1-.6-.26,1.11,1.11,0,0,1-.24-.77V3.44c0-.76.28-1.14.83-1.14a.69.69,0,0,1,.61.27,1.47,1.47,0,0,1,.21.79,2.93,2.93,0,0,1,.62-.79,1.29,1.29,0,0,1,.85-.27,2.17,2.17,0,0,1,1,.27.79.79,0,0,1,.5.71.71.71,0,0,1-.68.71,2.13,2.13,0,0,1-.45-.12,2.12,2.12,0,0,0-.63-.11.93.93,0,0,0-.61.19,1.28,1.28,0,0,0-.37.58,4,4,0,0,0-.18.92c0,.36,0,.78,0,1.29Zm4.13-4.29h.19v-1c0-.27,0-.49,0-.64A1,1,0,0,1,70,.39a.81.81,0,0,1,.29-.28.84.84,0,0,1,1,.14.72.72,0,0,1,.22.39,3.58,3.58,0,0,1,0,.66V2.45h.62a.8.8,0,0,1,.55.17.56.56,0,0,1,.19.44.49.49,0,0,1-.27.48,1.75,1.75,0,0,1-.77.14h-.31V6.79a4.89,4.89,0,0,0,0,.61.64.64,0,0,0,.15.35.51.51,0,0,0,.4.14,2.15,2.15,0,0,0,.4-.05,1.94,1.94,0,0,1,.4-.05.51.51,0,0,1,.37.16.54.54,0,0,1,.16.41A.68.68,0,0,1,73,9a3,3,0,0,1-1.28.22,2.21,2.21,0,0,1-1.2-.27,1.23,1.23,0,0,1-.54-.74,5,5,0,0,1-.13-1.26V3.68h-.22A.81.81,0,0,1,69,3.5a.57.57,0,0,1-.19-.44.55.55,0,0,1,.2-.44.89.89,0,0,1,.59-.17ZM5.25,6.15h0V8.22A1.06,1.06,0,0,1,5,8.95a.76.76,0,0,1-.59.24.73.73,0,0,1-.57-.24,1.07,1.07,0,0,1-.22-.73V5.75a7.7,7.7,0,0,0,0-.91,1,1,0,0,0-.22-.53.68.68,0,0,0-.56-.21,1,1,0,0,0-1,.52,3.64,3.64,0,0,0-.24,1.5v2.1a1.08,1.08,0,0,1-.22.73.73.73,0,0,1-.58.25.74.74,0,0,1-.58-.25A1.06,1.06,0,0,1,0,8.22V3.78a1,1,0,0,1,.2-.66.68.68,0,0,1,.53-.23.73.73,0,0,1,.53.21.79.79,0,0,1,.21.59v.15a2.72,2.72,0,0,1,.86-.71,2.29,2.29,0,0,1,1-.23,2.06,2.06,0,0,1,1,.23,1.83,1.83,0,0,1,.69.7,2.68,2.68,0,0,1,.84-.71,2.15,2.15,0,0,1,1-.23A2.27,2.27,0,0,1,8,3.15a1.58,1.58,0,0,1,.69.72,3.25,3.25,0,0,1,.2,1.32v3a1.06,1.06,0,0,1-.22.73.81.81,0,0,1-1.16,0,1.06,1.06,0,0,1-.23-.73V5.61a6.34,6.34,0,0,0,0-.8A.94.94,0,0,0,7,4.3a.73.73,0,0,0-.57-.2,1,1,0,0,0-.58.18,1.22,1.22,0,0,0-.43.49,3.86,3.86,0,0,0-.17,1.38ZM14.3,8.32h0A4.86,4.86,0,0,1,13.21,9,3.09,3.09,0,0,1,12,9.19,2.25,2.25,0,0,1,11,9a1.73,1.73,0,0,1-.7-.64A1.66,1.66,0,0,1,10,7.44a1.56,1.56,0,0,1,.4-1.09,2,2,0,0,1,1.11-.6l.73-.15,1-.22.91-.24a1.6,1.6,0,0,0-.25-.9A1.11,1.11,0,0,0,13,4a1.86,1.86,0,0,0-.89.17,1.41,1.41,0,0,0-.51.49,4.75,4.75,0,0,1-.3.43.49.49,0,0,1-.38.11A.67.67,0,0,1,10.51,5a.54.54,0,0,1-.19-.43,1.32,1.32,0,0,1,.29-.8,2.08,2.08,0,0,1,.9-.64A4.06,4.06,0,0,1,13,2.88a4.34,4.34,0,0,1,1.61.24,1.49,1.49,0,0,1,.83.76,3.33,3.33,0,0,1,.24,1.38c0,.36,0,.67,0,.92s0,.54,0,.85a3.11,3.11,0,0,0,.15.91,2.77,2.77,0,0,1,.14.61.57.57,0,0,1-.22.43.76.76,0,0,1-.51.2A.69.69,0,0,1,14.79,9a3.17,3.17,0,0,1-.49-.65Zm-.1-2.24h0a8,8,0,0,1-1,.26l-.9.2a1.23,1.23,0,0,0-.48.26.66.66,0,0,0-.23.53.79.79,0,0,0,.27.6,1,1,0,0,0,.7.25,1.83,1.83,0,0,0,.85-.2A1.35,1.35,0,0,0,14,7.45a2.36,2.36,0,0,0,.21-1.16V6.08Zm8.08,1.09h0A1.8,1.8,0,0,1,21,9a4.16,4.16,0,0,1-1.48.24,3.61,3.61,0,0,1-1.43-.26,2.08,2.08,0,0,1-.88-.64A1.3,1.3,0,0,1,17,7.53a.59.59,0,0,1,.18-.44.61.61,0,0,1,.46-.18A.55.55,0,0,1,18,7a1.38,1.38,0,0,1,.25.33A1.72,1.72,0,0,0,18.8,8a1.74,1.74,0,0,0,.91.2A1.31,1.31,0,0,0,20.47,8a.58.58,0,0,0,.3-.47.64.64,0,0,0-.31-.6,3.85,3.85,0,0,0-1-.36,8.21,8.21,0,0,1-1.3-.42,2.14,2.14,0,0,1-.8-.58,1.33,1.33,0,0,1-.3-.88,1.54,1.54,0,0,1,.28-.88,1.88,1.88,0,0,1,.82-.66,3.14,3.14,0,0,1,1.31-.25A4.27,4.27,0,0,1,20.52,3a2.69,2.69,0,0,1,.8.33,1.69,1.69,0,0,1,.49.47.91.91,0,0,1,.17.5.58.58,0,0,1-.18.44.71.71,0,0,1-.51.17.62.62,0,0,1-.4-.14,2.61,2.61,0,0,1-.38-.41A1.43,1.43,0,0,0,20.09,4a1.32,1.32,0,0,0-.65-.13,1.27,1.27,0,0,0-.7.18.53.53,0,0,0-.28.45.48.48,0,0,0,.21.4,1.68,1.68,0,0,0,.55.26l1,.25a5,5,0,0,1,1.18.42,1.93,1.93,0,0,1,.69.57,1.28,1.28,0,0,1,.24.76ZM23.68,3h.17V2.09c0-.25,0-.45,0-.59A.86.86,0,0,1,24,1.14a.71.71,0,0,1,.26-.26.74.74,0,0,1,.38-.1.77.77,0,0,1,.53.22.67.67,0,0,1,.2.36,3.52,3.52,0,0,1,0,.61V3H26a.71.71,0,0,1,.5.16.51.51,0,0,1,.18.4.45.45,0,0,1-.25.44,1.59,1.59,0,0,1-.71.12H25.4V7a4.62,4.62,0,0,0,0,.56.57.57,0,0,0,.14.32.47.47,0,0,0,.36.12,1.88,1.88,0,0,0,.37,0,1.88,1.88,0,0,1,.36,0A.47.47,0,0,1,27,8a.5.5,0,0,1,.15.37.62.62,0,0,1-.41.57,2.74,2.74,0,0,1-1.17.2,2,2,0,0,1-1.1-.24A1.13,1.13,0,0,1,24,8.27a4.54,4.54,0,0,1-.12-1.15v-3h-.21A.72.72,0,0,1,23.13,4a.51.51,0,0,1-.18-.4.49.49,0,0,1,.18-.4A.8.8,0,0,1,23.68,3ZM32,6.42H29a2.07,2.07,0,0,0,.21.93,1.43,1.43,0,0,0,1.31.81A1.78,1.78,0,0,0,31,8.1a1.62,1.62,0,0,0,.45-.2,3.11,3.11,0,0,0,.4-.3l.47-.43a.5.5,0,0,1,.34-.1.57.57,0,0,1,.39.13.48.48,0,0,1,.15.37,1,1,0,0,1-.16.49,2,2,0,0,1-.5.54,2.82,2.82,0,0,1-.83.43,3.58,3.58,0,0,1-1.16.17,3.1,3.1,0,0,1-2.32-.85A3.17,3.17,0,0,1,27.42,6a3.85,3.85,0,0,1,.21-1.28,2.8,2.8,0,0,1,.59-1,2.64,2.64,0,0,1,1-.64,3.48,3.48,0,0,1,1.27-.22A3,3,0,0,1,32,3.26a2.5,2.5,0,0,1,1,1,2.6,2.6,0,0,1,.33,1.24.78.78,0,0,1-.34.76,2.12,2.12,0,0,1-.94.17Zm-3-.88h2.81a1.88,1.88,0,0,0-.43-1.19,1.28,1.28,0,0,0-1-.4,1.25,1.25,0,0,0-1,.4A2,2,0,0,0,29,5.54ZM36.15,7h0v1.3a1,1,0,0,1-.22.71.74.74,0,0,1-.56.24A.71.71,0,0,1,34.82,9a1,1,0,0,1-.22-.7V3.93c0-.69.25-1,.76-1a.63.63,0,0,1,.56.24,1.36,1.36,0,0,1,.19.72,2.67,2.67,0,0,1,.57-.72,1.19,1.19,0,0,1,.78-.24,2,2,0,0,1,.95.24.73.73,0,0,1,.46.65.61.61,0,0,1-.2.47.6.6,0,0,1-.42.18,2.05,2.05,0,0,1-.41-.1,1.9,1.9,0,0,0-.58-.11.85.85,0,0,0-.56.18,1.19,1.19,0,0,0-.34.53,3.79,3.79,0,0,0-.16.84c0,.32,0,.72,0,1.18ZM48.65,8.8h4.93l-4-5.67-3,2.35v.76L48.65,8.8Zm1-6.23h0l1.81-1.4h-2.8l1,1.4Zm-8.39-1.4V8.8h4.89V1.17Z" fill-rule="evenodd"/></g></g></svg>