<svg xmlns="http://www.w3.org/2000/svg" viewBox="0 0 354.28 113.68"><defs><style>.cls-1,.cls-4{fill:#e01e26;}.cls-1,.cls-2{fill-rule:evenodd;}.cls-2{fill:#9b9b9b;}.cls-3{fill:#3c3b39;}.cls-5{fill:#868686;}</style></defs><title>Milenium_RESIDENCE</title><g id="Layer_2" data-name="Layer 2"><g id="Layer_1-2" data-name="Layer 1"><polygon class="cls-1" points="37.25 84.92 0 84.92 30.62 58.64 30.62 42 46.29 42 46.29 45.26 82.33 15.36 135.98 59.36 128.99 71.53 82.82 32.12 28.69 79.13 37.25 79.13 37.25 84.92"/><polygon class="cls-2" points="104 56.23 83.51 38.75 59.52 57.55 83.39 43.69 104 56.23"/><rect class="cls-3" x="74.35" y="57.31" width="6.63" height="6.75"/><rect class="cls-3" x="82.24" y="57.31" width="6.63" height="6.75"/><rect class="cls-3" x="74.35" y="66.35" width="6.63" height="6.75"/><rect class="cls-3" x="82.24" y="66.35" width="6.63" height="6.75"/><path class="cls-1" d="M136.07,52.61C135.77,1.88,82.8-7.8,49.88,27.42,80.06-19.53,152.89-3,136.07,52.61"/><path class="cls-2" d="M132.47,9.62c42.64,57.28-45.06,125.13-92.2,81.52,43,65.72,156.68-27.91,92.2-81.52"/><path class="cls-4" d="M342.42,64.6l6-24.75a.91.91,0,0,0,.08-.36v-.31q0-1.54-2.49-1.54a6,6,0,0,0-4.23,1.83L335.7,64.6H330l6-24.75a.91.91,0,0,0,.08-.36v-.31q0-1.54-2.49-1.54a5.76,5.76,0,0,0-2.16.43,5.65,5.65,0,0,0-2,1.39L323.33,64.6h-5.73l7.14-29.75h4.81a10.46,10.46,0,0,1-.25,2.21,10.6,10.6,0,0,1,3.32-2,11.41,11.41,0,0,1,4.07-.72q4.48,0,4.9,2.59a10.64,10.64,0,0,1,3.36-1.9,12.36,12.36,0,0,1,4.19-.7q5.14,0,5.14,3.7a6.58,6.58,0,0,1-.25,1.73l-6,24.8Zm-35.85,0a6.81,6.81,0,0,1,.08-1.06,9.11,9.11,0,0,1,.25-1.11,10.88,10.88,0,0,1-3.49,1.85,14.14,14.14,0,0,1-4.4.65q-5.56,0-5.56-3.65v-.75a1.87,1.87,0,0,1,.17-.74l6-24.94h5.73l-5.89,24.41a1.34,1.34,0,0,0-.08.43v.38a1.3,1.3,0,0,0,.62,1.23,4.27,4.27,0,0,0,2,.36,9,9,0,0,0,2.66-.41,4.54,4.54,0,0,0,2.16-1.37l6.06-25h5.73L311.47,64.6Zm-25.89,0,7.14-29.75h5.73L286.41,64.6Zm8.13-33.54,1.41-6h5.73l-1.41,6ZM268.9,64.6,274.79,40a1.34,1.34,0,0,0,.08-.43v-.38q0-1.59-2.82-1.59a8.28,8.28,0,0,0-2.57.43,5.29,5.29,0,0,0-2.24,1.39L261.18,64.6h-5.73l7.14-29.75h4.81a11.17,11.17,0,0,1-.25,2.26,10.51,10.51,0,0,1,3.53-2,13.52,13.52,0,0,1,4.52-.74q5.64,0,5.64,3.75a6.58,6.58,0,0,1-.25,1.73l-6,24.75ZM247.32,52.49h5.39L251.14,59q-1.49,6-10.7,6-7.63,0-7.63-4.42a5.78,5.78,0,0,1,.25-1.59l4.48-18.55a7,7,0,0,1,3.4-4.57,13.82,13.82,0,0,1,7-1.54q7.88,0,7.88,4.57v.77a1.93,1.93,0,0,1-.17.77L253.3,50H240.52l-2.16,9a3.72,3.72,0,0,0-.12.43,1.82,1.82,0,0,0,0,.38q0,1.83,3.07,1.83,3.9,0,4.48-2.64Zm2.9-12a.91.91,0,0,0,.08-.36v-.31q0-2-3.24-2-3.65,0-4.23,2.64l-1.74,7.16h7.39ZM220.36,64.6l9.54-39.55h5.73L226.08,64.6Zm-11.87,0L218,25.05h5.73L214.22,64.6Zm-12,0,7.14-29.75h5.73L202.18,64.6Zm8.13-33.54,1.41-6h5.73l-1.41,6ZM184.43,64.6l2.82-12q1.08-4.37,2.16-8.55t2.24-8.55L177.21,64.6h-5.56l-.25-29.07q-1,4.37-2,8.55t-2.07,8.55l-2.82,12H158.7l9.54-39.55h8.46L176.46,56l14.69-30.9h8.71L190.32,64.6Z"/><path class="cls-5" d="M216.34,93.2a4.41,4.41,0,0,0-1.09-3.11,8.55,8.55,0,0,0-2.76-1.95,29,29,0,0,0-3.69-1.38,35.44,35.44,0,0,1-3.83-1.4,12.11,12.11,0,0,1-3.19-2A5.56,5.56,0,0,1,200,80.2a5.91,5.91,0,0,1,.5-3.23,8.09,8.09,0,0,1,2-2.7,10.07,10.07,0,0,1,3.11-1.85,10.33,10.33,0,0,1,3.73-.69,8.93,8.93,0,0,1,3.79.75,10.53,10.53,0,0,1,2.74,1.79,8.68,8.68,0,0,1,1.75,2.18,6.21,6.21,0,0,1,.75,1.93h-3.11a5.75,5.75,0,0,0-2.42-2.87,7.05,7.05,0,0,0-3.51-1,6.92,6.92,0,0,0-2.5.39,7.45,7.45,0,0,0-2.2,1.18,5.13,5.13,0,0,0-1.45,1.77,3.24,3.24,0,0,0-.26,2.17,3.42,3.42,0,0,0,1.63,2.18,15.93,15.93,0,0,0,3.13,1.44q1.81.63,3.83,1.26a17.46,17.46,0,0,1,3.71,1.63,9,9,0,0,1,2.8,2.58,7.83,7.83,0,0,1,.3,7.48,7.72,7.72,0,0,1-2.16,2.52,9.77,9.77,0,0,1-3.13,1.56,12.87,12.87,0,0,1-3.71.53,11.09,11.09,0,0,1-3.79-.67,10.48,10.48,0,0,1-3.27-1.87A9.36,9.36,0,0,1,200,95.76a8.08,8.08,0,0,1-.87-3.74H202a5.61,5.61,0,0,0,.58,2.52,6.44,6.44,0,0,0,1.59,2A7.85,7.85,0,0,0,206.52,98a7.41,7.41,0,0,0,2.84.47,12.12,12.12,0,0,0,2.62-.35,7,7,0,0,0,2.22-1,5.13,5.13,0,0,0,1.55-1.61,4.36,4.36,0,0,0,.58-2.3M327.7,72.69h18.79v2.76h-16V86.78h13.15v2.76H330.52v8h16v2.76H327.7ZM299.26,86.44a11.32,11.32,0,0,0,1,4.63,12.19,12.19,0,0,0,2.64,3.83,12.52,12.52,0,0,0,3.91,2.59,12.06,12.06,0,0,0,4.74.95,11.91,11.91,0,0,0,4.72-.95,12.5,12.5,0,0,0,3.87-2.56,12.28,12.28,0,0,0,1.33-1.54h3.35a14.48,14.48,0,0,1-2.62,3.46,15.39,15.39,0,0,1-4.8,3.17,15.31,15.31,0,0,1-11.7,0,15.4,15.4,0,0,1-4.8-3.17,15,15,0,0,1-3.25-4.68,14.29,14.29,0,0,1,0-11.42,15,15,0,0,1,3.25-4.68,15.39,15.39,0,0,1,4.8-3.17,15.31,15.31,0,0,1,11.7,0,15.38,15.38,0,0,1,4.8,3.17,14.48,14.48,0,0,1,2.62,3.46H321.4a9.63,9.63,0,0,0-1.29-1.47,12.2,12.2,0,0,0-3.87-2.62,11.81,11.81,0,0,0-4.72-1,12.07,12.07,0,0,0-4.74.94A12.52,12.52,0,0,0,302.87,78a12.18,12.18,0,0,0-2.64,3.81A11.19,11.19,0,0,0,299.26,86.44Zm-8.39-13.76h2.82v27.56h-2.82l-13.15-22v22H274.9V72.69h2.82l13.15,22Zm-36.9,0h18.79v2.76h-16V86.78h13.15v2.76H256.79v8h16v2.76H254Zm-16.7,24.8a11.07,11.07,0,0,0,4.38-.87,11.32,11.32,0,0,0,6-5.91,10.5,10.5,0,0,0,.89-4.29,10.36,10.36,0,0,0-.89-4.27,11.2,11.2,0,0,0-2.42-3.48,11.5,11.5,0,0,0-3.57-2.36,11.07,11.07,0,0,0-4.38-.87h-6.65v22Zm-9.48-24.8h9.48a14,14,0,0,1,5.49,1.08,14.19,14.19,0,0,1,4.48,2.93,13.81,13.81,0,0,1,3,4.37,13.48,13.48,0,0,1,0,10.71,14.29,14.29,0,0,1-3,4.41,13.85,13.85,0,0,1-4.48,3,14,14,0,0,1-5.49,1.08h-9.48Zm-6,0h2.82v27.56h-2.82Zm-43,0h18.79v2.76h-16V86.78h13.15v2.76H181.69v8h16v2.76H178.87ZM171.41,85.6A5.62,5.62,0,0,0,173.18,81q0-3.11-1.77-4.49a7,7,0,0,0-4.6-1.34H161.2V86.94h5.61A7,7,0,0,0,171.41,85.6Zm-13-12.91h8.39a10.92,10.92,0,0,1,6.74,2,7.31,7.31,0,0,1,1.9,2.81A9.82,9.82,0,0,1,176,81q0,4.33-2.54,6.5a12,12,0,0,1-1.13.75q.56.31,1.09.67A7.09,7.09,0,0,1,176,94.61v5.63h-2.82V94.61a4.68,4.68,0,0,0-.44-2.09,5.11,5.11,0,0,0-1.33-1.65,6.06,6.06,0,0,0-4.19-1.34h-6v10.71h-2.82Z"/></g></g></svg>