<svg xmlns="http://www.w3.org/2000/svg" viewBox="0 0 74.1 20.25"><title>Asset 21</title><g><g><path fill="#ed1b2f" d="M0 0h74.1v20.25H0z"/><path fill="#fff" fill-rule="evenodd" d="M20.8 3.37v13.5h-4.7l.25-5.88-2.56 5.88h-3.15l-.9-5.98-1.52 5.97H3.4l3.95-13.5h5.12l.8 5.5 2.28-5.5h5.25zM47.17 7.66l-2.1-.1-1.1 9.3h-5.12l1.17-9.27-1.95.06-3.27-4.3h12.82l-.45 4.3zM53.7 3.37l-1 8.4a1.26 1.26 0 0 0 .7 1.23 1.37 1.37 0 0 0 1.4-.24 1.82 1.82 0 0 0 .53-1l1.14-8.33h4.9l-1.07 9.24a5.15 5.15 0 0 1-2 3.4 8.43 8.43 0 0 1-6.14 1.1c-1.74-.3-3.72-1.44-4.28-3.2a6 6 0 0 1-.2-2.1l1-8.45zM66.7 12.6h4.02l-1.2 4.27h-8.56l1.78-13.5h5.1l-1.15 9.23zM33.15 3.87l.5.4 3 3.84a4.65 4.65 0 0 1 .35 2.27 7 7 0 0 1-4.1 6.1 8.28 8.28 0 0 1-9-1.5 6.93 6.93 0 0 1-1.37-7.57 7.4 7.4 0 0 1 7-4.3 8.48 8.48 0 0 1 3.6.77zm-3.1 3.7A2.62 2.62 0 0 0 27.4 8.9a2.85 2.85 0 0 0-.1 2.76 2.33 2.33 0 0 0 1.84 1.24 2.54 2.54 0 0 0 2.4-1.24 3.06 3.06 0 0 0 .13-2.9 2.26 2.26 0 0 0-1.62-1.2z"/></g></g></svg>