<svg xmlns="http://www.w3.org/2000/svg" viewBox="0 0 65.7 24.15"><title>Asset 28</title><g><g><g><g><g><path fill="#5b5859" d="M36.4 18.77c-1.77 0-2.84-1.27-2.38-3.34S34.94 11 35.4 8.9a4 4 0 0 1 4.3-3.33h6.8c2.34 0 3.38 1 2.88 3.42-.3 1.44-.5 2.45-.7 3.37s-.8 1.73-2.56 1.73h-8c-.1.47-.18.74-.22 1-.23 1.15.65 1.23 1.3 1.23h8.5l-.46 2.5zm2.4-7.6h6.6s.22-1.16.28-1.6-.3-.78-.85-.78h-4.26a1.3 1.3 0 0 0-1.52 1.2l-.25 1.17"/></g><g><path fill="#5b5859" d="M22.45 18.77h-3.9s2-9.37 2.1-9.87A4 4 0 0 1 25 5.57h5.83c2.34 0 3.38 1 2.88 3.42l-.3 1.45h-3.56c.06-.32.1-.67.13-.86.06-.43-.3-.8-.85-.8h-3.3a1.3 1.3 0 0 0-1.5 1.2l-1.87 8.77"/></g><g><path fill="#5b5859" d="M8 8.8a1.13 1.13 0 0 0-1.06.86L5.8 15.12a.68.68 0 0 0 .68.87h6a1.14 1.14 0 0 0 1.06-.88l.35-1.63h3.56l-.8 3.5c-.18.92-.8 1.73-2.56 1.73H6.95l-1.74-1.1-1.36 6.52H0L3.24 8.9a4 4 0 0 1 4.3-3.34h3.08l-.7 3.23H8"/></g><g><path fill="#558ba3" d="M13.13 5.57h2.27c2.34 0 3.38 1 2.88 3.42l-.48 2.15h-4.86c-.76 0-1-.42-.86-.9.25-1.18 1-4.68 1-4.68"/></g><g><path fill="#5b5859" d="M53.48 0h3.9l-1.45 6.78L58 5.58h4.7c2.34 0 3.38 1 2.88 3.4l-2.07 9.8H60s1.9-9 1.93-9.18c.06-.42-.33-.8-.87-.8h-4.3a1.3 1.3 0 0 0-1.5 1.2l-1.87 8.77h-3.9L53.48 0"/></g></g></g></g></g></svg>