<svg xmlns="http://www.w3.org/2000/svg" viewBox="0 0 280.84 109.26"><defs><style>.cls-1{fill:#6e6f71;}.cls-2{fill:#6cc04a;}</style></defs><title>ptc</title><g id="Layer_2" data-name="Layer 2"><g id="Layer_1-2" data-name="Layer 1"><polygon id="_Path_" data-name="&lt;Path&gt;" class="cls-1" points="47.35 0 0 27.35 0 51.53 47.35 23.98 73.97 39.26 68.68 42.34 47.35 30.07 28.8 40.81 71.19 65.35 94.69 51.6 94.69 27.35 47.35 0"/><polygon id="_Path_2" data-name="&lt;Path&gt;" class="cls-2" points="47.35 109.26 94.69 81.97 94.69 57.74 47.35 85.28 20.72 70 26.02 66.92 47.35 79.19 65.9 68.46 23.5 43.91 0 57.67 0 81.97 47.35 109.26"/><g id="_Group_" data-name="&lt;Group&gt;"><path id="_Compound_Path_" data-name="&lt;Compound Path&gt;" class="cls-1" d="M142,36q6.39-9.37,19.07-9.38,11.51,0,18.64,8t7.14,19.49q0,11.61-7.14,19.49t-19.17,8q-12,0-18.54-9.48V101.8h-8V27.45h8Zm18-2.13q-8.63,0-13.63,6-4.79,5.65-4.79,14.27t4.79,14.27q5,6,13.63,6a17.69,17.69,0,0,0,13.85-6q5-5.64,5-14.27t-5-14.27a17.7,17.7,0,0,0-13.85-6"/><polygon id="_Path_3" data-name="&lt;Path&gt;" class="cls-1" points="203.51 80.71 203.51 34.48 192.64 34.48 192.64 27.45 203.51 27.45 203.51 8.38 211.5 8.38 211.5 27.45 223.75 27.45 223.75 34.48 211.5 34.48 211.5 80.71 203.51 80.71"/><path id="_Path_4" data-name="&lt;Path&gt;" class="cls-1" d="M257.41,74.32a15,15,0,0,0,9.05-2.88A16.58,16.58,0,0,0,272.21,64h8.63a24.27,24.27,0,0,1-8.95,12.68,27,27,0,0,1-16.19,4.9q-11.72,0-19.07-8-7.14-7.77-7.13-19.49t7.13-19.49q7.35-8,19.07-8a27,27,0,0,1,16.19,4.9,24.28,24.28,0,0,1,8.95,12.68h-8.63a16.59,16.59,0,0,0-5.75-7.46,15,15,0,0,0-9.05-2.88,21.19,21.19,0,0,0-8.68,1.6,17.44,17.44,0,0,0-6,4.37,20.45,20.45,0,0,0-5.22,14.27,20.44,20.44,0,0,0,5.22,14.27q5.32,6,14.7,6"/></g></g></g></svg>