<svg xmlns="http://www.w3.org/2000/svg" viewBox="0 0 76.21 16.37"><title>Asset 13</title><g><g><path fill="#fff" d="M0 0h16.36v16.36H0z"/><path fill="#87898b" fill-rule="evenodd" d="M16.36.7L8.9 11.38l3.5 2.44-1.8 2.54h5.76V.7zM5.48 1.64L3.3 4.74 3 4.52l1.52-2.18L6.16 0H0v16.12L5.26 8.6l.62.44 3.34-4.77-3.74-2.63z"/><path fill="#ad1e24" fill-rule="evenodd" d="M6.63 0L5.48 1.64l3.9 2.73-3.16 4.5-.52-.36-5.5 7.86h9.96l2.22-3.17L9 10.8 16.36.32V0H6.63z"/><path fill-rule="evenodd" d="M18.14 14.48V9H21a4.16 4.16 0 0 1 1.2.13 1.3 1.3 0 0 1 .67.5 1.53 1.53 0 0 1-.48 2.2 2.06 2.06 0 0 1-.6.22 1.7 1.7 0 0 1 .43.2 1.7 1.7 0 0 1 .27.3 2.14 2.14 0 0 1 .24.33l.82 1.58h-1.94l-.9-1.66a1.27 1.27 0 0 0-.32-.42.7.7 0 0 0-.42-.13h-.15v2.2zm1.7-3.24h.72a2.52 2.52 0 0 0 .45-.07.45.45 0 0 0 .3-.17.5.5 0 0 0 .1-.3.5.5 0 0 0-.17-.42 1 1 0 0 0-.63-.14h-.75zM27.46 13.58h-1.92l-.27.9h-1.74L25.6 9h1.85l2.06 5.45h-1.76l-.28-.9zm-.35-1.18l-.6-2-.6 2zM30.03 9.04h2.24l.86 3.3.85-3.3h2.23v5.44h-1.38v-4.15l-1.07 4.15H32.5l-1.08-4.15v4.15h-1.4V9.04zM37.08 11.76a2.8 2.8 0 0 1 .75-2.08 2.84 2.84 0 0 1 2.1-.74 2.88 2.88 0 0 1 2.07.73 2.74 2.74 0 0 1 .74 2 3.34 3.34 0 0 1-.32 1.57 2.3 2.3 0 0 1-.94 1 3.1 3.1 0 0 1-1.53.34 3.54 3.54 0 0 1-1.54-.3 2.32 2.32 0 0 1-1-.92 3.06 3.06 0 0 1-.37-1.6zm1.7 0a1.83 1.83 0 0 0 .3 1.24 1.17 1.17 0 0 0 1.7 0 2 2 0 0 0 .3-1.27 1.68 1.68 0 0 0-.3-1.12 1.08 1.08 0 0 0-.86-.35 1 1 0 0 0-.82.36 1.83 1.83 0 0 0-.32 1.17zM43.4 12.68l1.6-.1a1.2 1.2 0 0 0 .2.6.9.9 0 0 0 .76.32.83.83 0 0 0 .56-.17.5.5 0 0 0 .2-.4.5.5 0 0 0-.2-.37 2.15 2.15 0 0 0-.86-.3 3.73 3.73 0 0 1-1.6-.67 1.33 1.33 0 0 1-.47-1.06 1.42 1.42 0 0 1 .24-.8 1.63 1.63 0 0 1 .74-.58 3.48 3.48 0 0 1 1.35-.2 2.77 2.77 0 0 1 1.6.38 1.67 1.67 0 0 1 .67 1.23l-1.6.1a.85.85 0 0 0-.27-.55.86.86 0 0 0-.56-.17.7.7 0 0 0-.45.12.4.4 0 0 0-.15.3.3.3 0 0 0 .12.23 1.4 1.4 0 0 0 .56.2 7.05 7.05 0 0 1 1.6.48 1.67 1.67 0 0 1 .7.6 1.53 1.53 0 0 1 .22.8 1.7 1.7 0 0 1-.3 1 1.83 1.83 0 0 1-.8.68 3.33 3.33 0 0 1-1.33.23A2.74 2.74 0 0 1 44 14a2.1 2.1 0 0 1-.6-1.32zM48.93 12.68l1.6-.1a1.23 1.23 0 0 0 .22.6.9.9 0 0 0 .75.32.83.83 0 0 0 .56-.17.48.48 0 0 0 0-.77 2.2 2.2 0 0 0-.87-.3 3.73 3.73 0 0 1-1.6-.67 1.33 1.33 0 0 1-.48-1.06 1.42 1.42 0 0 1 .25-.8 1.62 1.62 0 0 1 .74-.58 3.47 3.47 0 0 1 1.36-.2 2.77 2.77 0 0 1 1.6.38 1.67 1.67 0 0 1 .66 1.23l-1.6.1a.86.86 0 0 0-.27-.55.87.87 0 0 0-.55-.12.68.68 0 0 0-.44.12.38.38 0 0 0-.15.3.3.3 0 0 0 .13.23 1.42 1.42 0 0 0 .57.2 7 7 0 0 1 1.6.45 1.66 1.66 0 0 1 .7.6 1.52 1.52 0 0 1 .22.8 1.7 1.7 0 0 1-.3 1 1.83 1.83 0 0 1-.8.68 3.35 3.35 0 0 1-1.33.23 2.74 2.74 0 0 1-1.96-.6 2.1 2.1 0 0 1-.6-1.32zM61 12.25l1.5.45a2.7 2.7 0 0 1-.48 1 2 2 0 0 1-.8.63 3 3 0 0 1-1.22.2 3.55 3.55 0 0 1-1.46-.25 2.3 2.3 0 0 1-1-.9 3 3 0 0 1-.4-1.67 2.82 2.82 0 0 1 .7-2.07 3.32 3.32 0 0 1 3.7-.3 2.44 2.44 0 0 1 .87 1.27l-1.5.33a1.3 1.3 0 0 0-.15-.36 1 1 0 0 0-.35-.3 1.08 1.08 0 0 0-1.34.36 2 2 0 0 0-.23 1.07 2 2 0 0 0 .27 1.3 1.1 1.1 0 0 0 1.5.06 1.66 1.66 0 0 0 .4-.8zM63.08 11.76a2.8 2.8 0 0 1 .75-2.08 2.84 2.84 0 0 1 2.1-.74 2.88 2.88 0 0 1 2.07.73 2.73 2.73 0 0 1 .74 2 3.32 3.32 0 0 1-.32 1.57 2.28 2.28 0 0 1-.94 1 3.1 3.1 0 0 1-1.53.34 3.55 3.55 0 0 1-1.54-.3 2.32 2.32 0 0 1-1-.92 3.07 3.07 0 0 1-.37-1.6zm1.7 0a1.8 1.8 0 0 0 .3 1.24 1.18 1.18 0 0 0 1.7 0 2 2 0 0 0 .3-1.27 1.67 1.67 0 0 0-.3-1.12 1.07 1.07 0 0 0-.86-.35 1 1 0 0 0-.82.36 1.8 1.8 0 0 0-.32 1.17zM69.67 9.04h2.23l.86 3.3.85-3.3h2.24v5.44h-1.4v-4.15l-1.06 4.15h-1.25l-1.07-4.15v4.15h-1.4V9.04z"/><path fill="#fff" fill-rule="evenodd" d="M1.47 14.86V1.5h7a10.43 10.43 0 0 1 3 .34 3.17 3.17 0 0 1 1.67 1.22 3.62 3.62 0 0 1 .63 2.16 3.66 3.66 0 0 1-.48 1.92 3.75 3.75 0 0 1-1.3 1.3 5.14 5.14 0 0 1-1.5.56 4.25 4.25 0 0 1 1.1.5 4.23 4.23 0 0 1 .66.7 5.2 5.2 0 0 1 .6.82l2 3.87h-4.73l-2.26-4.12a3.1 3.1 0 0 0-.76-1 1.8 1.8 0 0 0-1-.3h-.4v5.4zm3.86-7.1h2.34a8.5 8.5 0 0 0 1.47-.23A1.47 1.47 0 0 0 10 7a1.6 1.6 0 0 0 .35-1 1.6 1.6 0 0 0-.55-1.3 3.4 3.4 0 0 0-2.04-.5H5.33z"/><path d="M16.38 15.73H76.2v.64H16.4z"/></g></g></svg>