<svg xmlns="http://www.w3.org/2000/svg" viewBox="0 0 78.12 9.65"><title>Asset 5</title><g><g fill-rule="evenodd"><path fill="#fff" d="M75.3 9.47a.57.57 0 0 1-.57-.57V6c0-.08 0-.28-.86-.28h-.3v1.5h.32a.57.57 0 0 1 .56.58v1.1a.57.57 0 0 1-.57.58h-3.25a.57.57 0 0 1-.57-.57V7.8a.57.57 0 0 1 .57-.57H71v-4.8h-.3a.57.57 0 0 1-.57-.58V.75a.57.57 0 0 1 .57-.57h3.8a3.14 3.14 0 0 1 2.66 1.15 2.2 2.2 0 0 1 .5 1.44 2.36 2.36 0 0 1-.75 1.84 1.83 1.83 0 0 1 .43 1.4v1.23h.22a.57.57 0 0 1 .57.57v1.1a.57.57 0 0 1-.57.58zm-1.35-6c.95 0 1-.2 1-.66s-.12-.43-1.22-.43h-.2v1.1z"/><path fill="#009751" d="M73.9 8.9V7.8H73V5.2h.88c.6 0 1.42.07 1.42.84V8.9h2.26V7.8h-.8V6a1.16 1.16 0 0 0-1-1.3A1.82 1.82 0 0 0 77 2.78a1.67 1.67 0 0 0-.37-1.1 2.8 2.8 0 0 0-2.47-.93h-3.5v1.1h.87V7.8h-.87v1.1zM73 1.86h.77c.77 0 1.8 0 1.8 1s-.82 1.23-1.63 1.23H73z"/><path fill="#fff" d="M63.13 9.47a.57.57 0 0 1-.57-.57V7.8a.57.57 0 0 1 .57-.57h.3v-4.8h-.3a.57.57 0 0 1-.57-.58V.75a.57.57 0 0 1 .57-.57h6.3a.57.57 0 0 1 .57.57V2.9a.57.57 0 0 1-.57.58H68.1a.57.57 0 0 1 .2.44V5.2a.57.57 0 0 1-.56.57H66v1.46h1.5v-.77a.56.56 0 0 1 .58-.57h1.3a.57.57 0 0 1 .57.56V8.9a.57.57 0 0 1-.57.58zm4.63-6.13a.56.56 0 0 1-.2-.44v-.48H66v.93z"/><path fill="#009751" d="M69.4 8.9V6.47h-1.3V7.8h-2.63V5.2h2.28V3.9h-2.28V1.86h2.64V2.9h1.3V.74h-6.27v1.1H64V7.8h-.87v1.1h6.28z"/><path fill="#fff" d="M56.44 9.47a.57.57 0 0 1-.57-.57V7.8a.57.57 0 0 1 .57-.57h.34v-4.8h-.34a.57.57 0 0 1-.57-.58V.75a.57.57 0 0 1 .57-.57h3.38a.57.57 0 0 1 .57.57v1.1a.57.57 0 0 1-.58.57h-.43v4.8h.8V6.5a.57.57 0 0 1 .58-.58h1.3a.57.57 0 0 1 .57.57v2.4a.57.57 0 0 1-.57.58z"/><path fill="#009751" d="M62.07 8.9V6.5h-1.3v1.3h-1.95V1.84h1V.75h-3.38v1.1h.9V7.8h-.9v1.1h5.63z"/><path fill="#fff" d="M48.87 9.47a.57.57 0 0 1-.57-.57V7.8a.57.57 0 0 1 .57-.57h.3v-4.8h-.3a.57.57 0 0 1-.57-.58V.75a.57.57 0 0 1 .57-.57h6.37a.57.57 0 0 1 .57.57V2.9a.57.57 0 0 1-.56.58H54a.57.57 0 0 1 .2.44V5.2a.57.57 0 0 1-.56.57h-1.87v1.46h.4a.57.57 0 0 1 .57.57v1.1a.57.57 0 0 1-.57.58zm4.72-6.13a.56.56 0 0 1-.22-.44v-.48h-1.6v.93z"/><path fill="#009751" d="M52.17 8.9V7.8h-.97V5.2h2.45V3.9H51.2V1.86h2.74V2.9h1.3V.74h-6.37v1.1h.86V7.8h-.86v1.1h3.3z"/><path fill="#fff" d="M41.26 9.47a.57.57 0 0 1-.57-.57V7.8a.57.57 0 0 1 .56-.57h.3v-4.8h-.3a.57.57 0 0 1-.57-.58V.75a.57.57 0 0 1 .56-.57h6.37a.57.57 0 0 1 .57.57V2.9a.57.57 0 0 1-.57.58H46.4a.56.56 0 0 1 .22.44V5.2a.57.57 0 0 1-.57.57h-1.9v1.46h.4a.57.57 0 0 1 .57.57v1.1a.57.57 0 0 1-.57.58zM46 3.34a.56.56 0 0 1-.2-.44v-.48h-1.64v.93z"/><path fill="#009751" d="M44.56 8.9V7.8h-.96V5.2h2.45V3.9H43.6V1.86h2.74V2.9h1.3V.74h-6.38v1.1h.86V7.8h-.86v1.1h3.3z"/><path fill="#fff" d="M33.75 9.47a.57.57 0 0 1-.57-.57V7.8a.57.57 0 0 1 .57-.57h.3v-4.8h-.3a.57.57 0 0 1-.57-.58V.75a.57.57 0 0 1 .57-.57H40a.57.57 0 0 1 .57.57V2.9a.57.57 0 0 1-.57.58h-1.28a.57.57 0 0 1 .2.44V5.2a.57.57 0 0 1-.56.57h-1.7v1.46h1.5v-.77a.57.57 0 0 1 .58-.57H40a.57.57 0 0 1 .57.56V8.9a.57.57 0 0 1-.57.58zm4.63-6.13a.57.57 0 0 1-.2-.44v-.48h-1.53v.93z"/><path fill="#009751" d="M40.03 8.9V6.47h-1.3V7.8h-2.65V5.2h2.3V3.9h-2.3V1.86h2.65V2.9h1.3V.74h-6.28v1.1h.88V7.8h-.88v1.1h6.28z"/><path fill="#fff" d="M29.62 9.47a.57.57 0 0 1-.57-.57V7.8a.57.57 0 0 1 .57-.57h.1l-.16-.46H27.9l-.17.46h.08a.57.57 0 0 1 .58.57v1.1a.57.57 0 0 1-.57.58h-2.9a.57.57 0 0 1-.58-.57V7.8a.57.57 0 0 1 .57-.57h.25l1.64-4.8h-.1a.57.57 0 0 1-.57-.58V.75a.57.57 0 0 1 .57-.57h4.22a.57.57 0 0 1 .57.57v1.1a.57.57 0 0 1-.58.57h-.1l1.6 4.8h.22a.57.57 0 0 1 .57.58v1.1a.57.57 0 0 1-.56.58zm-.73-4.94l-.16-.45-.15.45z"/><path fill="#009751" d="M27.8 8.9V7.8h-.87l.55-1.6H30l.55 1.6h-.9v1.1h3V7.8H32l-2-5.95h.9V.75h-4.2v1.1h.9l-2 5.94h-.68v1.1zm0-3.8l.96-2.76.9 2.76z"/><path fill="#fff" d="M20.54 9.47A.57.57 0 0 1 20 8.9V7.8a.57.57 0 0 1 .57-.57h.3V5.77h-1.82v1.46h.3a.57.57 0 0 1 .58.57v1.1a.57.57 0 0 1-.57.58h-3.2a.57.57 0 0 1-.58-.57V7.8a.57.57 0 0 1 .57-.57h.3v-4.8h-.3a.57.57 0 0 1-.57-.58V.75a.57.57 0 0 1 .57-.57h3.2a.57.57 0 0 1 .58.57v1.1a.57.57 0 0 1-.57.57h-.3v.93h1.77v-.93h-.3a.57.57 0 0 1-.53-.57V.75a.57.57 0 0 1 .57-.57h3.2a.57.57 0 0 1 .58.57v1.1a.57.57 0 0 1-.57.57h-.3v4.8h.3a.57.57 0 0 1 .57.58v1.1a.57.57 0 0 1-.57.58z"/><path fill="#009751" d="M19.36 8.9V7.8h-.87V5.2h2.9v2.6h-.86v1.1h3.2V7.8h-.86V1.84h.87V.75h-3.2v1.1h.85V3.9h-2.9V1.86h.86V.75h-3.2v1.1H17V7.8h-.87v1.1h3.2z"/><path fill="#fff" d="M11.46 9.65a4.74 4.74 0 0 1-4.7-4.87A4.6 4.6 0 0 1 11.45 0a4.9 4.9 0 0 1 1.72.35.57.57 0 0 1 .4-.17h1.2a.57.57 0 0 1 .57.57V3.4a.57.57 0 0 1-.57.56h-1.2A.57.57 0 0 1 13 3.5a1.2 1.2 0 0 0-.55-.7 1.8 1.8 0 0 0-1-.3 2.12 2.12 0 0 0-2.1 2.33 2.12 2.12 0 0 0 2.1 2.34 1.84 1.84 0 0 0 1.8-1.22.57.57 0 0 1 .52-.3h1.36a.57.57 0 0 1 .55.7 4.14 4.14 0 0 1-4.22 3.3z"/><path fill="#009751" d="M14.78 3.4V.74h-1.2v.52a3.53 3.53 0 0 0-2.12-.7 4 4 0 0 0-4.14 4.2 4.15 4.15 0 0 0 4.14 4.3 3.56 3.56 0 0 0 3.68-2.87h-1.36a2.4 2.4 0 0 1-2.32 1.54A2.67 2.67 0 0 1 8.8 4.82a2.67 2.67 0 0 1 2.66-2.9 2.36 2.36 0 0 1 1.33.4 1.74 1.74 0 0 1 .8 1.07z"/><path fill="#fff" d="M3.85 9.65a3.84 3.84 0 0 1-1.63-.34.57.57 0 0 1-.4.17H.62a.57.57 0 0 1-.56-.57V6.12a.57.57 0 0 1 .57-.57H1.8A2.72 2.72 0 0 1 0 2.8 2.93 2.93 0 0 1 3.1 0a2.92 2.92 0 0 1 1.3.32.56.56 0 0 1 .38-.14H6a.57.57 0 0 1 .57.57V3.2a.57.57 0 0 1-.57.55h-.88A2.7 2.7 0 0 1 7 6.55a3 3 0 0 1-3.16 3.1zm-1.73-4a.57.57 0 0 1 .2.35 1.4 1.4 0 0 0 1.42 1.4.65.65 0 0 0 .66-.64c0-.42-.06-.5-1.12-.77l-.7-.2H2.5l-.38-.1zm1.06-3.4c-.58 0-.58.4-.58.54s.72.4 1.25.54l.52.15a.6.6 0 0 1-.1-.2 1.52 1.52 0 0 0-.38-.78 1 1 0 0 0-.73-.25z"/><path fill="#009751" d="M.63 6.12v2.8h1.2V8.4a3.06 3.06 0 0 0 2 .7 2.45 2.45 0 0 0 2.6-2.55c0-1.76-1.08-2.17-2.2-2.5S2 3.6 2 2.82a1.05 1.05 0 0 1 1.17-1.1 1.54 1.54 0 0 1 1.1.43 2.06 2.06 0 0 1 .56 1.06H6V.74H4.78v.5A2.5 2.5 0 0 0 3.1.58 2.37 2.37 0 0 0 .57 2.8a2.4 2.4 0 0 0 2.18 2.45c1.36.4 2.25.4 2.25 1.5A1.22 1.22 0 0 1 3.74 8a2 2 0 0 1-2-1.84z"/></g></g></svg>