<svg xmlns="http://www.w3.org/2000/svg" viewBox="0 0 70.09 12.4"><title>Asset 48</title><g id="Layer_2" data-name="Layer 2"><g id="Layer_1-2" data-name="Layer 1"><path d="M19.46,12.37h-1c-1,0-2.14-.42-2.14-2.42V9.13h2.05V10c0,.34.14.47.48.47h.28c.25,0,.4-.08.4-.47V8c0-.23-.05-.27-.05-.28a3.23,3.23,0,0,0-.4-.27l-1.5-.84a4.84,4.84,0,0,1-.76-.47,1.25,1.25,0,0,1-.39-.58,2.61,2.61,0,0,1-.11-.83V2.27C16.34.78,17.08,0,18.48,0h1c1.4,0,2.14.78,2.14,2.27V3.66H19.56V2.39c0-.35-.13-.48-.47-.48h-.25c-.27,0-.45.08-.45.48v2c0,.23.05.27.05.28a3.12,3.12,0,0,0,.4.28l1.5.81a7.22,7.22,0,0,1,.74.46,1.37,1.37,0,0,1,.39.46,2.23,2.23,0,0,1,.14,1v2.54a2,2,0,0,1-2.15,2.24" fill="#3f3a36"/><path d="M25.74,12.37H23.68V0h2.05Z" fill="#3f3a36"/><path d="M35.25,12.37H33.2l.12-5.6-.73,3.44H31l-.73-3.44.12,5.6H28.33V0H30.5l1.29,6.12L33.08,0h2.17Z" fill="#3f3a36"/><path d="M40.46,12.37h-1c-1,0-2.14-.42-2.14-2.42V9.13H39.4V10c0,.34.14.47.48.47h.28c.25,0,.4-.08.4-.47V8c0-.22-.05-.27-.05-.28a3.11,3.11,0,0,0-.4-.27l-1.5-.84a4.86,4.86,0,0,1-.75-.47,1.26,1.26,0,0,1-.4-.58,2.57,2.57,0,0,1-.11-.83V2.27C37.35.78,38.08,0,39.48,0h1c1.4,0,2.14.78,2.14,2.27V3.66H40.56V2.39c0-.35-.13-.48-.47-.48h-.25c-.27,0-.45.08-.45.48v2c0,.23.05.27.05.28a3.12,3.12,0,0,0,.4.28l1.5.81a7.2,7.2,0,0,1,.74.46,1.37,1.37,0,0,1,.39.46,2.24,2.24,0,0,1,.14,1v2.54a2,2,0,0,1-2.15,2.24" fill="#3f3a36"/><path d="M47.77,12.37h-1a2,2,0,0,1-2.14-2.25V2.25A2,2,0,0,1,46.74,0h1a2,2,0,0,1,2.14,2.25V3.83H47.86V2.37c0-.34-.14-.47-.48-.47h-.32c-.24,0-.4.08-.4.47V10c0,.39.15.47.4.47h.4c.24,0,.4-.08.4-.47V9.13h2.05v1a2,2,0,0,1-2.14,2.25" fill="#3f3a36"/><path d="M57.28,12.37H55.23V8H53.86v4.36H51.81V2.27C51.81.78,52.55,0,53.95,0h1.2c1.4,0,2.14.78,2.14,2.27ZM53.86,6.11h1.37V2.37c0-.34-.13-.47-.47-.47h-.43c-.34,0-.47.13-.47.47Z" fill="#3f3a36"/><path d="M64,12.37H59.79V0h2.05V10.47H64Z" fill="#3f3a36"/><path d="M70.09,12.37H65.69V0h4.41V1.9H67.74V5.06h2.09V7H67.74v3.51h2.36Z" fill="#3f3a36"/><path d="M6,5.48A15.89,15.89,0,0,1,0,8.65v1.41A21.38,21.38,0,0,0,6.88,7.57a19.12,19.12,0,0,0,5.51-5h0V0H9.85A17.35,17.35,0,0,1,6,5.48" fill="#0c76a9"/><path d="M7.21,8.1A22.12,22.12,0,0,1,0,10.69v1.38H0a24.77,24.77,0,0,0,7.52-1.94,22,22,0,0,0,4.85-3.38V3.62A20.87,20.87,0,0,1,7.21,8.1" fill="#3f3a36"/><path d="M7.81,10.7a22.24,22.24,0,0,1-5.62,1.7h8.12a2.08,2.08,0,0,0,2.08-2.08V7.6a21.72,21.72,0,0,1-4.58,3.1" fill="#3f3a36"/></g></g></svg>