<svg xmlns="http://www.w3.org/2000/svg" viewBox="0 0 78.99 16.24"><title>Asset 27</title><g><path fill="#ee2c25" d="M56.18 8.1a.26.26 0 0 0-.1-.2.28.28 0 0 0-.18-.05h-.33l-2.52 5.7-.66-3.06a.5.5 0 0 0-.52-.45h-.42l-2 3.46V8.1a.27.27 0 0 0-.1-.2.3.3 0 0 0-.2-.06h-.4v6.48h.54a.7.7 0 0 0 .42-.12 1.1 1.1 0 0 0 .28-.3l1.74-3.1.72 3.54H53a.73.73 0 0 0 .67-.47l2.5-5.63a.34.34 0 0 0 0-.14M79 7.85h-2.7a1.34 1.34 0 0 0-1.38 1.5 1.56 1.56 0 0 0 .55 1.1l1.82 1.77a1 1 0 0 1 .3.7.72.72 0 0 1-.78.72h-2.37a.22.22 0 0 0-.16.2v.5h2.64a1.34 1.34 0 0 0 1.4-1.52 1.78 1.78 0 0 0-.63-1.2L76 9.93a1 1 0 0 1-.35-.66.73.73 0 0 1 .8-.72h2.4a.23.23 0 0 0 .16-.2s0-.4 0-.5m-19.1.66a3 3 0 0 0-3 2.53c-.45 1.85.4 2.75 1.58 2.9h.12a2.87 2.87 0 0 0 2.93-2.53c.44-1.85-.42-2.8-1.6-2.9m2.3 3a3.66 3.66 0 0 1-3.93 3.1c-2-.23-2.54-2-2.12-3.63.46-1.84 1.78-3.3 3.87-3.13 1.95.23 2.53 2 2.14 3.63M74 7.92a.3.3 0 0 0-.18 0h-.32l-3.34 2.85.44-2.52a.27.27 0 0 0-.1-.28.34.34 0 0 0-.2-.07H70l-1.2 6.48h.7l.5-2.9 2.64 2.86H73a.3.3 0 0 0 .18-.05.22.22 0 0 0 .08-.2.45.45 0 0 0-.1-.22l-2.5-2.72L74 8.33a.32.32 0 0 0 .1-.23.22.22 0 0 0-.1-.18m-6.7.92a1.2 1.2 0 0 0-.64-.24h-.36c-.37 0-1.47 0-1.8 0l-.44 2.36h.75a6.4 6.4 0 0 0 1.54-.13c1-.28 1.52-1.43 1-2m.66-.4a1.65 1.65 0 0 1 .23 1.32A2.26 2.26 0 0 1 66 11.52l1.38 2.36a.58.58 0 0 1 .1.23.22.22 0 0 1-.1.2.28.28 0 0 1-.17.04h-.35l-1.6-2.78h-1.3l-.5 2.8h-.72l1.2-6.5h1.67c1 0 1.85 0 2.35.6M20 9.23a1.55 1.55 0 0 0 .66 1.54l2.07 1.45c.22.15.33.25.3.43s-.17.34-.6.34H20c-.26 0-.4.13-.44.42v.9h2.84a1.8 1.8 0 0 0 2-1.5 1.52 1.52 0 0 0-.6-1.6l-2.2-1.56c-.18-.13-.22-.2-.2-.3s.15-.2.4-.2h2.5c.3 0 .48-.32.53-.64v-.7H21.5A1.64 1.64 0 0 0 20 9.25m25.1-1.4h-3.5v.1c-.08.43 0 1 .65 1h2.6c1 0 1.4.73 1.15 2.12s-.92 2.25-2 2.25h-1.4l.67-3.64H42.1a.3.3 0 0 0-.3.22L41 14.3h2.73c2 0 3.43-1 3.86-3.34.33-1.84-.44-3.14-2.5-3.14m-8.3 5.44H34L35 8a.2.2 0 0 0-.2-.22h-1.2l-1.2 6.48H37l.12-.65c.05-.28 0-.4-.3-.4m3.44-5.43H39l-1.18 6.5h1.44L40.42 8a.2.2 0 0 0-.2-.22M29 8.94c-1.32 0-2 .76-2.25 2.27s.2 2.28 1.5 2.28 2-.76 2.26-2.27-.17-2.26-1.5-2.26m3 2.27a3.75 3.75 0 0 1-3.87 3.4c-2.32 0-3.06-1.55-2.76-3.4a3.74 3.74 0 0 1 3.83-3.37c2.32 0 3.06 1.54 2.75 3.38M15.1 5.58c-1.37-.23-3.83-.3-4.67 1-.65 1 .58 2.36 1.7 3.7C13 11.28 14 12.3 13.6 12.9s-2.4.48-3.13.52a14.8 14.8 0 0 0-2.35.17c-.2.1-.3.42.43.56a21 21 0 0 0 3.5.32c1.56 0 3.2-.26 3.55-1.46.3-1-.7-2-1.57-3.06s-1.9-2-1.83-2.8c.06-.62 1.3-.66 3.37-.7.43 0 1.28 0 1.12-.37s-.8-.4-1.58-.54M8.76 8.44A6.7 6.7 0 0 0 5 7.7c-1.15.06-3.14.43-3.07.8s1.33.26 1.9.26c1.27 0 3.28.08 3.6.9.67 1.75-3.96 4.9-4.94 4.6-.46-.14.9-2.43 1.4-3.26.28-.5.73-1.27.35-1.32s-.9.67-1.2 1.1a31.8 31.8 0 0 0-2.34 3.67c-.2.4-.9 1.55-.7 1.74a5.27 5.27 0 0 0 2.63-.6c4.23-1.68 6.14-3.86 6.65-5.66a1.35 1.35 0 0 0-.57-1.5M5.6.75C5.54.43 6.95.07 8.5 0s3.4.24 3.74 1.27C12.8 3 9.94 5.43 7.46 6.64A2.58 2.58 0 0 1 6.32 7a.16.16 0 0 1-.12-.25 4.25 4.25 0 0 1 1-.93c2.8-2 3.7-3.55 3.18-4.16-.3-.4-1.73-.66-3.2-.66-.4 0-1.46.1-1.57-.26"/></g></svg>