<svg xmlns="http://www.w3.org/2000/svg" viewBox="0 0 70.51 42.55"><title>Asset 14</title><g><g><path fill="#fff" d="M10.93 12.76h47.64v23.47H10.93z"/><path fill="#fff" fill-rule="evenodd" d="M36.53 1.77l.15-.2.2-.2.12-.17.2-.2.28-.3a2.08 2.08 0 0 1 2.76-.3 26.1 26.1 0 0 1 2.2 1.78 26.64 26.64 0 0 1 2 2 2.08 2.08 0 0 1 0 2.77l-.27.3-.17.2-.15.18-.2.2-.14.17-.14.2-1.9 2.1 1.5 1.7a2.22 2.22 0 0 1-.1 3l-.06.06a4.4 4.4 0 0 1-3.54 3.16l-.07.06a2.23 2.23 0 0 1-3-.25l-.9-1-.9 1a2.23 2.23 0 0 1-3 .25l-.08-.06a4.4 4.4 0 0 1-3.53-3.16l-.16-.06a2.22 2.22 0 0 1-.1-3L29 10.32l-1.85-2.1L27 8l-.18-.17-.2-.2-.14-.2-.18-.17L26 7a2.08 2.08 0 0 1 0-2.77A28 28 0 0 1 30.27.4 2.08 2.08 0 0 1 33 .7l.3.3.15.2.17.16.2.2.14.2.17.17 1.1 1.23 1.1-1.23zM31.44 8.7c-.1.14-.18.28-.26.42l-.25.44-1.1.12-1.93-2.13a1 1 0 0 1-.14-.2 1 1 0 0 1-.2-.16L27.4 7a1.14 1.14 0 0 1-.14-.2 1 1 0 0 1-.18-.16l-.28-.3a1.07 1.07 0 0 1 0-1.44 25.26 25.26 0 0 1 1.95-1.93 25.6 25.6 0 0 1 2.12-1.77 1.07 1.07 0 0 1 1.43.16l.28.3a1.08 1.08 0 0 1 .14.2 1 1 0 0 1 .2.17l.18.2a1.06 1.06 0 0 1 .14.2 1.14 1.14 0 0 1 .2.17l1.84 2.06 1.84-2.04a1.07 1.07 0 0 1 .2-.16 1 1 0 0 1 .13-.2l.2-.26a1 1 0 0 1 .18-.16 1.13 1.13 0 0 1 .15-.2l.28-.3a1.08 1.08 0 0 1 1.43-.17 27.13 27.13 0 0 1 4.08 3.65 1.08 1.08 0 0 1 0 1.43l-.28.3a1.1 1.1 0 0 1-.2.17 1 1 0 0 1-.13.2l-.2.2a1 1 0 0 1-.18.17 1.06 1.06 0 0 1-.14.2l-1.9 2.2-1.1-.13-.26-.44c-.08-.14-.17-.3-.27-.42L38 10a3.14 3.14 0 0 0 .37.26l.1-.08a1.2 1.2 0 0 1 1.66.14l2.1 2.34a1.2 1.2 0 0 1 0 1.67l-.27.26a3.4 3.4 0 0 1-3 2.7l-.3.24a1.22 1.22 0 0 1-1.65-.14l-1.64-1.84-1.76 1.83a1.22 1.22 0 0 1-1.66.13l-.3-.23a3.4 3.4 0 0 1-3-2.72l-.25-.26a1.2 1.2 0 0 1 0-1.67l2.08-2.34a1.22 1.22 0 0 1 1.66-.13l.1.08a3.2 3.2 0 0 0 .37-.26l-1.16-1.3zm3.8-3.63l-.16.76-.47.2-.44.22 1.1 1.15 1.08-1.15L35.9 6l-.48-.2-.17-.76zm-3 8.53a.4.4 0 1 0 0 .57.4.4 0 0 0 0-.57zm6.07 0a.4.4 0 1 0 .58 0 .4.4 0 0 0-.6 0z"/><path fill="#803508" fill-rule="evenodd" d="M32.9 12.86a1.4 1.4 0 1 1-2 .1 1.4 1.4 0 0 1 2-.1zm1.45-.67a3.54 3.54 0 0 1-.54-1.2l-.17.14-.32.25a.44.44 0 0 0 0 .7l.15.12.14.13a.44.44 0 0 0 .7-.08l.04-.1zm3.8-4.88a1.6 1.6 0 0 0-.45-.17l-1.44 1.52-.14.14.42.42.14-.22 1.46-1.73zm.93 3.68l-.16.13c-.6.5-1.2 0-1.68-.4-.2-.18-.43-.37-.66-.57.85-1 1.8-2.13 2.5-3a8.28 8.28 0 0 1 1.13 1.5h.1l1.57-1.76a.07.07 0 0 0 0-.1A22.6 22.6 0 0 0 40 4.93c-.28-.25-.57-.5-.87-.75a.08.08 0 0 1 0-.05.07.07 0 0 1 .1 0c.3.24.6.5.87.75s.56.52.84.78h.09c.3.3.62.63.9 1h.11l.2-.2a.07.07 0 0 0 0-.1 22.94 22.94 0 0 0-1.88-1.86c-.28-.26-.57-.5-.87-.75a.07.07 0 0 1 0-.05.07.07 0 0 1 .1 0c.3.24.6.5.87.75s.56.5.84.78h.11c.32.3.63.63.92 1h.1l.58-.6a.07.07 0 0 0 0-.1A25.85 25.85 0 0 0 39.07 2 .07.07 0 0 0 39 2l-.28.3a.06.06 0 0 0 0 .06l.16.12a.07.07 0 0 1 0 .05l-.14.16a.07.07 0 0 1-.1 0l-.17-.14a.07.07 0 0 0-.1 0l-.18.2a.07.07 0 0 0 0 .06l.15.12a.07.07 0 0 1 0 .1l-.14.16a.07.07 0 0 1-.08 0l-.2-.13a.07.07 0 0 0-.08 0L36.27 5v.08a8.12 8.12 0 0 1 1.6.94c-.75.8-1.7 1.84-2.64 2.78-.93-.94-1.88-2-2.65-2.78a8.15 8.15 0 0 1 1.6-.94V5l-1.52-1.7a.07.07 0 0 0-.1 0 22.5 22.5 0 0 0-2.04 1.64c-.28.25-.56.5-.84.78h-.05a.07.07 0 0 1 0-.1c.27-.27.56-.53.84-.8s.57-.5.87-.74a.06.06 0 0 0 0-.05.07.07 0 0 1 0-.05c.34-.28.7-.55 1.06-.8a.08.08 0 0 0 0-.06l-.2-.2a.07.07 0 0 0-.08 0A23.27 23.27 0 0 0 30 4.34c-.28.25-.56.5-.84.78h-.05A.07.07 0 0 1 29 5q.4-.4.84-.8c.28-.24.57-.5.87-.74a.06.06 0 0 0 0-.05.06.06 0 0 1 0-.04c.35-.28.7-.55 1.06-.8a.07.07 0 0 0 0-.05l-.23-.5a.07.07 0 0 0-.1 0 25.76 25.76 0 0 0-3.9 3.5.07.07 0 0 0 0 .1l.27.3h.1l.1-.12h.1l.14.16a.07.07 0 0 1 0 .1l-.15.16a.07.07 0 0 0 0 .1l.18.2h.1l.13-.15h.11l.15.16a.07.07 0 0 1 0 .1l-.15.17a.07.07 0 0 0 0 .1l1.58 1.75h.08a8.14 8.14 0 0 1 1.1-1.5c.73.86 1.68 1.94 2.52 3-.23.2-.45.4-.66.56-.46.37-1.06.9-1.68.4l-.1-.08a.2.2 0 0 0-.3 0l-2.1 2.34a.2.2 0 0 0 0 .3l.3.3a.8.8 0 0 1 .24.43 2.4 2.4 0 0 0 2.18 2 .8.8 0 0 1 .46.18l.33.26a.2.2 0 0 0 .3 0l2.08-2.33a.2.2 0 0 0 0-.3L34.8 14c-.57-.56-.1-1.2.2-1.7l.25-.38.24.37c.3.5.77 1.15.2 1.7l-.14.15a.2.2 0 0 0 0 .3l2.1 2.33a.2.2 0 0 0 .28 0l.33-.26a.8.8 0 0 1 .46-.18 2.4 2.4 0 0 0 2.18-2 .8.8 0 0 1 .24-.44l.3-.3a.2.2 0 0 0 0-.3L39.37 11a.2.2 0 0 0-.3 0zm-1.46 1.9a1.4 1.4 0 1 1-.1 2 1.4 1.4 0 0 1 .1-2zM32.7 7a1.58 1.58 0 0 0-.23.43L33.82 9c.62.74 1.23 1.5 1.78 2.28l.38.57.22.35a.44.44 0 0 0 .7.08l.13-.13.15-.12a.44.44 0 0 0 0-.7l-.32-.26q-.34-.27-.67-.56c-.7-.6-1.33-1.25-1.96-1.9L32.7 7zm-1.76-1.6a.4.4 0 1 1 0 .54.38.38 0 0 1 0-.54zm8.63 0a.4.4 0 1 1-.55 0 .4.4 0 0 1 .55 0z"/><path fill="#fff" fill-rule="evenodd" d="M49.08 19.7v-1h5c1.4 0 2.8.6 2.8 2.2v2.9a1.8 1.8 0 0 1-.24.93 1.9 1.9 0 0 1 .14.6l.33 4h-8v-1a3.37 3.37 0 0 1-2.68 1h-1.65c-1.6 0-3.15-.64-3.15-2.5v-4.18h-1v6.78h-4.2v-6.78h-.88v1h-3.3v1.88h3.52l-.65 3.86h-4.45a2.4 2.4 0 0 1-2.3-1.18l-.13 1.17h-6.5v-6.63L20 29.43h-4l-2.8-10.7h4.52l.28 1.45.26-1.44h9.85l.16 1a2.5 2.5 0 0 1 2.2-1h2.9a2.55 2.55 0 0 1 1.45.43v-.43h7.74l-.12.6a3.75 3.75 0 0 1 2.33-.67h1.65a3.37 3.37 0 0 1 2.68 1.02z"/><path fill="#803508" fill-rule="evenodd" d="M19.2 28.43l2.3-8.7h-2.4l-1.1 6-1.1-6h-2.4l2.3 8.7zm8-8.7h-4.47v8.7h4.58l.2-1.85H25v-1.64h2.35l.12-1.65H25v-1.65h2.56l-.27-1.9zm7.32.88c0-.66-.67-.86-1.2-.86h-2.86c-.73 0-1.46.24-1.46 1v6c0 1.1.4 1.72 1.65 1.72h3.6l.32-1.85H31.5a.23.23 0 0 1-.26-.22v-4.5a.22.22 0 0 1 .25-.24h1v1.05h2.05v-2.1zm6.77-.86h-5.5v1.9h1.6v6.8h2.2v-6.8h1.3l.38-1.9zm5 6.65a.35.35 0 0 1-.38.32h-.7a.38.38 0 0 1-.38-.33v-4.6a.35.35 0 0 1 .38-.32H46a.33.33 0 0 1 .36.32v4.6zm2.2-5.26c0-1.16-1.05-1.47-2.13-1.47h-1.62c-1.1 0-2.13.3-2.13 1.47V27c0 1.2 1.1 1.48 2.15 1.48h1.6c1 0 2.16-.27 2.16-1.48v-5.86zm5.23 2.3c0 .13 0 .3-.32.3H52.3v-2.2h1.16a.28.28 0 0 1 .3.26v1.63zm2 2a.78.78 0 0 0-.67-.74.92.92 0 0 0 .78-.87v-2.9c0-.85-.74-1.2-1.8-1.2h-4v8.68h2.2v-3h.5c.72 0 .84.42.87 1l.12 2H56z"/><path fill="#fff" fill-rule="evenodd" d="M46.9 33.27l11-2.8V24.9a1.18 1.18 0 0 1 0-.14v-1.23a2.6 2.6 0 0 1 .5-1.53h-.5v-4.37L44.24 14a2.72 2.72 0 0 1-2-3l.54-3.77L64.88 13l1.74.4v4.04h3.88l-1 3-1.18 3.65 2.14 6.6h-3.84v4l-1.74.4-29.32 7.4h-.6L5.62 35.15l-1.74-.4v-4H0l1-3 1.18-3.65-1.3-4L0 17.47h3.88v-4.05L5.62 13l22.12-5.8.32 2.25.2 1.55a2.72 2.72 0 0 1-2 3l-14.35 3.82V22h-.46v.8h.5v7.5l11.7 3a2.74 2.74 0 0 1 0-.35v-1.13a2.46 2.46 0 0 1 2.52-2.54h10.51a2.44 2.44 0 0 1 .37 0h9.98v4zm-8.54 2.17h-6.21l3.1.8zM43.4 30.3h2.5v4.14H28.85a1.58 1.58 0 0 1-.67-.14 1.66 1.66 0 0 1-1.36 0 1.58 1.58 0 0 1-.67.14 1.46 1.46 0 0 1-1.5-1.54v-1.08a1.46 1.46 0 0 1 1.5-1.54h8.58a1.7 1.7 0 0 1 .4 0h1.4a1.66 1.66 0 0 1 .46-.07h6.45zm20-8.3h-1.2v.1a1.68 1.68 0 0 0-1.17 0 1.62 1.62 0 0 0-.6-.12 1.46 1.46 0 0 0-1.5 1.54v1.2s0 .1 0 .16v1.26H65.34l.33 1H58.9v2.56h2.52v.92l-26.17 6.65L9.1 30.62v-.92h1.8v-2.54h-6l.34-1h5.68v-2.33h-.5V22H5.2l-.34-1h6v-2.53H9.1v-.93L26 13a1.72 1.72 0 0 0 1.27-1.9l-.22-1.5-.15-1.14L5.86 14l-1 .22v4.25H1.38l.42 1.3 1.4 4.3L1.9 28l-.52 1.7h3.5v4.25l1 .22 29.22 7.37h.36l29.2-7.37 1-.22V29.7h3.52l-1.8-5.6 1.27-4 .53-1.67h-3.56v-4.2l-1-.23-21-5.55-.16 1.13-.22 1.52A1.7 1.7 0 0 0 44.5 13l16.92 4.54v.93H58.9V21h6.75l-.33 1z"/><path fill="#2f3337" fill-rule="evenodd" d="M59.9 28.17H67l-1.3-4V24l1.3-4h-7.1v-.53h2.52v-2.7L44.76 12a.7.7 0 0 1-.54-.78l.06-.4 18.8 5 .4.1v3.53h.62v-4l-19.74-5.22.08-.52 20 5.27h.2v4.46h3.14l-.1.34-1.4 4.26 1.4 4.26.1.33h-3.16v4.46h-.2l-29.1 7.34h-.12L6.1 33.2h-.2v-4.5H2.75l.1-.35 1.4-4.26-1.4-4.28-.1-.34H5.9V15h.2l20-5.26.07.52-19.75 5.18v4H7v-3.5l.4-.1 18.8-5 .06.4a.7.7 0 0 1-.54.78L8.1 16.77v2.7h1.8V20H3.48l1.3 4v.16l-1.3 4H9.9v.53H8.1v2.7l27.16 6.9 27.16-6.9v-2.7H59.9v-.54zM6.23 23.32h.57V23h-.9v2.13h.9v-.3h-.57v-.63h.46v-.3h-.47v-.6zm.9.2c0 .62.67.7.67 1.14 0 .15-.07.2-.17.2s-.17-.05-.17-.2v-.15h-.33v.14a.5.5 0 1 0 1 0c0-.6-.66-.7-.66-1.13 0-.14.06-.2.17-.2s.17.06.17.2v.1h.33v-.07c0-.34-.17-.54-.5-.54s-.48.2-.48.53zm1.27-.2h.35v1.83h.34v-1.83h.34V23h-1v.3zm1.2 1.5v.33h.33v-.32zm51-1.28c0 .62-.65.72-.65 1.35v.25h1v-.3h-.63c0-.35.67-.6.67-1.27 0-.34-.18-.54-.5-.54s-.5.2-.5.54v.2h.3v-.22c0-.15.08-.2.18-.2s.17.04.17.23zm.86 0v1.15c0 .14.07.2.17.2s.18-.06.18-.2v-1.2c0-.14-.06-.2-.17-.2s-.17.06-.17.2zm-.34 1.13a.5.5 0 1 0 1 0v-1.14a.5.5 0 1 0-1 0v1.1zm1.44-1.12h.26v1.63h.34V23h-.23a.33.33 0 0 1-.37.27v.24zm.92 1.24h.64v.38h.33v-.4h.16v-.3h-.15V23h-.37l-.6 1.44v.3zm.3-.3h.34v-.8l-.33.8zm-37.5 8.17v.3c0 .15-.06.2-.16.2s-.17-.05-.17-.2V31.8c0-.15.07-.2.17-.2s.17.05.17.2v.2h.3v-.2a.5.5 0 1 0-1 0v1.1a.5.5 0 1 0 1 0v-.28zM27 31.3v1.63c0 .34.17.54.5.54s.5-.2.5-.54V31.3h-.32V33c0 .15-.07.2-.17.2s-.16-.04-.16-.2v-1.7zm1.36.52c0 .6.65.7.65 1.13 0 .15-.06.2-.16.2s-.17-.05-.17-.2v-.15h-.32v.13a.5.5 0 1 0 1 0c0-.6-.65-.7-.65-1.13 0-.15.06-.2.17-.2s.17.05.17.2v.1h.32v-.08c0-.34-.17-.54-.5-.54s-.48.2-.48.54zm1.25-.2h.36v1.82h.34V31.6h.35v-.3h-1v.3zm1.67.18v1.15c0 .15.07.2.17.2s.17-.05.17-.2V31.8c0-.15-.06-.2-.16-.2s-.17.05-.17.2zm-.34 1.13a.5.5 0 1 0 1 0v-1.1a.5.5 0 1 0-1 0v1.1zm1.87-1.62h-.5v2.14h.3v-1.5l.24 1.5h.32l.23-1.53v1.54h.3V31.3h-.46L33 32.83l-.25-1.5zm1.83 1.46V33c0 .3.13.5.37.5a.32.32 0 0 0 .3-.2.53.53 0 0 0 0 .17h.35a.66.66 0 0 1 0-.26v-.7h.1v-.3h-.1v-.23h-.33v.24h-.15c-.12 0-.2-.05-.2-.22v-.13c0-.15.06-.2.17-.2h.38v-.3h-.42c-.34 0-.5.18-.5.52a.42.42 0 0 0 .23.44.44.44 0 0 0-.23.46zm.34.2c0 .14.07.2.17.2s.17-.05.17-.2v-.48h-.12c-.15 0-.22.07-.22.27v.2zm1.52-1.14c0 .6.65.7.65 1.13 0 .15-.07.2-.17.2s-.17-.05-.17-.2v-.15h-.3v.13c0 .34.16.54.5.54s.5-.2.5-.54c0-.6-.66-.7-.66-1.13 0-.15.06-.2.17-.2s.18.05.18.2v.1h.32v-.08c0-.34-.17-.54-.5-.54s-.48.2-.48.54zm1.68-.2h.58v-.3h-.92v2.12h.92v-.3h-.58v-.63h.46v-.3h-.46v-.58zm2 1.82a.65.65 0 0 1 0-.26v-.33c0-.22-.05-.38-.22-.45a.43.43 0 0 0 .22-.43v-.17c0-.33-.15-.5-.5-.5h-.5v2.14h.33v-.87h.13c.15 0 .22.07.22.27v.34a.68.68 0 0 0 0 .26zm-.54-1.83h-.16v.67h.13c.13 0 .2-.06.2-.23v-.2c0-.16-.04-.23-.16-.23zm1.14-.3h-.34l.33 2.14h.5l.33-2.13h-.3L41 33l-.25-1.74zm1.14 2.14h.34V31.3h-.34v2.14zm1.4-.8v.3c0 .15-.06.2-.16.2s-.17-.05-.17-.2V31.8c0-.15.06-.2.16-.2s.17.05.17.2v.2h.32v-.2c0-.35-.17-.55-.5-.55a.47.47 0 0 0-.5.54v1.1a.5.5 0 1 0 1 0v-.28zm1-1h.6v-.3H44v2.13h.9v-.3h-.57v-.63h.46v-.3h-.47v-.6zm19.78-2.92h-.62v3.54l-.4.1-27.7 7h-.24l-27.7-7-.44-.12V28.7h-.58v4L35.25 40l28.84-7.3z"/><path fill="#fff" d="M27.26 8.76h2.1v2.72h-2.1zM41.36 8.76h1.75v2.8h-1.74z"/></g></g></svg>